<svg xmlns="http://www.w3.org/2000/svg" width="588.177" height="197.824"><defs><clipPath id="a"><path fill="#003964" d="M0 0h588.177v110H0z"/></clipPath></defs><g fill="#003964"><path d="m17.724 197.571-7.056-11.508 5.908-7.812h-4.648l-6.1 8.344v-8.344H1.9v19.32h3.92v-5.124l2.3-3.024 4.928 8.148Zm7.84-19.32h-3.92v19.32h3.92Zm3.808 0v3.332h5.32v15.988h3.92v-15.988h5.32v-3.332Zm19.236 19.32 1.176-3.668h6.468l1.176 3.668H61.6l-6.72-19.32h-3.752l-6.72 19.32ZM53 183.795l2.184 6.8H50.82Zm16.02-5.544H65.1v19.32h3.92Zm4.424 0v3.332h7.84l-7.84 13.412v2.576h13.048v-3.3h-8.064l7.784-13.44v-2.58Zm27.916 0v11.508c0 3.3-1.092 4.76-3.5 4.76s-3.5-1.456-3.5-4.76v-11.508h-3.92v11.508c0 5.684 3.136 8.064 7.42 8.064s7.42-2.38 7.42-8.092v-11.48Zm12.8 0h-3.668v19.32h3.724v-11.9l4.144 8.428h2.38l4.2-8.512v11.984h3.752v-19.32h-3.724l-5.38 10.528Zm23.94 0h-3.92v19.32h3.92Zm13.888 0v19.32h7.084c5.1 0 7.056-2.548 7.056-5.544a4.484 4.484 0 0 0-3.164-4.592 4.352 4.352 0 0 0 2.548-4.116c0-3.444-2.492-5.068-7.056-5.068Zm3.912 10.948h2.464c2.632 0 3.836.7 3.836 2.52 0 1.652-1.12 2.548-3.472 2.548H155.9Zm0-7.644h2.184c2.828 0 3.5.784 3.5 2.128 0 1.372-.924 2.212-3.08 2.212h-2.6Zm14.448-3.3v19.316h12.04v-3.3h-8.12v-5.04h7.28v-3.3h-7.28v-4.34h8.12v-3.34Zm18.344 19.316 1.176-3.668h6.468l1.176 3.668h4.172l-6.72-19.32h-3.752l-6.72 19.32Zm4.4-13.776 2.184 6.8H190.9Zm25.144.448c-.644-4.228-3.248-6.244-7.084-6.244-4.34 0-7.392 2.576-7.392 8.54v2.744c0 5.908 3.052 8.54 7.392 8.54 3.976 0 6.412-1.9 7.056-6.244h-3.728c-.42 1.96-1.372 2.94-3.332 2.94-2.268 0-3.472-1.652-3.472-5.236v-2.744c0-3.7 1.2-5.236 3.472-5.236a3.208 3.208 0 0 1 3.332 2.94Zm8.064-5.992h-3.92v19.32h3.92v-8.344h6.692v8.344h3.92v-19.32h-3.92v7.672H226.3ZM1.9 139.251v19.32h3.92v-7.9h7.28v-3.3H5.824v-4.788h8.12v-3.332Zm26.908 0v11.508c0 3.3-1.092 4.76-3.5 4.76s-3.5-1.456-3.5-4.76v-11.508h-3.92v11.508c0 5.684 3.136 8.064 7.42 8.064s7.42-2.38 7.42-8.092v-11.48Zm24.952 19.32-7.06-11.508 5.908-7.812h-4.644l-6.1 8.344v-8.344H37.94v19.32h3.92v-5.124l2.3-3.024 4.924 8.148Zm14.308-19.32v11.508c0 3.3-1.092 4.76-3.5 4.76s-3.5-1.456-3.5-4.76v-11.508h-3.92v11.508c0 5.684 3.136 8.064 7.42 8.064s7.42-2.38 7.42-8.092v-11.48Zm22.12 2.912c-1.372-2.128-3.7-3.164-6.776-3.164-4.592 0-6.608 2.38-6.608 5.432 0 3.192 1.9 5.012 5.712 6.02 3.136.812 3.948 1.568 3.948 2.912 0 1.176-.756 2.156-3 2.156a4.826 4.826 0 0 1-4.2-1.932l-3 2.072c1.716 2.24 4.068 3.164 7.456 3.164 4.536 0 6.664-2.464 6.664-5.628 0-3.416-1.82-4.928-5.852-5.936-2.576-.644-3.808-1.316-3.808-2.828 0-1.316.952-2.128 2.716-2.128a3.935 3.935 0 0 1 3.808 1.96Zm8.428-2.912H94.7v19.32h3.92v-8.344h6.692v8.344h3.92v-19.32h-3.92v7.672h-6.696Zm20.048 0h-3.92v19.32h3.92Zm9.156 0h-3.668v19.32h3.724v-11.9l4.144 8.428h2.38l4.2-8.512v11.984h3.752v-19.32h-3.724l-5.376 10.528Zm21.924 19.32 1.176-3.668h6.468l1.176 3.668h4.172l-6.72-19.32h-3.752l-6.72 19.32Zm4.4-13.776 2.184 6.8h-4.368Zm23.884-5.544h-3.668v19.32h3.724v-11.9l4.144 8.428h2.38l4.2-8.512v11.984h3.752v-19.32h-3.724l-5.38 10.528Zm23.94 0h-3.92v19.32h3.92Zm16.3 0v12.12l-7.568-12.12h-3.248v19.32h3.724v-11.956l7.532 11.956h3.276v-19.32Zm11.132 19.32 1.176-3.668h6.468l1.18 3.668h4.176l-6.72-19.32h-3.752l-6.728 19.32Zm4.4-13.776 2.184 6.8h-4.368Zm15.484-5.544h-3.668v19.32h3.724v-11.9l4.144 8.428h2.38l4.2-8.512v11.984h3.752v-19.32h-3.724l-5.376 10.528Zm23.94 0H269.3v19.32h3.92Zm18.48 2.912c-1.372-2.128-3.7-3.164-6.776-3.164-4.592 0-6.608 2.38-6.608 5.432 0 3.192 1.9 5.012 5.712 6.02 3.136.812 3.948 1.568 3.948 2.912 0 1.176-.756 2.156-3 2.156a4.826 4.826 0 0 1-4.2-1.932l-3 2.072c1.708 2.24 4.06 3.164 7.448 3.164 4.536 0 6.664-2.464 6.664-5.628 0-3.416-1.82-4.928-5.852-5.936-2.576-.644-3.808-1.316-3.808-2.828 0-1.316.952-2.128 2.716-2.128a3.935 3.935 0 0 1 3.808 1.96Zm18.732 8.12v-2.744c0-5.964-3.052-8.54-7.42-8.54-4.34 0-7.392 2.576-7.392 8.54v2.744c0 5.908 3.052 8.54 7.392 8.54 4.368 0 7.42-2.632 7.42-8.54Zm-10.892-2.744c0-3.7 1.2-5.236 3.472-5.236s3.5 1.54 3.5 5.236v2.744c0 3.7-1.232 5.236-3.5 5.236s-3.472-1.54-3.472-5.236Zm19.18-8.288h-3.668v19.32h3.724v-11.9l4.144 8.428h2.38l4.2-8.512v11.984h3.752v-19.32h-3.724l-5.376 10.528Zm21.924 19.32 1.176-3.668h6.468l1.176 3.668h4.172l-6.72-19.32h-3.752l-6.72 19.32Zm4.4-13.776 2.184 6.8h-4.372Z"/></g><g clip-path="url(#a)" fill="#003964"><path d="M135.274 46.889a23.692 23.692 0 0 0 3.238-12.085V13.11a7.379 7.379 0 0 0-1.517-4.483 7.419 7.419 0 0 0-6.513-3.878l-11.894-.013h-.008a7.422 7.422 0 0 0-.008 14.843l5.1.006v15.22a8.483 8.483 0 0 1-1.7 5.29 3.366 3.366 0 0 1-2.366 1.4 7.422 7.422 0 1 0 0 14.844c7.49 0 13.818 8.549 13.818 18.668s-6.328 18.668-13.818 18.668a7.422 7.422 0 1 0 0 14.843c7.948 0 15.326-3.685 20.774-10.378a36.619 36.619 0 0 0 7.887-23.133 36.619 36.619 0 0 0-7.887-23.134 30.381 30.381 0 0 0-5.106-4.984M158.505 26.914v-13.8a6.494 6.494 0 1 0-12.988 0v13.8a6.494 6.494 0 1 0 12.988 0M170.33 33.409a6.494 6.494 0 0 0 6.494-6.494v-13.8a6.494 6.494 0 0 0-12.988 0v13.8a6.494 6.494 0 0 0 6.494 6.494M100.966 87.884c-2.915-1.573-3.178-5.225-3.2-5.63V65.048a7.422 7.422 0 1 0-14.843 0v17.3c0 4.708 2.316 13.924 10.995 18.605a7.422 7.422 0 1 0 7.047-13.064m-3.2-5.541v-.07.07M169.54 57.626a7.422 7.422 0 0 0-7.422 7.422v17.206c-.02.4-.282 4.058-3.2 5.631a7.422 7.422 0 1 0 7.046 13.064c8.68-4.682 11-13.9 11-18.605v-17.3a7.421 7.421 0 0 0-7.422-7.422m-7.422 24.717v-.071ZM64.22 94.103h-6.98c-.995 0-2.931-1.906-2.931-5.4a7.486 7.486 0 0 0-.053-.853 7.485 7.485 0 0 0 .053-.853v-3.448a24.472 24.472 0 0 0-5.228-15.371 18.762 18.762 0 0 0-13.326-7.158l10.25-21.205a7.422 7.422 0 0 0-6.682-10.652H8.7a7.422 7.422 0 0 0 0 14.844h18.792L.742 99.346a7.422 7.422 0 1 0 13.364 6.46L28.6 75.827h6.06c2.269 0 4.806 3.3 4.806 7.722v3.446a7.487 7.487 0 0 0 .053.853 7.488 7.488 0 0 0-.053.853c0 11.162 7.974 20.243 17.774 20.243h6.98a7.422 7.422 0 1 0 0-14.843M11.83 20.893l24.356.013a7.422 7.422 0 0 0 0-14.843l-24.348-.01a7.422 7.422 0 0 0 0 14.843M229.503 41.115v-11.42h3.4a7.422 7.422 0 0 0 0-14.843h-3.4V13.11a7.422 7.422 0 1 0-14.843 0v1.74l-12.824-.005a7.422 7.422 0 0 0 0 14.843l12.83.006v11.421c0 3.625-2.363 6.686-5.161 6.686a7.422 7.422 0 0 0 0 14.843c11.03 0 20-9.658 20-21.53M256.19 33.409a6.494 6.494 0 0 0 6.494-6.494v-13.8a6.494 6.494 0 1 0-12.988 0v13.8a6.494 6.494 0 0 0 6.494 6.494M272.989 81.207c-5.171 0-9.378-4.645-9.378-10.353V52.896a7.422 7.422 0 1 0-14.843 0V65.53a21.1 21.1 0 0 0-7.091-1.229c-12.095 0-21.934 10.218-21.934 22.777s9.84 22.777 21.934 22.777a22.1 22.1 0 0 0 21-16.209 23.3 23.3 0 0 0 10.311 2.4 7.422 7.422 0 0 0 0-14.844m-31.312 13.805c-3.91 0-7.091-3.559-7.091-7.934s3.181-7.934 7.091-7.934 7.091 3.559 7.091 7.934-3.181 7.934-7.091 7.934M480.509 93.531h-9.989c-3.8 0-7.124-4.981-7.124-10.658V60.445h4.98c12.3 0 22.312-9.3 22.312-20.731a7.691 7.691 0 0 0-15.383 0c0 2.9-3.173 5.348-6.929 5.348h-4.98V9.595a7.691 7.691 0 1 0-15.382 0v73.278a28.342 28.342 0 0 0 6.046 17.807 21.274 21.274 0 0 0 16.46 8.234h9.989a7.691 7.691 0 0 0 0-15.383M435.778 59.808V9.596a7.691 7.691 0 1 0-15.383 0V22.83l-16.642-.012h-.006a7.691 7.691 0 0 0-.005 15.382l16.653.012v25.464c-.69 12.831-6.285 15.284-16.648 15.284a7.691 7.691 0 1 0 0 15.383q9.817 0 16.648-3.189v11.012a7.691 7.691 0 0 0 15.383 0v-38.4a64.12 64.12 0 0 0 .074-2.945 7.762 7.762 0 0 0-.074-1.012M379.08 92.021c-5.715-12.475-12.688-21.486-19.786-28v-29.85a7.422 7.422 0 0 0-14.844 0v19.455a63.922 63.922 0 0 0-7.543-3.29 63.428 63.428 0 0 0-4.584-1.458V13.11a7.386 7.386 0 0 0-1.771-4.8 7.41 7.41 0 0 0-6.319-3.558l-13.03-.013h-.008a7.422 7.422 0 0 0-.008 14.843l6.294.007v27.013a44.69 44.69 0 0 0-5.693.162c-11.849.295-21.4 10.389-21.4 22.763 0 12.56 9.839 22.777 21.934 22.777s21.932-10.215 21.932-22.777a23.628 23.628 0 0 0-.428-4.476 50.867 50.867 0 0 1 10.624 5.917V83.02c0 .088-.2 8.939-7.513 12.882a7.422 7.422 0 1 0 7.047 13.064c11.266-6.077 14.242-17.08 15.028-22.608a84.054 84.054 0 0 1 6.574 11.846 7.421 7.421 0 1 0 13.494-6.182m-66.761-14.56c-3.91 0-7.091-3.559-7.091-7.934s3.181-7.939 7.091-7.939 7.091 3.559 7.091 7.934-3.181 7.934-7.091 7.934M580.486 93.531c-2.023 0-4.422-2.05-6.418-5.484a35.166 35.166 0 0 1-4.1-13.65c6.944-2.671 11.838-9 11.838-16.366a7.688 7.688 0 0 0-6.359-7.568 7.691 7.691 0 0 0 4.636-7.057V19.563a7.688 7.688 0 0 0-6.74-7.627 3.834 3.834 0 0 0-.951-.124h-35.823a10.473 10.473 0 0 0-2.706-9.841 6.731 6.731 0 0 0-11.109 6.99l-4.615 4.481a7.671 7.671 0 0 0-3.046 6.12v23.843a7.688 7.688 0 0 0 5.7 7.422 3.822 3.822 0 0 0 1.989.559h17.113v37.878c-.021.416-.292 4.2-3.315 5.836a7.691 7.691 0 1 0 7.3 13.539c8.994-4.852 11.394-14.4 11.394-19.281v-9.073a48 48 0 0 0 5.494 15.493c4.854 8.348 12.04 13.135 19.717 13.135a7.691 7.691 0 0 0 0-15.383m-40.593-4.173v-.073ZM530.457 43.7c0-.1.014-.192.014-.29v-7.96h34.225v7.96c0 .1.011.193.015.29ZM564.7 19.5v8.25h-34.225v-7.53l.742-.72Zm5.551 31.882a7.682 7.682 0 0 0-3.83 6.645c0 .954-1.488 2.34-3.819 2.34a7.692 7.692 0 0 0-7.323 5.34v.005-14.326Z"/><path d="M532.924 65.268a9.207 9.207 0 0 0-8.18-8.735l-9.639-.015h-.012a7.692 7.692 0 0 0-.012 15.383h2.46v13.654c0 4.478-1.516 7.226-2.262 8a7.692 7.692 0 0 0 .646 15.356c9.691 0 17-10.04 17-23.355Z"/></g></svg>