<svg xmlns="http://www.w3.org/2000/svg" xmlns:xlink="http://www.w3.org/1999/xlink" width="650" zoomAndPan="magnify" viewBox="0 0 487.5 74.999997" height="100" preserveAspectRatio="xMidYMid meet" version="1.0"><defs><g/></defs><g fill="#000000" fill-opacity="1"><g transform="translate(41.067253, 53.233858)"><g><path d="M 30.328125 0 L 21.265625 0 L 15.484375 -12.578125 L 11.203125 -12.578125 L 11.203125 0 L 3.6875 0 L 3.6875 -32.71875 L 17.53125 -32.71875 C 19.632812 -32.71875 21.484375 -32.3125 23.078125 -31.5 C 24.671875 -30.695312 25.914062 -29.570312 26.8125 -28.125 C 27.707031 -26.6875 28.15625 -24.988281 28.15625 -23.03125 C 28.15625 -20.488281 27.671875 -18.492188 26.703125 -17.046875 C 25.734375 -15.609375 24.359375 -14.566406 22.578125 -13.921875 Z M 11.25 -18.578125 L 16.15625 -18.578125 C 17.4375 -18.578125 18.460938 -18.929688 19.234375 -19.640625 C 20.003906 -20.359375 20.390625 -21.363281 20.390625 -22.65625 C 20.390625 -23.832031 19.988281 -24.738281 19.1875 -25.375 C 18.394531 -26.019531 17.367188 -26.34375 16.109375 -26.34375 L 11.25 -26.34375 Z M 11.25 -18.578125 "/></g></g><g transform="translate(72.031494, 53.233858)"><g><path d="M 11.75 0 L 3.859375 0 L 3.859375 -32.71875 L 11.75 -32.71875 Z M 11.75 0 "/></g></g><g transform="translate(87.639485, 53.233858)"><g><path d="M 16.453125 0 L 3.6875 0 L 3.6875 -32.71875 L 16.359375 -32.71875 C 19.347656 -32.71875 22.003906 -32.050781 24.328125 -30.71875 C 26.648438 -29.394531 28.46875 -27.507812 29.78125 -25.0625 C 31.101562 -22.613281 31.765625 -19.710938 31.765625 -16.359375 C 31.765625 -12.972656 31.113281 -10.054688 29.8125 -7.609375 C 28.507812 -5.160156 26.707031 -3.28125 24.40625 -1.96875 C 22.113281 -0.65625 19.460938 0 16.453125 0 Z M 11.40625 -6.5 L 15.65625 -6.5 C 18.113281 -6.5 20.117188 -7.351562 21.671875 -9.0625 C 23.222656 -10.769531 24 -13.203125 24 -16.359375 C 24 -18.546875 23.632812 -20.375 22.90625 -21.84375 C 22.175781 -23.3125 21.175781 -24.40625 19.90625 -25.125 C 18.632812 -25.851562 17.1875 -26.21875 15.5625 -26.21875 L 11.40625 -26.21875 Z M 11.40625 -6.5 "/></g></g><g transform="translate(121.414842, 53.233858)"><g><path d="M 27.1875 0 L 3.6875 0 L 3.6875 -32.71875 L 26.34375 -32.71875 L 26.34375 -26.34375 L 11.328125 -26.34375 L 11.328125 -19.890625 L 24.203125 -19.890625 L 24.203125 -13.640625 L 11.328125 -13.640625 L 11.328125 -6.375 L 27.1875 -6.375 Z M 27.1875 0 "/></g></g></g><g fill="#000000" fill-opacity="1"><g transform="translate(150.323191, 53.233858)"><g/></g></g><g fill="#000000" fill-opacity="1"><g transform="translate(164.798342, 53.233858)"><g><path d="M 32.8125 -4.40625 L 28.5625 0.671875 C 27.613281 0.273438 26.609375 -0.207031 25.546875 -0.78125 C 24.484375 -1.351562 23.476562 -1.972656 22.53125 -2.640625 C 21.382812 -1.609375 20.066406 -0.765625 18.578125 -0.109375 C 17.097656 0.546875 15.453125 0.875 13.640625 0.875 C 9.742188 0.875 6.8125 -0.03125 4.84375 -1.84375 C 2.875 -3.664062 1.890625 -6.070312 1.890625 -9.0625 C 1.890625 -10.789062 2.421875 -12.414062 3.484375 -13.9375 C 4.546875 -15.46875 5.972656 -16.804688 7.765625 -17.953125 C 6.984375 -19.265625 6.335938 -20.550781 5.828125 -21.8125 C 5.328125 -23.070312 5.078125 -24.257812 5.078125 -25.375 C 5.078125 -26.863281 5.394531 -28.226562 6.03125 -29.46875 C 6.675781 -30.71875 7.660156 -31.71875 8.984375 -32.46875 C 10.316406 -33.226562 11.976562 -33.609375 13.96875 -33.609375 C 15.84375 -33.609375 17.441406 -33.265625 18.765625 -32.578125 C 20.097656 -31.890625 21.128906 -30.941406 21.859375 -29.734375 C 22.585938 -28.535156 22.953125 -27.171875 22.953125 -25.640625 C 22.953125 -23.703125 22.367188 -21.941406 21.203125 -20.359375 C 20.046875 -18.785156 18.390625 -17.425781 16.234375 -16.28125 C 16.960938 -15.46875 17.785156 -14.597656 18.703125 -13.671875 C 19.628906 -12.753906 20.625 -11.847656 21.6875 -10.953125 C 22.164062 -11.929688 22.550781 -12.984375 22.84375 -14.109375 C 23.132812 -15.242188 23.335938 -16.375 23.453125 -17.5 L 28.984375 -15.78125 C 28.796875 -14.289062 28.5 -12.851562 28.09375 -11.46875 C 27.6875 -10.082031 27.132812 -8.773438 26.4375 -7.546875 C 27.4375 -6.910156 28.488281 -6.3125 29.59375 -5.75 C 30.695312 -5.1875 31.769531 -4.738281 32.8125 -4.40625 Z M 13.09375 -20.640625 C 14.4375 -21.367188 15.382812 -22.109375 15.9375 -22.859375 C 16.5 -23.617188 16.78125 -24.472656 16.78125 -25.421875 C 16.78125 -26.234375 16.554688 -26.929688 16.109375 -27.515625 C 15.660156 -28.109375 15.003906 -28.40625 14.140625 -28.40625 C 13.296875 -28.40625 12.613281 -28.125 12.09375 -27.5625 C 11.582031 -27 11.328125 -26.269531 11.328125 -25.375 C 11.328125 -24.65625 11.488281 -23.894531 11.8125 -23.09375 C 12.132812 -22.300781 12.5625 -21.484375 13.09375 -20.640625 Z M 17.703125 -6.375 C 16.421875 -7.582031 15.191406 -8.800781 14.015625 -10.03125 C 12.835938 -11.257812 11.757812 -12.445312 10.78125 -13.59375 C 10 -13.0625 9.390625 -12.453125 8.953125 -11.765625 C 8.523438 -11.078125 8.3125 -10.328125 8.3125 -9.515625 C 8.3125 -8.265625 8.769531 -7.175781 9.6875 -6.25 C 10.613281 -5.320312 12.066406 -4.859375 14.046875 -4.859375 C 14.753906 -4.859375 15.40625 -5 16 -5.28125 C 16.601562 -5.5625 17.171875 -5.925781 17.703125 -6.375 Z M 17.703125 -6.375 "/></g></g></g><g fill="#000000" fill-opacity="1"><g transform="translate(196.517807, 53.233858)"><g/></g></g><g fill="#000000" fill-opacity="1"><g transform="translate(210.992954, 53.233858)"><g><path d="M 16.453125 0 L 3.6875 0 L 3.6875 -32.71875 L 16.359375 -32.71875 C 19.347656 -32.71875 22.003906 -32.050781 24.328125 -30.71875 C 26.648438 -29.394531 28.46875 -27.507812 29.78125 -25.0625 C 31.101562 -22.613281 31.765625 -19.710938 31.765625 -16.359375 C 31.765625 -12.972656 31.113281 -10.054688 29.8125 -7.609375 C 28.507812 -5.160156 26.707031 -3.28125 24.40625 -1.96875 C 22.113281 -0.65625 19.460938 0 16.453125 0 Z M 11.40625 -6.5 L 15.65625 -6.5 C 18.113281 -6.5 20.117188 -7.351562 21.671875 -9.0625 C 23.222656 -10.769531 24 -13.203125 24 -16.359375 C 24 -18.546875 23.632812 -20.375 22.90625 -21.84375 C 22.175781 -23.3125 21.175781 -24.40625 19.90625 -25.125 C 18.632812 -25.851562 17.1875 -26.21875 15.5625 -26.21875 L 11.40625 -26.21875 Z M 11.40625 -6.5 "/></g></g></g><g fill="#000000" fill-opacity="1"><g transform="translate(244.768324, 53.233858)"><g><path d="M 11.75 0 L 3.859375 0 L 3.859375 -32.71875 L 11.75 -32.71875 Z M 11.75 0 "/></g></g></g><g fill="#000000" fill-opacity="1"><g transform="translate(260.376293, 53.233858)"><g><path d="M 15.390625 -13.046875 L 10.65625 -14.71875 C 8.164062 -15.613281 6.285156 -16.757812 5.015625 -18.15625 C 3.742188 -19.5625 3.109375 -21.476562 3.109375 -23.90625 C 3.109375 -25.675781 3.566406 -27.296875 4.484375 -28.765625 C 5.410156 -30.234375 6.738281 -31.40625 8.46875 -32.28125 C 10.207031 -33.164062 12.289062 -33.609375 14.71875 -33.609375 C 20.675781 -33.609375 24.59375 -31.441406 26.46875 -27.109375 L 20.9375 -23.109375 C 20.425781 -24.453125 19.640625 -25.488281 18.578125 -26.21875 C 17.515625 -26.945312 16.328125 -27.3125 15.015625 -27.3125 C 13.390625 -27.3125 12.226562 -27.023438 11.53125 -26.453125 C 10.832031 -25.878906 10.484375 -25.171875 10.484375 -24.328125 C 10.484375 -23.046875 11.660156 -22.015625 14.015625 -21.234375 L 19.21875 -19.515625 C 21.707031 -18.703125 23.6875 -17.507812 25.15625 -15.9375 C 26.625 -14.375 27.359375 -12.320312 27.359375 -9.78125 C 27.359375 -6.394531 26.269531 -3.769531 24.09375 -1.90625 C 21.925781 -0.0507812 18.84375 0.875 14.84375 0.875 C 11.46875 0.875 8.660156 0.113281 6.421875 -1.40625 C 4.179688 -2.925781 2.597656 -5.03125 1.671875 -7.71875 L 7.421875 -11.625 C 8.148438 -9.75 9.195312 -8.285156 10.5625 -7.234375 C 11.9375 -6.179688 13.351562 -5.65625 14.8125 -5.65625 C 16.4375 -5.65625 17.625 -5.945312 18.375 -6.53125 C 19.132812 -7.125 19.515625 -7.925781 19.515625 -8.9375 C 19.515625 -9.832031 19.203125 -10.597656 18.578125 -11.234375 C 17.960938 -11.878906 16.898438 -12.484375 15.390625 -13.046875 Z M 15.390625 -13.046875 "/></g></g></g><g fill="#000000" fill-opacity="1"><g transform="translate(290.417486, 53.233858)"><g><path d="M 25.421875 -10.359375 L 30.03125 -5.703125 C 29 -3.691406 27.398438 -2.09375 25.234375 -0.90625 C 23.066406 0.28125 20.582031 0.875 17.78125 0.875 C 14.65625 0.875 11.910156 0.171875 9.546875 -1.234375 C 7.179688 -2.648438 5.332031 -4.65625 4 -7.25 C 2.675781 -9.851562 2.015625 -12.921875 2.015625 -16.453125 C 2.015625 -19.910156 2.675781 -22.925781 4 -25.5 C 5.332031 -28.070312 7.179688 -30.066406 9.546875 -31.484375 C 11.910156 -32.898438 14.644531 -33.609375 17.75 -33.609375 C 19.726562 -33.609375 21.53125 -33.328125 23.15625 -32.765625 C 24.78125 -32.203125 26.164062 -31.429688 27.3125 -30.453125 C 28.457031 -29.472656 29.296875 -28.359375 29.828125 -27.109375 L 25.046875 -22.703125 C 24.710938 -23.453125 24.203125 -24.140625 23.515625 -24.765625 C 22.828125 -25.398438 22.035156 -25.898438 21.140625 -26.265625 C 20.242188 -26.628906 19.335938 -26.8125 18.421875 -26.8125 C 16.910156 -26.8125 15.535156 -26.40625 14.296875 -25.59375 C 13.066406 -24.78125 12.085938 -23.601562 11.359375 -22.0625 C 10.640625 -20.53125 10.28125 -18.660156 10.28125 -16.453125 C 10.28125 -14.148438 10.640625 -12.21875 11.359375 -10.65625 C 12.085938 -9.09375 13.066406 -7.914062 14.296875 -7.125 C 15.535156 -6.34375 16.921875 -5.953125 18.453125 -5.953125 C 19.378906 -5.953125 20.296875 -6.140625 21.203125 -6.515625 C 22.117188 -6.898438 22.953125 -7.421875 23.703125 -8.078125 C 24.460938 -8.734375 25.035156 -9.492188 25.421875 -10.359375 Z M 25.421875 -10.359375 "/></g></g><g transform="translate(321.33977, 53.233858)"><g><path d="M 17.109375 0.875 C 14.085938 0.875 11.445312 0.171875 9.1875 -1.234375 C 6.925781 -2.648438 5.164062 -4.648438 3.90625 -7.234375 C 2.644531 -9.828125 2.015625 -12.898438 2.015625 -16.453125 C 2.015625 -19.910156 2.644531 -22.925781 3.90625 -25.5 C 5.164062 -28.070312 6.925781 -30.066406 9.1875 -31.484375 C 11.445312 -32.898438 14.085938 -33.609375 17.109375 -33.609375 C 20.128906 -33.609375 22.765625 -32.894531 25.015625 -31.46875 C 27.273438 -30.039062 29.019531 -28.039062 30.25 -25.46875 C 31.476562 -22.894531 32.09375 -19.890625 32.09375 -16.453125 C 32.09375 -12.898438 31.476562 -9.828125 30.25 -7.234375 C 29.019531 -4.648438 27.273438 -2.648438 25.015625 -1.234375 C 22.765625 0.171875 20.128906 0.875 17.109375 0.875 Z M 17.109375 -5.703125 C 18.429688 -5.703125 19.628906 -6.117188 20.703125 -6.953125 C 21.773438 -7.796875 22.632812 -9.019531 23.28125 -10.625 C 23.925781 -12.238281 24.25 -14.179688 24.25 -16.453125 C 24.25 -19.859375 23.578125 -22.46875 22.234375 -24.28125 C 20.890625 -26.101562 19.179688 -27.015625 17.109375 -27.015625 C 15.828125 -27.015625 14.632812 -26.609375 13.53125 -25.796875 C 12.425781 -24.984375 11.535156 -23.796875 10.859375 -22.234375 C 10.191406 -20.671875 9.859375 -18.742188 9.859375 -16.453125 C 9.859375 -14.179688 10.171875 -12.238281 10.796875 -10.625 C 11.429688 -9.019531 12.300781 -7.796875 13.40625 -6.953125 C 14.507812 -6.117188 15.742188 -5.703125 17.109375 -5.703125 Z M 17.109375 -5.703125 "/></g></g></g><g fill="#000000" fill-opacity="1"><g transform="translate(355.199032, 53.233858)"><g><path d="M 20.3125 0 L 10.40625 0 L 0.375 -32.71875 L 8.71875 -32.71875 L 14.09375 -14.046875 C 14.320312 -13.210938 14.53125 -12.375 14.71875 -11.53125 C 14.914062 -10.695312 15.082031 -9.960938 15.21875 -9.328125 C 15.363281 -8.703125 15.453125 -8.265625 15.484375 -8.015625 L 15.65625 -8.015625 C 15.707031 -8.265625 15.796875 -8.710938 15.921875 -9.359375 C 16.046875 -10.003906 16.195312 -10.742188 16.375 -11.578125 C 16.5625 -12.421875 16.765625 -13.242188 16.984375 -14.046875 L 22.28125 -32.71875 L 30.328125 -32.71875 Z M 20.3125 0 "/></g></g></g><g fill="#000000" fill-opacity="1"><g transform="translate(386.037405, 53.233858)"><g><path d="M 27.1875 0 L 3.6875 0 L 3.6875 -32.71875 L 26.34375 -32.71875 L 26.34375 -26.34375 L 11.328125 -26.34375 L 11.328125 -19.890625 L 24.203125 -19.890625 L 24.203125 -13.640625 L 11.328125 -13.640625 L 11.328125 -6.375 L 27.1875 -6.375 Z M 27.1875 0 "/></g></g></g><g fill="#000000" fill-opacity="1"><g transform="translate(414.945766, 53.233858)"><g><path d="M 30.328125 0 L 21.265625 0 L 15.484375 -12.578125 L 11.203125 -12.578125 L 11.203125 0 L 3.6875 0 L 3.6875 -32.71875 L 17.53125 -32.71875 C 19.632812 -32.71875 21.484375 -32.3125 23.078125 -31.5 C 24.671875 -30.695312 25.914062 -29.570312 26.8125 -28.125 C 27.707031 -26.6875 28.15625 -24.988281 28.15625 -23.03125 C 28.15625 -20.488281 27.671875 -18.492188 26.703125 -17.046875 C 25.734375 -15.609375 24.359375 -14.566406 22.578125 -13.921875 Z M 11.25 -18.578125 L 16.15625 -18.578125 C 17.4375 -18.578125 18.460938 -18.929688 19.234375 -19.640625 C 20.003906 -20.359375 20.390625 -21.363281 20.390625 -22.65625 C 20.390625 -23.832031 19.988281 -24.738281 19.1875 -25.375 C 18.394531 -26.019531 17.367188 -26.34375 16.109375 -26.34375 L 11.25 -26.34375 Z M 11.25 -18.578125 "/></g></g></g></svg>