<svg xmlns="http://www.w3.org/2000/svg" xmlns:xlink="http://www.w3.org/1999/xlink" width="1000" zoomAndPan="magnify" viewBox="0 0 750 112.499997" height="150" preserveAspectRatio="xMidYMid meet" version="1.0"><defs><g/><clipPath id="3ef14d7317"><path d="M 1.660156 26 L 740 26 L 740 70 L 1.660156 70 Z M 1.660156 26 " clip-rule="nonzero"/></clipPath><clipPath id="46ad9700c4"><rect x="0" width="739" y="0" height="44"/></clipPath><clipPath id="3e49cb4bab"><rect x="0" width="736" y="0" height="50"/></clipPath></defs><g clip-path="url(#3ef14d7317)"><g transform="matrix(1, 0, 0, 1, 1, 26)"><g clip-path="url(#46ad9700c4)"><g fill="#e0e2e4" fill-opacity="1"><g transform="translate(0.659303, 37.978327)"><g><path d="M 31 0 L 21.734375 0 L 15.828125 -12.859375 L 11.453125 -12.859375 L 11.453125 0 L 3.765625 0 L 3.765625 -33.4375 L 17.921875 -33.4375 C 20.066406 -33.4375 21.953125 -33.019531 23.578125 -32.1875 C 25.210938 -31.363281 26.484375 -30.21875 27.390625 -28.75 C 28.304688 -27.28125 28.765625 -25.539062 28.765625 -23.53125 C 28.765625 -20.9375 28.269531 -18.898438 27.28125 -17.421875 C 26.300781 -15.953125 24.894531 -14.890625 23.0625 -14.234375 Z M 11.484375 -19 L 16.5 -19 C 17.820312 -19 18.875 -19.363281 19.65625 -20.09375 C 20.445312 -20.820312 20.84375 -21.84375 20.84375 -23.15625 C 20.84375 -24.351562 20.429688 -25.28125 19.609375 -25.9375 C 18.796875 -26.59375 17.75 -26.921875 16.46875 -26.921875 L 11.484375 -26.921875 Z M 11.484375 -19 "/></g></g></g><g fill="#e0e2e4" fill-opacity="1"><g transform="translate(32.30499, 37.978327)"><g><path d="M 30.953125 0 L 22.9375 0 L 22.9375 -13.984375 L 11.703125 -13.984375 L 11.703125 0 L 3.765625 0 L 3.765625 -33.4375 L 11.703125 -33.4375 L 11.703125 -20.53125 L 22.9375 -20.53125 L 22.9375 -33.4375 L 30.953125 -33.4375 Z M 30.953125 0 "/></g></g></g><g fill="#e0e2e4" fill-opacity="1"><g transform="translate(67.038057, 37.978327)"><g><path d="M 17.875 0 L 9.953125 0 L 9.953125 -11.234375 L -0.640625 -33.4375 L 7.453125 -33.4375 L 14.015625 -18.65625 L 20.625 -33.4375 L 28.390625 -33.4375 L 17.875 -11.1875 Z M 17.875 0 "/></g></g></g><g fill="#e0e2e4" fill-opacity="1"><g transform="translate(94.82451, 37.978327)"><g><path d="M 17.53125 0 L 9.5625 0 L 9.5625 -26.921875 L 0.6875 -26.921875 L 0.6875 -33.4375 L 26.453125 -33.4375 L 26.453125 -26.921875 L 17.53125 -26.921875 Z M 17.53125 0 "/></g></g></g><g fill="#e0e2e4" fill-opacity="1"><g transform="translate(121.967758, 37.978327)"><g><path d="M 30.953125 0 L 22.9375 0 L 22.9375 -13.984375 L 11.703125 -13.984375 L 11.703125 0 L 3.765625 0 L 3.765625 -33.4375 L 11.703125 -33.4375 L 11.703125 -20.53125 L 22.9375 -20.53125 L 22.9375 -33.4375 L 30.953125 -33.4375 Z M 30.953125 0 "/></g></g></g><g fill="#e0e2e4" fill-opacity="1"><g transform="translate(156.700826, 37.978327)"><g><path d="M 36.953125 0 L 29.796875 0 L 29.796875 -13.296875 C 29.796875 -13.890625 29.8125 -14.679688 29.84375 -15.671875 C 29.875 -16.660156 29.914062 -17.71875 29.96875 -18.84375 C 30.03125 -19.96875 30.082031 -21.054688 30.125 -22.109375 C 30.164062 -23.171875 30.207031 -24.085938 30.25 -24.859375 C 30.289062 -25.640625 30.3125 -26.144531 30.3125 -26.375 L 30.0625 -26.375 C 30.0625 -26.113281 30.007812 -25.628906 29.90625 -24.921875 C 29.800781 -24.222656 29.675781 -23.429688 29.53125 -22.546875 C 29.394531 -21.660156 29.253906 -20.789062 29.109375 -19.9375 C 28.960938 -19.082031 28.820312 -18.382812 28.6875 -17.84375 L 24.1875 0 L 16.296875 0 L 11.484375 -17.796875 C 11.367188 -18.191406 11.238281 -18.773438 11.09375 -19.546875 C 10.957031 -20.316406 10.816406 -21.148438 10.671875 -22.046875 C 10.535156 -22.953125 10.410156 -23.789062 10.296875 -24.5625 C 10.179688 -25.332031 10.09375 -25.9375 10.03125 -26.375 L 9.78125 -26.375 C 9.800781 -26.113281 9.832031 -25.601562 9.875 -24.84375 C 9.925781 -24.082031 9.972656 -23.1875 10.015625 -22.15625 C 10.054688 -21.132812 10.101562 -20.054688 10.15625 -18.921875 C 10.21875 -17.796875 10.257812 -16.722656 10.28125 -15.703125 C 10.3125 -14.691406 10.328125 -13.84375 10.328125 -13.15625 L 10.328125 0 L 3.765625 0 L 3.765625 -33.4375 L 14.625 -33.4375 L 19.515625 -13.765625 C 19.648438 -13.128906 19.765625 -12.382812 19.859375 -11.53125 C 19.960938 -10.675781 20.039062 -9.921875 20.09375 -9.265625 C 20.15625 -8.609375 20.203125 -8.234375 20.234375 -8.140625 L 20.359375 -8.140625 C 20.390625 -8.234375 20.429688 -8.613281 20.484375 -9.28125 C 20.546875 -9.957031 20.617188 -10.710938 20.703125 -11.546875 C 20.796875 -12.390625 20.898438 -13.113281 21.015625 -13.71875 L 25.640625 -33.4375 L 36.953125 -33.4375 Z M 36.953125 0 "/></g></g></g><g fill="#e0e2e4" fill-opacity="1"><g transform="translate(197.437139, 37.978327)"><g/></g></g><g fill="#e0e2e4" fill-opacity="1"><g transform="translate(212.230856, 37.978327)"><g><path d="M 26.75 -11.921875 C 26.75 -9.398438 26.25 -7.203125 25.25 -5.328125 C 24.25 -3.460938 22.8125 -2.015625 20.9375 -0.984375 C 19.070312 0.046875 16.835938 0.5625 14.234375 0.5625 C 11.628906 0.5625 9.382812 0.046875 7.5 -0.984375 C 5.613281 -2.015625 4.160156 -3.460938 3.140625 -5.328125 C 2.128906 -7.203125 1.625 -9.398438 1.625 -11.921875 C 1.625 -14.460938 2.128906 -16.671875 3.140625 -18.546875 C 4.160156 -20.421875 5.613281 -21.867188 7.5 -22.890625 C 9.382812 -23.921875 11.628906 -24.4375 14.234375 -24.4375 C 16.835938 -24.4375 19.070312 -23.921875 20.9375 -22.890625 C 22.8125 -21.867188 24.25 -20.421875 25.25 -18.546875 C 26.25 -16.671875 26.75 -14.460938 26.75 -11.921875 Z M 14.234375 -5.359375 C 15.742188 -5.359375 16.9375 -5.941406 17.8125 -7.109375 C 18.6875 -8.285156 19.125 -9.890625 19.125 -11.921875 C 19.125 -13.953125 18.6875 -15.546875 17.8125 -16.703125 C 16.9375 -17.859375 15.742188 -18.4375 14.234375 -18.4375 C 12.722656 -18.4375 11.515625 -17.859375 10.609375 -16.703125 C 9.710938 -15.546875 9.265625 -13.953125 9.265625 -11.921875 C 9.265625 -9.921875 9.710938 -8.328125 10.609375 -7.140625 C 11.515625 -5.953125 12.722656 -5.359375 14.234375 -5.359375 Z M 14.234375 -5.359375 "/></g></g></g><g fill="#e0e2e4" fill-opacity="1"><g transform="translate(240.617647, 37.978327)"><g><path d="M 11.578125 0 L 4.078125 0 L 4.078125 -18.09375 L 0.640625 -18.09375 L 0.640625 -23.875 L 4.078125 -23.875 L 4.078125 -25.859375 C 4.078125 -27.828125 4.394531 -29.429688 5.03125 -30.671875 C 5.675781 -31.921875 6.828125 -32.84375 8.484375 -33.4375 C 10.140625 -34.039062 12.484375 -34.34375 15.515625 -34.34375 L 16.765625 -28.21875 C 16.566406 -28.21875 16.363281 -28.222656 16.15625 -28.234375 C 15.957031 -28.242188 15.757812 -28.25 15.5625 -28.25 C 14.332031 -28.25 13.398438 -28.15625 12.765625 -27.96875 C 12.140625 -27.789062 11.726562 -27.515625 11.53125 -27.140625 C 11.332031 -26.765625 11.234375 -26.28125 11.234375 -25.6875 L 11.234375 -23.875 L 15.90625 -23.875 L 15.90625 -18.09375 L 11.578125 -18.09375 Z M 11.578125 0 "/></g></g></g><g fill="#e0e2e4" fill-opacity="1"><g transform="translate(257.083677, 37.978327)"><g/></g></g><g fill="#e0e2e4" fill-opacity="1"><g transform="translate(271.877394, 37.978327)"><g><path d="M 30.828125 0 L 21.046875 0 L 13.421875 -16 C 12.992188 -16.96875 12.570312 -18.035156 12.15625 -19.203125 C 11.738281 -20.378906 11.363281 -21.507812 11.03125 -22.59375 C 10.707031 -23.675781 10.460938 -24.5625 10.296875 -25.25 L 10.15625 -25.25 C 10.363281 -24.132812 10.546875 -22.785156 10.703125 -21.203125 C 10.859375 -19.617188 10.976562 -17.9375 11.0625 -16.15625 C 11.144531 -14.382812 11.1875 -12.6875 11.1875 -11.0625 L 11.1875 0 L 3.765625 0 L 3.765625 -33.4375 L 13.203125 -33.4375 L 20.875 -17.625 C 21.445312 -16.445312 21.984375 -15.226562 22.484375 -13.96875 C 22.984375 -12.71875 23.394531 -11.59375 23.71875 -10.59375 C 24.050781 -9.59375 24.25 -8.890625 24.3125 -8.484375 L 24.53125 -8.484375 C 24.269531 -9.890625 24.0625 -11.40625 23.90625 -13.03125 C 23.75 -14.664062 23.625 -16.253906 23.53125 -17.796875 C 23.445312 -19.335938 23.40625 -20.664062 23.40625 -21.78125 L 23.40625 -33.4375 L 30.828125 -33.4375 Z M 30.828125 0 "/></g></g></g><g fill="#e0e2e4" fill-opacity="1"><g transform="translate(306.481838, 37.978327)"><g><path d="M 32.234375 0 L 24.3125 0 L 21.734375 -7.84375 L 10.421875 -7.84375 L 7.765625 0 L -0.046875 0 L 11.140625 -33.4375 L 21.09375 -33.4375 Z M 12.515625 -14.40625 L 19.59375 -14.40625 C 19.445312 -14.863281 19.21875 -15.5625 18.90625 -16.5 C 18.59375 -17.445312 18.25 -18.5 17.875 -19.65625 C 17.507812 -20.8125 17.164062 -21.945312 16.84375 -23.0625 C 16.53125 -24.175781 16.300781 -25.132812 16.15625 -25.9375 L 15.90625 -25.9375 C 15.789062 -25.132812 15.578125 -24.175781 15.265625 -23.0625 C 14.953125 -21.945312 14.609375 -20.8125 14.234375 -19.65625 C 13.859375 -18.5 13.515625 -17.445312 13.203125 -16.5 C 12.890625 -15.5625 12.660156 -14.863281 12.515625 -14.40625 Z M 12.515625 -14.40625 "/></g></g></g><g fill="#e0e2e4" fill-opacity="1"><g transform="translate(338.384771, 37.978327)"><g><path d="M 17.53125 0 L 9.5625 0 L 9.5625 -26.921875 L 0.6875 -26.921875 L 0.6875 -33.4375 L 26.453125 -33.4375 L 26.453125 -26.921875 L 17.53125 -26.921875 Z M 17.53125 0 "/></g></g></g><g fill="#e0e2e4" fill-opacity="1"><g transform="translate(365.528046, 37.978327)"><g><path d="M 23.234375 -12.265625 L 23.234375 -33.4375 L 30.90625 -33.4375 L 30.90625 -11.578125 C 30.90625 -9.085938 30.316406 -6.90625 29.140625 -5.03125 C 27.972656 -3.164062 26.375 -1.707031 24.34375 -0.65625 C 22.320312 0.382812 19.992188 0.90625 17.359375 0.90625 C 14.671875 0.90625 12.304688 0.378906 10.265625 -0.671875 C 8.222656 -1.734375 6.628906 -3.203125 5.484375 -5.078125 C 4.335938 -6.953125 3.765625 -9.117188 3.765625 -11.578125 L 3.765625 -33.4375 L 11.703125 -33.4375 L 11.703125 -12.265625 C 11.703125 -10.003906 12.21875 -8.351562 13.25 -7.3125 C 14.28125 -6.269531 15.648438 -5.75 17.359375 -5.75 C 19.046875 -5.75 20.445312 -6.269531 21.5625 -7.3125 C 22.675781 -8.351562 23.234375 -10.003906 23.234375 -12.265625 Z M 23.234375 -12.265625 "/></g></g></g><g fill="#e0e2e4" fill-opacity="1"><g transform="translate(400.218204, 37.978327)"><g><path d="M 31 0 L 21.734375 0 L 15.828125 -12.859375 L 11.453125 -12.859375 L 11.453125 0 L 3.765625 0 L 3.765625 -33.4375 L 17.921875 -33.4375 C 20.066406 -33.4375 21.953125 -33.019531 23.578125 -32.1875 C 25.210938 -31.363281 26.484375 -30.21875 27.390625 -28.75 C 28.304688 -27.28125 28.765625 -25.539062 28.765625 -23.53125 C 28.765625 -20.9375 28.269531 -18.898438 27.28125 -17.421875 C 26.300781 -15.953125 24.894531 -14.890625 23.0625 -14.234375 Z M 11.484375 -19 L 16.5 -19 C 17.820312 -19 18.875 -19.363281 19.65625 -20.09375 C 20.445312 -20.820312 20.84375 -21.84375 20.84375 -23.15625 C 20.84375 -24.351562 20.429688 -25.28125 19.609375 -25.9375 C 18.796875 -26.59375 17.75 -26.921875 16.46875 -26.921875 L 11.484375 -26.921875 Z M 11.484375 -19 "/></g></g></g><g fill="#e0e2e4" fill-opacity="1"><g transform="translate(431.86389, 37.978327)"><g><path d="M 27.78125 0 L 3.765625 0 L 3.765625 -33.4375 L 26.921875 -33.4375 L 26.921875 -26.921875 L 11.578125 -26.921875 L 11.578125 -20.328125 L 24.734375 -20.328125 L 24.734375 -13.9375 L 11.578125 -13.9375 L 11.578125 -6.515625 L 27.78125 -6.515625 Z M 27.78125 0 "/></g></g></g><g fill="#e0e2e4" fill-opacity="1"><g transform="translate(461.408449, 37.978327)"><g/></g></g><g fill="#e0e2e4" fill-opacity="1"><g transform="translate(476.202166, 37.978327)"><g><path d="M 33.53125 -4.5 L 29.203125 0.6875 C 28.222656 0.28125 27.191406 -0.210938 26.109375 -0.796875 C 25.023438 -1.378906 24 -2.015625 23.03125 -2.703125 C 21.851562 -1.640625 20.503906 -0.769531 18.984375 -0.09375 C 17.472656 0.570312 15.789062 0.90625 13.9375 0.90625 C 9.957031 0.90625 6.957031 -0.0195312 4.9375 -1.875 C 2.925781 -3.738281 1.921875 -6.203125 1.921875 -9.265625 C 1.921875 -11.035156 2.460938 -12.695312 3.546875 -14.25 C 4.640625 -15.8125 6.101562 -17.175781 7.9375 -18.34375 C 7.132812 -19.6875 6.472656 -21 5.953125 -22.28125 C 5.441406 -23.570312 5.1875 -24.789062 5.1875 -25.9375 C 5.1875 -27.457031 5.515625 -28.851562 6.171875 -30.125 C 6.828125 -31.394531 7.832031 -32.414062 9.1875 -33.1875 C 10.550781 -33.957031 12.25 -34.34375 14.28125 -34.34375 C 16.195312 -34.34375 17.832031 -33.988281 19.1875 -33.28125 C 20.539062 -32.582031 21.585938 -31.617188 22.328125 -30.390625 C 23.078125 -29.171875 23.453125 -27.773438 23.453125 -26.203125 C 23.453125 -24.222656 22.859375 -22.425781 21.671875 -20.8125 C 20.484375 -19.195312 18.789062 -17.804688 16.59375 -16.640625 C 17.332031 -15.804688 18.171875 -14.914062 19.109375 -13.96875 C 20.054688 -13.03125 21.078125 -12.101562 22.171875 -11.1875 C 22.648438 -12.1875 23.039062 -13.265625 23.34375 -14.421875 C 23.644531 -15.578125 23.851562 -16.726562 23.96875 -17.875 L 29.625 -16.125 C 29.425781 -14.601562 29.117188 -13.132812 28.703125 -11.71875 C 28.285156 -10.3125 27.722656 -8.976562 27.015625 -7.71875 C 28.046875 -7.0625 29.125 -6.445312 30.25 -5.875 C 31.375 -5.300781 32.46875 -4.84375 33.53125 -4.5 Z M 13.375 -21.09375 C 14.75 -21.832031 15.722656 -22.585938 16.296875 -23.359375 C 16.867188 -24.140625 17.15625 -25.015625 17.15625 -25.984375 C 17.15625 -26.804688 16.925781 -27.519531 16.46875 -28.125 C 16.007812 -28.726562 15.335938 -29.03125 14.453125 -29.03125 C 13.585938 -29.03125 12.890625 -28.742188 12.359375 -28.171875 C 11.835938 -27.597656 11.578125 -26.851562 11.578125 -25.9375 C 11.578125 -25.195312 11.738281 -24.414062 12.0625 -23.59375 C 12.394531 -22.78125 12.832031 -21.945312 13.375 -21.09375 Z M 18.09375 -6.515625 C 16.78125 -7.742188 15.519531 -8.988281 14.3125 -10.25 C 13.113281 -11.507812 12.015625 -12.722656 11.015625 -13.890625 C 10.210938 -13.347656 9.585938 -12.722656 9.140625 -12.015625 C 8.703125 -11.316406 8.484375 -10.554688 8.484375 -9.734375 C 8.484375 -8.441406 8.953125 -7.320312 9.890625 -6.375 C 10.835938 -5.4375 12.328125 -4.96875 14.359375 -4.96875 C 15.078125 -4.96875 15.742188 -5.109375 16.359375 -5.390625 C 16.972656 -5.679688 17.550781 -6.054688 18.09375 -6.515625 Z M 18.09375 -6.515625 "/></g></g></g><g fill="#e0e2e4" fill-opacity="1"><g transform="translate(508.619698, 37.978327)"><g/></g></g><g fill="#e0e2e4" fill-opacity="1"><g transform="translate(523.413415, 37.978327)"><g><path d="M 25.984375 -10.59375 L 30.703125 -5.828125 C 29.640625 -3.773438 28 -2.140625 25.78125 -0.921875 C 23.570312 0.296875 21.035156 0.90625 18.171875 0.90625 C 14.972656 0.90625 12.164062 0.179688 9.75 -1.265625 C 7.332031 -2.710938 5.445312 -4.765625 4.09375 -7.421875 C 2.738281 -10.078125 2.0625 -13.207031 2.0625 -16.8125 C 2.0625 -20.351562 2.738281 -23.4375 4.09375 -26.0625 C 5.445312 -28.695312 7.332031 -30.734375 9.75 -32.171875 C 12.164062 -33.617188 14.960938 -34.34375 18.140625 -34.34375 C 20.171875 -34.34375 22.015625 -34.054688 23.671875 -33.484375 C 25.328125 -32.910156 26.738281 -32.125 27.90625 -31.125 C 29.082031 -30.125 29.941406 -28.984375 30.484375 -27.703125 L 25.59375 -23.203125 C 25.25 -23.972656 24.726562 -24.675781 24.03125 -25.3125 C 23.332031 -25.957031 22.523438 -26.460938 21.609375 -26.828125 C 20.691406 -27.203125 19.765625 -27.390625 18.828125 -27.390625 C 17.273438 -27.390625 15.867188 -26.972656 14.609375 -26.140625 C 13.359375 -25.316406 12.359375 -24.117188 11.609375 -22.546875 C 10.867188 -20.972656 10.5 -19.0625 10.5 -16.8125 C 10.5 -14.46875 10.867188 -12.492188 11.609375 -10.890625 C 12.359375 -9.285156 13.359375 -8.082031 14.609375 -7.28125 C 15.867188 -6.488281 17.285156 -6.09375 18.859375 -6.09375 C 19.804688 -6.09375 20.742188 -6.285156 21.671875 -6.671875 C 22.597656 -7.054688 23.445312 -7.582031 24.21875 -8.25 C 24.988281 -8.925781 25.578125 -9.707031 25.984375 -10.59375 Z M 25.984375 -10.59375 "/></g></g></g><g fill="#e0e2e4" fill-opacity="1"><g transform="translate(555.016227, 37.978327)"><g><path d="M 23.234375 -12.265625 L 23.234375 -33.4375 L 30.90625 -33.4375 L 30.90625 -11.578125 C 30.90625 -9.085938 30.316406 -6.90625 29.140625 -5.03125 C 27.972656 -3.164062 26.375 -1.707031 24.34375 -0.65625 C 22.320312 0.382812 19.992188 0.90625 17.359375 0.90625 C 14.671875 0.90625 12.304688 0.378906 10.265625 -0.671875 C 8.222656 -1.734375 6.628906 -3.203125 5.484375 -5.078125 C 4.335938 -6.953125 3.765625 -9.117188 3.765625 -11.578125 L 3.765625 -33.4375 L 11.703125 -33.4375 L 11.703125 -12.265625 C 11.703125 -10.003906 12.21875 -8.351562 13.25 -7.3125 C 14.28125 -6.269531 15.648438 -5.75 17.359375 -5.75 C 19.046875 -5.75 20.445312 -6.269531 21.5625 -7.3125 C 22.675781 -8.351562 23.234375 -10.003906 23.234375 -12.265625 Z M 23.234375 -12.265625 "/></g></g></g><g fill="#e0e2e4" fill-opacity="1"><g transform="translate(589.70642, 37.978327)"><g><path d="M 25.890625 0 L 3.765625 0 L 3.765625 -33.4375 L 11.703125 -33.4375 L 11.703125 -6.984375 L 25.890625 -6.984375 Z M 25.890625 0 "/></g></g></g><g fill="#e0e2e4" fill-opacity="1"><g transform="translate(615.60609, 37.978327)"><g><path d="M 17.53125 0 L 9.5625 0 L 9.5625 -26.921875 L 0.6875 -26.921875 L 0.6875 -33.4375 L 26.453125 -33.4375 L 26.453125 -26.921875 L 17.53125 -26.921875 Z M 17.53125 0 "/></g></g></g><g fill="#e0e2e4" fill-opacity="1"><g transform="translate(642.749294, 37.978327)"><g><path d="M 23.234375 -12.265625 L 23.234375 -33.4375 L 30.90625 -33.4375 L 30.90625 -11.578125 C 30.90625 -9.085938 30.316406 -6.90625 29.140625 -5.03125 C 27.972656 -3.164062 26.375 -1.707031 24.34375 -0.65625 C 22.320312 0.382812 19.992188 0.90625 17.359375 0.90625 C 14.671875 0.90625 12.304688 0.378906 10.265625 -0.671875 C 8.222656 -1.734375 6.628906 -3.203125 5.484375 -5.078125 C 4.335938 -6.953125 3.765625 -9.117188 3.765625 -11.578125 L 3.765625 -33.4375 L 11.703125 -33.4375 L 11.703125 -12.265625 C 11.703125 -10.003906 12.21875 -8.351562 13.25 -7.3125 C 14.28125 -6.269531 15.648438 -5.75 17.359375 -5.75 C 19.046875 -5.75 20.445312 -6.269531 21.5625 -7.3125 C 22.675781 -8.351562 23.234375 -10.003906 23.234375 -12.265625 Z M 23.234375 -12.265625 "/></g></g></g><g fill="#e0e2e4" fill-opacity="1"><g transform="translate(677.439522, 37.978327)"><g><path d="M 31 0 L 21.734375 0 L 15.828125 -12.859375 L 11.453125 -12.859375 L 11.453125 0 L 3.765625 0 L 3.765625 -33.4375 L 17.921875 -33.4375 C 20.066406 -33.4375 21.953125 -33.019531 23.578125 -32.1875 C 25.210938 -31.363281 26.484375 -30.21875 27.390625 -28.75 C 28.304688 -27.28125 28.765625 -25.539062 28.765625 -23.53125 C 28.765625 -20.9375 28.269531 -18.898438 27.28125 -17.421875 C 26.300781 -15.953125 24.894531 -14.890625 23.0625 -14.234375 Z M 11.484375 -19 L 16.5 -19 C 17.820312 -19 18.875 -19.363281 19.65625 -20.09375 C 20.445312 -20.820312 20.84375 -21.84375 20.84375 -23.15625 C 20.84375 -24.351562 20.429688 -25.28125 19.609375 -25.9375 C 18.796875 -26.59375 17.75 -26.921875 16.46875 -26.921875 L 11.484375 -26.921875 Z M 11.484375 -19 "/></g></g></g><g fill="#e0e2e4" fill-opacity="1"><g transform="translate(709.085209, 37.978327)"><g><path d="M 27.78125 0 L 3.765625 0 L 3.765625 -33.4375 L 26.921875 -33.4375 L 26.921875 -26.921875 L 11.578125 -26.921875 L 11.578125 -20.328125 L 24.734375 -20.328125 L 24.734375 -13.9375 L 11.578125 -13.9375 L 11.578125 -6.515625 L 27.78125 -6.515625 Z M 27.78125 0 "/></g></g></g></g></g></g><g transform="matrix(1, 0, 0, 1, 7, 41)"><g clip-path="url(#3e49cb4bab)"><g fill="#000000" fill-opacity="1"><g transform="translate(0.420955, 43.463618)"><g><path d="M 31.078125 -10.4375 L 32.25 -10 L 32.25 -7.015625 C 32.25 -4.753906 32.394531 -3.28125 32.6875 -2.59375 C 32.882812 -2.101562 33.3125 -1.859375 33.96875 -1.859375 C 33.90625 -0.453125 33.285156 0.410156 32.109375 0.734375 C 31.648438 0.867188 30.765625 0.96875 29.453125 1.03125 C 28.148438 1.09375 26.4375 1.125 24.3125 1.125 C 19.375 1.125 16.582031 0.863281 15.9375 0.34375 C 15.3125 -0.144531 15 -1.046875 15 -2.359375 L 15 -25.828125 C 18.070312 -25.734375 19.609375 -25.328125 19.609375 -24.609375 C 19.609375 -24.210938 18.96875 -23.816406 17.6875 -23.421875 L 17.6875 -3.09375 C 17.6875 -2.175781 17.914062 -1.648438 18.375 -1.515625 C 18.90625 -1.285156 20.640625 -1.171875 23.578125 -1.171875 C 25.109375 -1.171875 26.320312 -1.203125 27.21875 -1.265625 C 28.125 -1.335938 28.691406 -1.421875 28.921875 -1.515625 C 29.898438 -2.003906 30.617188 -4.976562 31.078125 -10.4375 Z M 30.875 -21.21875 L 31.609375 -22.0625 C 34.972656 -19.28125 37.585938 -16.46875 39.453125 -13.625 C 40.171875 -12.582031 40.71875 -11.625 41.09375 -10.75 C 41.46875 -9.882812 41.65625 -9.113281 41.65625 -8.4375 C 41.65625 -7.0625 41.085938 -6.375 39.953125 -6.375 C 39.191406 -6.375 38.617188 -7.078125 38.234375 -8.484375 C 37.054688 -12.734375 34.601562 -16.976562 30.875 -21.21875 Z M 8.671875 -21.03125 L 9.796875 -20.734375 C 9.796875 -20.503906 9.796875 -20.296875 9.796875 -20.109375 C 9.796875 -19.929688 9.796875 -19.78125 9.796875 -19.65625 C 9.796875 -14.457031 9.015625 -10.335938 7.453125 -7.296875 C 6.335938 -5.109375 5.128906 -4.015625 3.828125 -4.015625 C 2.773438 -4.015625 2.25 -4.503906 2.25 -5.484375 C 2.25 -6.078125 2.707031 -6.78125 3.625 -7.59375 C 6.269531 -9.976562 7.953125 -14.457031 8.671875 -21.03125 Z M 14.90625 -34.15625 L 15.390625 -35.046875 C 17.148438 -34.390625 18.773438 -33.6875 20.265625 -32.9375 C 21.753906 -32.1875 23.085938 -31.367188 24.265625 -30.484375 C 26.316406 -28.984375 27.34375 -27.546875 27.34375 -26.171875 C 27.34375 -25.128906 26.820312 -24.609375 25.78125 -24.609375 C 25.257812 -24.609375 24.671875 -25.097656 24.015625 -26.078125 C 23.097656 -27.515625 21.878906 -28.910156 20.359375 -30.265625 C 18.847656 -31.617188 17.03125 -32.914062 14.90625 -34.15625 Z M 14.90625 -34.15625 "/></g></g></g><g fill="#000000" fill-opacity="1"><g transform="translate(49.430889, 43.463618)"><g><path d="M 22.796875 -3.09375 C 23.835938 -2.863281 24.78125 -2.894531 25.625 -3.1875 C 26.476562 -3.476562 27.1875 -3.921875 27.75 -4.515625 C 28.101562 -4.835938 28.398438 -5.25 28.640625 -5.75 C 28.890625 -6.257812 29.097656 -6.796875 29.265625 -7.359375 C 28.609375 -7.710938 27.863281 -7.976562 27.03125 -8.15625 C 26.195312 -8.34375 25.242188 -8.4375 24.171875 -8.4375 C 23.179688 -8.4375 22.226562 -8.242188 21.3125 -7.859375 C 20.40625 -7.484375 19.867188 -6.921875 19.703125 -6.171875 C 19.578125 -5.453125 19.804688 -4.816406 20.390625 -4.265625 C 20.972656 -3.710938 21.773438 -3.320312 22.796875 -3.09375 Z M 31.65625 -23.421875 C 31.65625 -23.234375 31.65625 -23.023438 31.65625 -22.796875 C 31.65625 -22.566406 31.65625 -22.320312 31.65625 -22.0625 C 31.789062 -22.125 31.898438 -22.160156 31.984375 -22.171875 C 32.066406 -22.191406 32.140625 -22.21875 32.203125 -22.25 C 32.492188 -22.351562 32.628906 -22.476562 32.609375 -22.625 C 32.597656 -22.769531 32.507812 -22.890625 32.34375 -22.984375 C 32.28125 -23.054688 32.191406 -23.125 32.078125 -23.1875 C 31.960938 -23.25 31.820312 -23.328125 31.65625 -23.421875 Z M 36.65625 -5.828125 C 37.476562 -5.109375 37.910156 -4.316406 37.953125 -3.453125 C 38.003906 -2.585938 37.707031 -1.992188 37.0625 -1.671875 C 36.632812 -1.472656 36.207031 -1.492188 35.78125 -1.734375 C 35.351562 -1.984375 34.957031 -2.316406 34.59375 -2.734375 C 34.238281 -3.160156 33.929688 -3.570312 33.671875 -3.96875 C 33.410156 -4.332031 33.097656 -4.675781 32.734375 -5 C 32.378906 -5.320312 31.988281 -5.632812 31.5625 -5.9375 C 31.4375 -5.3125 31.238281 -4.695312 30.96875 -4.09375 C 30.707031 -3.488281 30.332031 -2.925781 29.84375 -2.40625 C 29.03125 -1.457031 28.019531 -0.84375 26.8125 -0.5625 C 25.601562 -0.28125 24.25 -0.304688 22.75 -0.640625 C 21.40625 -0.960938 20.375 -1.488281 19.65625 -2.21875 C 18.9375 -2.957031 18.476562 -3.738281 18.28125 -4.5625 C 18.113281 -5.3125 18.171875 -6.050781 18.453125 -6.78125 C 18.734375 -7.519531 19.234375 -8.148438 19.953125 -8.671875 C 20.703125 -9.234375 21.59375 -9.625 22.625 -9.84375 C 23.65625 -10.070312 24.753906 -10.15625 25.921875 -10.09375 C 26.640625 -10.0625 27.3125 -9.988281 27.9375 -9.875 C 28.5625 -9.757812 29.148438 -9.617188 29.703125 -9.453125 C 29.703125 -9.585938 29.71875 -9.703125 29.75 -9.796875 C 29.8125 -10.742188 29.828125 -11.863281 29.796875 -13.15625 C 29.765625 -14.445312 29.71875 -15.632812 29.65625 -16.71875 C 29.625 -17.070312 29.585938 -17.421875 29.546875 -17.765625 C 29.515625 -18.109375 29.484375 -18.460938 29.453125 -18.828125 C 28.734375 -18.785156 27.988281 -18.738281 27.21875 -18.6875 C 26.457031 -18.644531 25.703125 -18.625 24.953125 -18.625 C 23.867188 -18.59375 23.054688 -18.617188 22.515625 -18.703125 C 21.984375 -18.785156 21.488281 -18.941406 21.03125 -19.171875 C 20.601562 -19.429688 20.316406 -19.765625 20.171875 -20.171875 C 20.023438 -20.578125 20.015625 -20.863281 20.140625 -21.03125 C 20.367188 -21.289062 20.601562 -21.40625 20.84375 -21.375 C 21.09375 -21.34375 21.382812 -21.257812 21.71875 -21.125 C 22.039062 -20.988281 22.316406 -20.878906 22.546875 -20.796875 C 22.773438 -20.722656 23.179688 -20.65625 23.765625 -20.59375 C 24.359375 -20.550781 25.015625 -20.554688 25.734375 -20.609375 C 26.453125 -20.660156 27.269531 -20.785156 28.1875 -20.984375 C 28.382812 -21.046875 28.570312 -21.097656 28.75 -21.140625 C 28.925781 -21.191406 29.113281 -21.234375 29.3125 -21.265625 C 29.28125 -21.722656 29.25 -22.140625 29.21875 -22.515625 C 29.1875 -22.898438 29.148438 -23.203125 29.109375 -23.421875 C 29.078125 -24.078125 29.003906 -24.601562 28.890625 -25 C 28.773438 -25.394531 28.585938 -25.738281 28.328125 -26.03125 C 27.804688 -26.582031 27.691406 -27.085938 27.984375 -27.546875 C 28.273438 -27.941406 28.945312 -27.910156 30 -27.453125 C 30.550781 -27.222656 30.960938 -26.851562 31.234375 -26.34375 C 31.515625 -25.84375 31.675781 -25.265625 31.71875 -24.609375 C 32.175781 -24.378906 32.726562 -24.113281 33.375 -23.8125 C 34.03125 -23.519531 34.539062 -23.296875 34.90625 -23.140625 C 35.195312 -23.003906 35.53125 -22.835938 35.90625 -22.640625 C 36.28125 -22.441406 36.554688 -22.203125 36.734375 -21.921875 C 36.910156 -21.648438 36.867188 -21.316406 36.609375 -20.921875 C 36.253906 -20.367188 35.679688 -19.96875 34.890625 -19.71875 C 34.109375 -19.476562 33.257812 -19.296875 32.34375 -19.171875 C 32.21875 -19.171875 32.101562 -19.160156 32 -19.140625 C 31.90625 -19.117188 31.773438 -19.09375 31.609375 -19.0625 C 31.609375 -18.800781 31.609375 -18.539062 31.609375 -18.28125 C 31.609375 -18.019531 31.609375 -17.789062 31.609375 -17.59375 C 31.609375 -16.78125 31.625 -15.644531 31.65625 -14.1875 C 31.695312 -12.738281 31.75 -11.328125 31.8125 -9.953125 C 31.8125 -9.753906 31.816406 -9.5625 31.828125 -9.375 C 31.847656 -9.195312 31.859375 -9.015625 31.859375 -8.828125 C 32.578125 -8.597656 33.34375 -8.226562 34.15625 -7.71875 C 34.976562 -7.207031 35.8125 -6.578125 36.65625 -5.828125 Z M 22.75 -30.25 C 22.320312 -30.4375 22.007812 -30.6875 21.8125 -31 C 21.613281 -31.3125 21.597656 -31.582031 21.765625 -31.8125 C 21.890625 -31.976562 22.082031 -32.035156 22.34375 -31.984375 C 22.613281 -31.929688 22.925781 -31.859375 23.28125 -31.765625 C 23.644531 -31.628906 24.015625 -31.550781 24.390625 -31.53125 C 24.765625 -31.519531 25.164062 -31.515625 25.59375 -31.515625 C 26.34375 -31.515625 27.023438 -31.5625 27.640625 -31.65625 C 28.265625 -31.757812 28.851562 -31.875 29.40625 -32 C 30.03125 -32.164062 30.609375 -32.378906 31.140625 -32.640625 C 31.679688 -32.898438 32.296875 -33.066406 32.984375 -33.140625 C 33.703125 -33.203125 34.289062 -33.191406 34.75 -33.109375 C 35.207031 -33.023438 35.503906 -32.722656 35.640625 -32.203125 C 35.796875 -31.679688 35.546875 -31.234375 34.890625 -30.859375 C 34.242188 -30.484375 33.445312 -30.179688 32.5 -29.953125 C 31.582031 -29.753906 30.65625 -29.601562 29.71875 -29.5 C 28.789062 -29.40625 27.851562 -29.390625 26.90625 -29.453125 C 25.988281 -29.523438 25.203125 -29.617188 24.546875 -29.734375 C 23.898438 -29.847656 23.300781 -30.019531 22.75 -30.25 Z M 12.75 -16.515625 C 12.875 -16.453125 12.921875 -16.3125 12.890625 -16.09375 C 12.859375 -15.882812 12.757812 -15.664062 12.59375 -15.4375 C 12.332031 -15.007812 12.054688 -14.421875 11.765625 -13.671875 C 11.472656 -12.921875 11.175781 -12.070312 10.875 -11.125 C 10.582031 -10.175781 10.421875 -9.117188 10.390625 -7.953125 C 10.359375 -6.796875 10.40625 -5.765625 10.53125 -4.859375 C 10.664062 -3.941406 10.734375 -3.085938 10.734375 -2.296875 C 10.734375 -1.515625 10.457031 -1.0625 9.90625 -0.9375 C 9.375 -0.800781 8.835938 -1.003906 8.296875 -1.546875 C 7.765625 -2.085938 7.269531 -3.039062 6.8125 -4.40625 C 6.382812 -5.78125 6.1875 -7.039062 6.21875 -8.1875 C 6.257812 -9.332031 6.390625 -10.457031 6.609375 -11.5625 C 6.804688 -12.644531 7.050781 -13.878906 7.34375 -15.265625 C 7.644531 -16.648438 7.925781 -17.851562 8.1875 -18.875 C 8.476562 -19.914062 8.753906 -20.929688 9.015625 -21.921875 C 9.273438 -22.921875 9.421875 -23.78125 9.453125 -24.5 C 9.492188 -25.289062 9.390625 -26.03125 9.140625 -26.71875 C 8.898438 -27.40625 8.628906 -27.941406 8.328125 -28.328125 C 8.066406 -28.691406 7.863281 -29.023438 7.71875 -29.328125 C 7.570312 -29.640625 7.566406 -29.878906 7.703125 -30.046875 C 7.859375 -30.242188 8.113281 -30.273438 8.46875 -30.140625 C 8.832031 -30.015625 9.195312 -29.800781 9.5625 -29.5 C 10.144531 -29.082031 10.613281 -28.59375 10.96875 -28.03125 C 11.332031 -27.476562 11.613281 -26.710938 11.8125 -25.734375 C 12.007812 -24.722656 11.925781 -23.632812 11.5625 -22.46875 C 11.207031 -21.3125 10.816406 -20.210938 10.390625 -19.171875 C 9.992188 -18.085938 9.738281 -17.046875 9.625 -16.046875 C 9.507812 -15.054688 9.4375 -14.378906 9.40625 -14.015625 C 9.375 -13.691406 9.421875 -13.472656 9.546875 -13.359375 C 9.679688 -13.242188 9.832031 -13.347656 10 -13.671875 C 10.488281 -14.722656 11.046875 -15.507812 11.671875 -16.03125 C 12.160156 -16.488281 12.519531 -16.648438 12.75 -16.515625 Z M 12.75 -16.515625 "/></g></g></g><g fill="#000000" fill-opacity="1"><g transform="translate(98.440822, 43.463618)"><g><path d="M 33.28125 -4.265625 C 33.644531 -3.671875 33.601562 -3.226562 33.15625 -2.9375 C 32.71875 -2.644531 32.15625 -2.46875 31.46875 -2.40625 C 30.15625 -2.269531 28.523438 -2.160156 26.578125 -2.078125 C 24.640625 -1.992188 22.835938 -1.953125 21.171875 -1.953125 C 19.503906 -1.992188 17.898438 -2.203125 16.359375 -2.578125 C 14.828125 -2.953125 13.703125 -3.578125 12.984375 -4.453125 C 12.296875 -5.304688 11.925781 -6.304688 11.875 -7.453125 C 11.832031 -8.597656 12.125 -9.675781 12.75 -10.6875 C 13.332031 -11.601562 14.023438 -12.410156 14.828125 -13.109375 C 15.628906 -13.816406 16.582031 -14.507812 17.6875 -15.1875 C 16.519531 -15.84375 15.820312 -16.742188 15.59375 -17.890625 C 15.457031 -18.546875 15.445312 -19.441406 15.5625 -20.578125 C 15.675781 -21.722656 15.765625 -22.722656 15.828125 -23.578125 C 15.898438 -24.460938 15.972656 -25.351562 16.046875 -26.25 C 16.128906 -27.144531 16.1875 -27.953125 16.21875 -28.671875 C 16.25 -29.390625 16.191406 -30.039062 16.046875 -30.625 C 15.898438 -31.21875 15.726562 -31.660156 15.53125 -31.953125 C 15.300781 -32.253906 15.101562 -32.566406 14.9375 -32.890625 C 14.78125 -33.210938 14.753906 -33.488281 14.859375 -33.71875 C 15.046875 -34.113281 15.351562 -34.226562 15.78125 -34.0625 C 16.207031 -33.90625 16.582031 -33.691406 16.90625 -33.421875 C 17.238281 -33.160156 17.613281 -32.742188 18.03125 -32.171875 C 18.457031 -31.609375 18.769531 -31.097656 18.96875 -30.640625 C 19.164062 -30.210938 19.238281 -29.695312 19.1875 -29.09375 C 19.132812 -28.488281 19.03125 -27.941406 18.875 -27.453125 C 18.738281 -26.929688 18.5625 -26.316406 18.34375 -25.609375 C 18.132812 -24.910156 17.96875 -24.132812 17.84375 -23.28125 C 17.707031 -22.46875 17.585938 -21.53125 17.484375 -20.46875 C 17.390625 -19.40625 17.328125 -18.546875 17.296875 -17.890625 C 17.265625 -17.460938 17.335938 -17.082031 17.515625 -16.75 C 17.703125 -16.425781 17.988281 -16.054688 18.375 -15.640625 C 19.8125 -16.515625 21.332031 -17.359375 22.9375 -18.171875 C 24.539062 -18.992188 26.0625 -19.765625 27.5 -20.484375 C 27.882812 -20.710938 28.046875 -21.03125 27.984375 -21.4375 C 27.921875 -21.851562 27.757812 -22.222656 27.5 -22.546875 C 27.269531 -22.835938 27.269531 -23.082031 27.5 -23.28125 C 27.726562 -23.476562 28.035156 -23.546875 28.421875 -23.484375 C 28.691406 -23.441406 29.003906 -23.347656 29.359375 -23.203125 C 29.722656 -23.054688 30.082031 -22.820312 30.4375 -22.5 C 30.726562 -22.269531 30.972656 -21.929688 31.171875 -21.484375 C 31.367188 -21.046875 31.429688 -20.609375 31.359375 -20.171875 C 31.296875 -19.734375 31.003906 -19.378906 30.484375 -19.109375 C 27.253906 -17.609375 24.507812 -16.332031 22.25 -15.28125 C 20 -14.238281 18.070312 -13.148438 16.46875 -12.015625 C 14.9375 -10.898438 14.015625 -9.785156 13.703125 -8.671875 C 13.390625 -7.566406 13.640625 -6.554688 14.453125 -5.640625 C 15.109375 -4.921875 16.054688 -4.40625 17.296875 -4.09375 C 18.546875 -3.78125 19.820312 -3.640625 21.125 -3.671875 C 22.4375 -3.671875 23.734375 -3.773438 25.015625 -3.984375 C 26.304688 -4.203125 27.328125 -4.425781 28.078125 -4.65625 C 28.609375 -4.851562 29.234375 -4.992188 29.953125 -5.078125 C 30.671875 -5.160156 31.335938 -5.148438 31.953125 -5.046875 C 32.578125 -4.953125 33.019531 -4.691406 33.28125 -4.265625 Z M 38.921875 -24.90625 C 38.585938 -24.800781 38.175781 -24.832031 37.6875 -25 C 37.195312 -25.164062 36.773438 -25.441406 36.421875 -25.828125 C 36.085938 -26.285156 35.691406 -26.660156 35.234375 -26.953125 C 34.785156 -27.253906 34.179688 -27.566406 33.421875 -27.890625 C 32.898438 -28.117188 32.753906 -28.429688 32.984375 -28.828125 C 33.046875 -28.921875 33.164062 -28.972656 33.34375 -28.984375 C 33.53125 -29.003906 33.671875 -29.015625 33.765625 -29.015625 C 34.617188 -29.015625 35.535156 -28.851562 36.515625 -28.53125 C 37.035156 -28.394531 37.601562 -28.160156 38.21875 -27.828125 C 38.84375 -27.503906 39.269531 -27.132812 39.5 -26.71875 C 39.769531 -26.289062 39.828125 -25.910156 39.671875 -25.578125 C 39.523438 -25.253906 39.273438 -25.03125 38.921875 -24.90625 Z M 35.046875 -22.890625 C 34.722656 -22.796875 34.3125 -22.835938 33.8125 -23.015625 C 33.320312 -23.191406 32.898438 -23.460938 32.546875 -23.828125 C 32.222656 -24.179688 31.832031 -24.546875 31.375 -24.921875 C 30.914062 -25.296875 30.375 -25.679688 29.75 -26.078125 C 29.226562 -26.367188 29.082031 -26.695312 29.3125 -27.0625 C 29.375 -27.15625 29.492188 -27.207031 29.671875 -27.21875 C 29.859375 -27.238281 30.015625 -27.234375 30.140625 -27.203125 C 30.859375 -27.203125 31.757812 -27.023438 32.84375 -26.671875 C 33.332031 -26.472656 33.878906 -26.191406 34.484375 -25.828125 C 35.085938 -25.472656 35.503906 -25.082031 35.734375 -24.65625 C 35.992188 -24.226562 36.03125 -23.847656 35.84375 -23.515625 C 35.664062 -23.191406 35.398438 -22.984375 35.046875 -22.890625 Z M 35.046875 -22.890625 "/></g></g></g><g fill="#000000" fill-opacity="1"><g transform="translate(147.450755, 43.463618)"><g><path d="M 33.765625 -24.609375 C 34.023438 -24.765625 34.144531 -24.929688 34.125 -25.109375 C 34.113281 -25.296875 34.0625 -25.421875 33.96875 -25.484375 C 33.875 -25.554688 33.726562 -25.664062 33.53125 -25.8125 C 33.332031 -25.957031 33.101562 -26.128906 32.84375 -26.328125 C 32.675781 -26.453125 32.492188 -26.585938 32.296875 -26.734375 C 32.097656 -26.878906 31.882812 -27.050781 31.65625 -27.25 C 31.695312 -26.726562 31.722656 -26.179688 31.734375 -25.609375 C 31.753906 -25.035156 31.78125 -24.441406 31.8125 -23.828125 C 32.207031 -23.953125 32.570312 -24.078125 32.90625 -24.203125 C 33.25 -24.335938 33.535156 -24.472656 33.765625 -24.609375 Z M 31.5625 -28.875 C 31.789062 -28.644531 32.035156 -28.414062 32.296875 -28.1875 C 32.554688 -27.957031 32.816406 -27.742188 33.078125 -27.546875 C 33.535156 -27.285156 34.035156 -27.023438 34.578125 -26.765625 C 35.117188 -26.503906 35.632812 -26.273438 36.125 -26.078125 C 37.238281 -25.585938 37.796875 -24.984375 37.796875 -24.265625 C 37.828125 -23.898438 37.675781 -23.535156 37.34375 -23.171875 C 37.019531 -22.816406 36.453125 -22.507812 35.640625 -22.25 C 35.210938 -22.125 34.65625 -21.984375 33.96875 -21.828125 C 33.28125 -21.679688 32.578125 -21.53125 31.859375 -21.375 C 31.859375 -20.945312 31.863281 -20.53125 31.875 -20.125 C 31.894531 -19.71875 31.90625 -19.332031 31.90625 -18.96875 C 31.90625 -17.5625 31.804688 -16.125 31.609375 -14.65625 C 31.421875 -13.1875 31.097656 -11.765625 30.640625 -10.390625 C 30.210938 -9.085938 29.640625 -7.738281 28.921875 -6.34375 C 28.203125 -4.957031 27.269531 -3.707031 26.125 -2.59375 C 24.976562 -1.519531 24.003906 -0.703125 23.203125 -0.140625 C 22.410156 0.410156 21.785156 0.816406 21.328125 1.078125 C 20.410156 1.566406 19.835938 1.613281 19.609375 1.21875 C 19.546875 1.0625 19.59375 0.910156 19.75 0.765625 C 19.914062 0.617188 20.144531 0.445312 20.4375 0.25 C 20.695312 0.0820312 21.0625 -0.203125 21.53125 -0.609375 C 22.007812 -1.015625 22.460938 -1.414062 22.890625 -1.8125 C 23.316406 -2.175781 23.78125 -2.660156 24.28125 -3.265625 C 24.789062 -3.867188 25.320312 -4.53125 25.875 -5.25 C 26.5 -6.03125 27.039062 -6.972656 27.5 -8.078125 C 27.957031 -9.191406 28.265625 -10.257812 28.421875 -11.28125 C 28.585938 -12.320312 28.726562 -13.566406 28.84375 -15.015625 C 28.957031 -16.472656 29.015625 -17.707031 29.015625 -18.71875 C 29.015625 -19.082031 29.019531 -19.457031 29.03125 -19.84375 C 29.050781 -20.238281 29.046875 -20.632812 29.015625 -21.03125 C 28.953125 -21.03125 28.863281 -21.03125 28.75 -21.03125 C 28.632812 -21.03125 28.523438 -21.015625 28.421875 -20.984375 C 27.410156 -20.941406 26.378906 -20.9375 25.328125 -20.96875 C 24.285156 -21.007812 23.34375 -21.09375 22.5 -21.21875 C 21.875 -21.320312 21.40625 -21.507812 21.09375 -21.78125 C 20.789062 -22.0625 20.6875 -22.316406 20.78125 -22.546875 C 20.945312 -22.835938 21.289062 -22.90625 21.8125 -22.75 C 22.5 -22.550781 23.160156 -22.453125 23.796875 -22.453125 C 24.429688 -22.453125 25.109375 -22.484375 25.828125 -22.546875 C 26.484375 -22.609375 27.0625 -22.679688 27.5625 -22.765625 C 28.070312 -22.847656 28.554688 -22.957031 29.015625 -23.09375 C 29.015625 -23.539062 29.015625 -23.976562 29.015625 -24.40625 C 29.015625 -24.832031 29.015625 -25.191406 29.015625 -25.484375 C 29.015625 -26.234375 28.984375 -27.066406 28.921875 -27.984375 C 28.859375 -28.898438 28.773438 -29.71875 28.671875 -30.4375 C 28.609375 -31.0625 28.460938 -31.59375 28.234375 -32.03125 C 28.003906 -32.46875 27.726562 -32.816406 27.40625 -33.078125 C 27.101562 -33.347656 26.863281 -33.613281 26.6875 -33.875 C 26.507812 -34.132812 26.484375 -34.378906 26.609375 -34.609375 C 26.773438 -34.929688 27.316406 -35.007812 28.234375 -34.84375 C 29.078125 -34.6875 29.84375 -34.25 30.53125 -33.53125 C 30.894531 -33.132812 31.148438 -32.519531 31.296875 -31.6875 C 31.441406 -30.851562 31.53125 -29.914062 31.5625 -28.875 Z M 14.75 -18.765625 C 14.519531 -18.441406 14.148438 -17.835938 13.640625 -16.953125 C 13.140625 -16.078125 12.660156 -15.210938 12.203125 -14.359375 C 11.773438 -13.546875 11.414062 -12.476562 11.125 -11.15625 C 10.832031 -9.832031 10.671875 -8.679688 10.640625 -7.703125 C 10.609375 -6.679688 10.738281 -5.703125 11.03125 -4.765625 C 11.320312 -3.835938 11.550781 -3.097656 11.71875 -2.546875 C 11.914062 -1.992188 11.960938 -1.488281 11.859375 -1.03125 C 11.765625 -0.570312 11.570312 -0.296875 11.28125 -0.203125 C 11.050781 -0.0664062 10.742188 -0.03125 10.359375 -0.09375 C 9.984375 -0.164062 9.648438 -0.347656 9.359375 -0.640625 C 9.035156 -0.960938 8.648438 -1.484375 8.203125 -2.203125 C 7.765625 -2.921875 7.382812 -3.867188 7.0625 -5.046875 C 6.40625 -7.398438 6.207031 -9.835938 6.46875 -12.359375 C 6.632812 -13.566406 6.8125 -14.707031 7 -15.78125 C 7.195312 -16.863281 7.410156 -17.910156 7.640625 -18.921875 C 7.867188 -19.929688 8.140625 -20.898438 8.453125 -21.828125 C 8.765625 -22.765625 9.035156 -23.675781 9.265625 -24.5625 C 9.492188 -25.4375 9.613281 -26.289062 9.625 -27.125 C 9.644531 -27.957031 9.609375 -28.6875 9.515625 -29.3125 C 9.441406 -29.9375 9.304688 -30.550781 9.109375 -31.15625 C 8.921875 -31.757812 8.742188 -32.222656 8.578125 -32.546875 C 8.179688 -33.265625 8.113281 -33.769531 8.375 -34.0625 C 8.769531 -34.457031 9.375 -34.179688 10.1875 -33.234375 C 10.582031 -32.773438 11 -32.113281 11.4375 -31.25 C 11.882812 -30.382812 12.171875 -29.394531 12.296875 -28.28125 C 12.460938 -27.238281 12.492188 -26.359375 12.390625 -25.640625 C 12.296875 -24.921875 12.117188 -24.25 11.859375 -23.625 C 11.597656 -23.039062 11.265625 -22.3125 10.859375 -21.4375 C 10.453125 -20.570312 10.066406 -19.488281 9.703125 -18.1875 C 9.347656 -16.875 9.09375 -15.65625 8.9375 -14.53125 C 8.789062 -13.40625 8.753906 -12.15625 8.828125 -10.78125 C 9.085938 -11.4375 9.363281 -12.066406 9.65625 -12.671875 C 9.945312 -13.273438 10.351562 -14.082031 10.875 -15.09375 C 11.46875 -16.101562 12.066406 -17.007812 12.671875 -17.8125 C 13.273438 -18.613281 13.691406 -19.144531 13.921875 -19.40625 C 14.148438 -19.664062 14.378906 -19.867188 14.609375 -20.015625 C 14.835938 -20.171875 15 -20.195312 15.09375 -20.09375 C 15.289062 -19.925781 15.175781 -19.484375 14.75 -18.765625 Z M 14.75 -18.765625 "/></g></g></g><g fill="#000000" fill-opacity="1"><g transform="translate(196.460723, 43.463618)"><g><path d="M 36.375 -11.28125 C 36.5 -9.9375 36.378906 -8.75 36.015625 -7.71875 C 35.660156 -6.6875 35.0625 -5.695312 34.21875 -4.75 C 33.300781 -3.738281 32.296875 -2.921875 31.203125 -2.296875 C 30.109375 -1.679688 28.9375 -1.207031 27.6875 -0.875 C 26.445312 -0.550781 25.195312 -0.394531 23.9375 -0.40625 C 22.6875 -0.425781 21.320312 -0.566406 19.84375 -0.828125 C 18.34375 -1.160156 17.273438 -1.585938 16.640625 -2.109375 C 16.003906 -2.628906 15.6875 -3.25 15.6875 -3.96875 C 15.65625 -4.71875 16.019531 -5.363281 16.78125 -5.90625 C 17.550781 -6.445312 18.347656 -6.78125 19.171875 -6.90625 C 20.015625 -7.070312 20.894531 -7.101562 21.8125 -7 C 22.726562 -6.90625 23.546875 -6.566406 24.265625 -5.984375 C 24.921875 -5.460938 25.265625 -4.914062 25.296875 -4.34375 C 25.328125 -3.769531 25.195312 -3.1875 24.90625 -2.59375 C 26.082031 -2.757812 27.195312 -3.019531 28.25 -3.375 C 29.3125 -3.738281 30.238281 -4.234375 31.03125 -4.859375 C 31.976562 -5.640625 32.679688 -6.5625 33.140625 -7.625 C 33.597656 -8.6875 33.828125 -9.769531 33.828125 -10.875 C 33.859375 -12.019531 33.476562 -13.1875 32.6875 -14.375 C 31.90625 -15.570312 30.828125 -16.484375 29.453125 -17.109375 C 26.710938 -18.285156 23.804688 -18.382812 20.734375 -17.40625 C 19.203125 -16.914062 17.921875 -16.289062 16.890625 -15.53125 C 15.859375 -14.78125 14.96875 -13.914062 14.21875 -12.9375 C 13.5 -11.988281 12.875 -11 12.34375 -9.96875 C 11.820312 -8.945312 11.46875 -8.109375 11.28125 -7.453125 C 10.914062 -6.242188 10.421875 -5.472656 9.796875 -5.140625 C 9.671875 -5.078125 9.46875 -5.019531 9.1875 -4.96875 C 8.914062 -4.925781 8.582031 -5.066406 8.1875 -5.390625 C 7.925781 -5.617188 7.757812 -5.953125 7.6875 -6.390625 C 7.625 -6.835938 7.609375 -7.222656 7.640625 -7.546875 C 7.679688 -7.867188 7.945312 -8.363281 8.4375 -9.03125 C 8.925781 -9.707031 9.378906 -10.320312 9.796875 -10.875 C 10.253906 -11.46875 10.8125 -12.1875 11.46875 -13.03125 C 12.125 -13.882812 12.859375 -14.769531 13.671875 -15.6875 C 14.234375 -16.300781 14.863281 -17.015625 15.5625 -17.828125 C 16.257812 -18.648438 16.925781 -19.445312 17.5625 -20.21875 C 18.207031 -20.988281 18.707031 -21.566406 19.0625 -21.953125 C 19.320312 -22.285156 19.695312 -22.742188 20.1875 -23.328125 C 20.675781 -23.921875 21.191406 -24.539062 21.734375 -25.1875 C 22.273438 -25.84375 22.757812 -26.429688 23.1875 -26.953125 C 23.613281 -27.484375 23.890625 -27.84375 24.015625 -28.03125 C 24.609375 -28.789062 24.789062 -29.265625 24.5625 -29.453125 C 24.425781 -29.585938 24.191406 -29.597656 23.859375 -29.484375 C 23.535156 -29.367188 23.242188 -29.226562 22.984375 -29.0625 C 22.828125 -28.96875 22.484375 -28.765625 21.953125 -28.453125 C 21.429688 -28.140625 20.867188 -27.800781 20.265625 -27.4375 C 19.660156 -27.082031 19.128906 -26.773438 18.671875 -26.515625 C 17.953125 -26.160156 17.316406 -25.890625 16.765625 -25.703125 C 16.210938 -25.523438 15.625 -25.4375 15 -25.4375 C 14.375 -25.4375 13.859375 -25.554688 13.453125 -25.796875 C 13.046875 -26.046875 12.710938 -26.285156 12.453125 -26.515625 C 12.222656 -26.773438 12.054688 -27.0625 11.953125 -27.375 C 11.859375 -27.6875 11.84375 -27.921875 11.90625 -28.078125 C 12.007812 -28.347656 12.164062 -28.5 12.375 -28.53125 C 12.582031 -28.5625 12.785156 -28.546875 12.984375 -28.484375 C 13.210938 -28.441406 13.46875 -28.378906 13.75 -28.296875 C 14.03125 -28.222656 14.332031 -28.1875 14.65625 -28.1875 C 14.976562 -28.15625 15.328125 -28.175781 15.703125 -28.25 C 16.078125 -28.332031 16.644531 -28.539062 17.40625 -28.875 C 18.15625 -29.164062 18.984375 -29.53125 19.890625 -29.96875 C 20.804688 -30.414062 21.675781 -30.847656 22.5 -31.265625 C 23.34375 -31.722656 24.039062 -32.09375 24.59375 -32.375 C 25.15625 -32.65625 25.664062 -32.8125 26.125 -32.84375 C 26.613281 -32.875 27.085938 -32.757812 27.546875 -32.5 C 28.003906 -32.238281 28.394531 -31.925781 28.71875 -31.5625 C 29.050781 -31.238281 29.25 -30.953125 29.3125 -30.703125 C 29.375 -30.460938 29.375 -30.226562 29.3125 -30 C 29.25 -29.632812 28.90625 -29.257812 28.28125 -28.875 C 27.957031 -28.675781 27.457031 -28.289062 26.78125 -27.71875 C 26.113281 -27.144531 25.453125 -26.53125 24.796875 -25.875 C 24.148438 -25.1875 23.445312 -24.398438 22.6875 -23.515625 C 21.9375 -22.640625 21.269531 -21.875 20.6875 -21.21875 C 20.6875 -21.21875 20.390625 -20.90625 19.796875 -20.28125 C 19.210938 -19.664062 18.347656 -18.753906 17.203125 -17.546875 C 17.566406 -17.804688 17.941406 -18.039062 18.328125 -18.25 C 18.722656 -18.46875 19.25 -18.691406 19.90625 -18.921875 C 20.851562 -19.273438 21.847656 -19.535156 22.890625 -19.703125 C 23.929688 -19.867188 25.078125 -19.882812 26.328125 -19.75 C 27.597656 -19.625 28.765625 -19.363281 29.828125 -18.96875 C 30.890625 -18.570312 31.878906 -18.050781 32.796875 -17.40625 C 33.742188 -16.75 34.539062 -15.921875 35.1875 -14.921875 C 35.84375 -13.929688 36.238281 -12.71875 36.375 -11.28125 Z M 21.90625 -2.5 C 22.5625 -3.082031 22.847656 -3.601562 22.765625 -4.0625 C 22.679688 -4.519531 22.382812 -4.878906 21.875 -5.140625 C 21.375 -5.398438 20.78125 -5.53125 20.09375 -5.53125 C 19.3125 -5.5 18.722656 -5.285156 18.328125 -4.890625 C 17.941406 -4.503906 17.910156 -4.066406 18.234375 -3.578125 C 18.429688 -3.316406 18.835938 -3.078125 19.453125 -2.859375 C 20.078125 -2.648438 20.894531 -2.53125 21.90625 -2.5 Z M 21.90625 -2.5 "/></g></g></g><g fill="#000000" fill-opacity="1"><g transform="translate(245.470656, 43.463618)"><g><path d="M 2.40625 -5.25 L 2.890625 -5.984375 C 5.828125 -5.035156 8.164062 -3.691406 9.90625 -1.953125 C 10.75 -1.109375 11.171875 -0.128906 11.171875 0.984375 C 11.171875 2.453125 10.46875 3.1875 9.0625 3.1875 C 8.375 3.1875 7.804688 2.628906 7.359375 1.515625 C 6.472656 -0.929688 4.820312 -3.1875 2.40625 -5.25 Z M 2.40625 -5.25 "/></g></g></g><g fill="#000000" fill-opacity="1"><g transform="translate(294.48059, 43.463618)"><g><path d="M 11.28125 -11.421875 L 32.9375 -11.421875 L 32.9375 -19.0625 L 11.28125 -19.0625 Z M 11.28125 -2.0625 L 32.9375 -2.0625 L 32.9375 -10.34375 L 11.28125 -10.34375 Z M 32.9375 -27.59375 L 11.28125 -27.59375 L 11.28125 -20.140625 L 32.9375 -20.140625 Z M 11.8125 -28.71875 L 18.28125 -28.71875 C 19.164062 -31.070312 19.851562 -33.71875 20.34375 -36.65625 C 23.28125 -36.101562 24.75 -35.535156 24.75 -34.953125 C 24.75 -34.523438 24.144531 -34.210938 22.9375 -34.015625 C 22.09375 -32.085938 21.046875 -30.320312 19.796875 -28.71875 L 32.453125 -28.71875 L 34.15625 -30.78125 C 36.09375 -29.34375 37.0625 -28.410156 37.0625 -27.984375 C 37.0625 -27.828125 36.960938 -27.679688 36.765625 -27.546875 L 35.640625 -26.765625 L 35.640625 3.03125 L 32.9375 3.03125 L 32.9375 -0.984375 L 11.28125 -0.984375 L 11.28125 3.03125 L 8.578125 3.03125 L 8.578125 -30.1875 C 9.097656 -29.957031 9.632812 -29.726562 10.1875 -29.5 C 10.75 -29.28125 11.289062 -29.019531 11.8125 -28.71875 Z M 11.8125 -28.71875 "/></g></g></g><g fill="#000000" fill-opacity="1"><g transform="translate(343.490523, 43.463618)"><g><path d="M 32.15625 -7.109375 L 32.796875 -7.890625 C 35.640625 -6.453125 37.875 -4.800781 39.5 -2.9375 C 40.550781 -1.832031 41.078125 -0.738281 41.078125 0.34375 C 41.078125 1.582031 40.535156 2.203125 39.453125 2.203125 C 38.703125 2.203125 38.128906 1.613281 37.734375 0.4375 C 37.015625 -1.914062 35.15625 -4.429688 32.15625 -7.109375 Z M 9.703125 -7.40625 L 10.734375 -7.0625 C 10.597656 -5.320312 10.269531 -3.722656 9.75 -2.265625 C 9.226562 -0.816406 8.507812 0.457031 7.59375 1.5625 C 6.644531 2.707031 5.695312 3.28125 4.75 3.28125 C 3.707031 3.28125 3.1875 2.742188 3.1875 1.671875 C 3.1875 1.179688 3.660156 0.640625 4.609375 0.046875 C 6.890625 -1.390625 8.585938 -3.875 9.703125 -7.40625 Z M 23.28125 -7.0625 L 24.0625 -7.75 C 27.820312 -4.832031 29.703125 -2.132812 29.703125 0.34375 C 29.703125 1.71875 29.113281 2.40625 27.9375 2.40625 C 27.15625 2.40625 26.679688 1.816406 26.515625 0.640625 C 26.222656 -1.941406 25.144531 -4.507812 23.28125 -7.0625 Z M 15.1875 -7.109375 L 16.078125 -7.546875 C 18.265625 -4.835938 19.359375 -2.351562 19.359375 -0.09375 C 19.359375 1.601562 18.753906 2.453125 17.546875 2.453125 C 16.734375 2.453125 16.328125 1.945312 16.328125 0.9375 L 16.328125 0.640625 C 16.359375 0.472656 16.375 0.265625 16.375 0.015625 C 16.375 -0.222656 16.375 -0.488281 16.375 -0.78125 C 16.375 -2.8125 15.976562 -4.921875 15.1875 -7.109375 Z M 31.5625 -33.71875 L 32.203125 -34.453125 C 35.566406 -32.785156 37.25 -31.070312 37.25 -29.3125 C 37.25 -28.195312 36.726562 -27.640625 35.6875 -27.640625 C 35.03125 -27.640625 34.601562 -28.113281 34.40625 -29.0625 C 34.28125 -29.914062 33.972656 -30.722656 33.484375 -31.484375 C 32.992188 -32.253906 32.351562 -33 31.5625 -33.71875 Z M 20.6875 -25.046875 L 26.8125 -25.046875 C 26.875 -25.828125 26.929688 -26.566406 26.984375 -27.265625 C 27.035156 -27.972656 27.0625 -28.65625 27.0625 -29.3125 L 27.0625 -35.921875 C 29.800781 -35.921875 31.171875 -35.582031 31.171875 -34.90625 C 31.171875 -34.507812 30.613281 -34.113281 29.5 -33.71875 L 29.5 -29.3125 C 29.5 -28.457031 29.484375 -27.675781 29.453125 -26.96875 C 29.421875 -26.269531 29.375 -25.628906 29.3125 -25.046875 L 36.65625 -25.046875 L 38.578125 -27.640625 C 39.035156 -27.179688 39.484375 -26.710938 39.921875 -26.234375 C 40.359375 -25.765625 40.789062 -25.285156 41.21875 -24.796875 L 40.734375 -23.96875 L 30 -23.96875 C 31.144531 -21.21875 32.6875 -18.753906 34.625 -16.578125 C 36.570312 -14.410156 38.9375 -12.507812 41.71875 -10.875 C 41 -10.351562 40.28125 -9.519531 39.5625 -8.375 C 34.164062 -12.363281 30.648438 -17.234375 29.015625 -22.984375 C 28.359375 -19.097656 26.988281 -15.929688 24.90625 -13.484375 C 23.164062 -11.453125 20.550781 -9.617188 17.0625 -7.984375 L 16.46875 -9.015625 C 20.457031 -11.335938 23.234375 -14.132812 24.796875 -17.40625 C 25.191406 -18.25 25.546875 -19.207031 25.859375 -20.28125 C 26.171875 -21.363281 26.441406 -22.59375 26.671875 -23.96875 L 20.25 -23.96875 C 16.84375 -16.125 11.332031 -10.226562 3.71875 -6.28125 L 3.09375 -7.25 C 11.457031 -12.613281 16.863281 -20 19.3125 -29.40625 L 12.453125 -29.40625 C 12.222656 -28.914062 11.976562 -28.425781 11.71875 -27.9375 C 11.457031 -27.445312 11.195312 -26.957031 10.9375 -26.46875 C 14.488281 -25.0625 16.265625 -23.523438 16.265625 -21.859375 C 16.265625 -20.972656 15.84375 -20.53125 15 -20.53125 C 14.40625 -20.53125 13.960938 -20.941406 13.671875 -21.765625 C 13.179688 -23.003906 12.070312 -24.242188 10.34375 -25.484375 C 10.050781 -24.992188 9.707031 -24.453125 9.3125 -23.859375 C 8.914062 -23.273438 8.457031 -22.640625 7.9375 -21.953125 C 11.238281 -20.128906 12.890625 -18.347656 12.890625 -16.609375 C 12.890625 -15.660156 12.460938 -15.1875 11.609375 -15.1875 C 11.023438 -15.1875 10.585938 -15.660156 10.296875 -16.609375 C 9.867188 -17.984375 8.851562 -19.472656 7.25 -21.078125 C 6.632812 -20.359375 5.972656 -19.628906 5.265625 -18.890625 C 4.566406 -18.160156 3.789062 -17.421875 2.9375 -16.671875 L 2.203125 -17.5 C 6.847656 -22.625 10.050781 -28.816406 11.8125 -36.078125 C 14.519531 -35.328125 15.875 -34.6875 15.875 -34.15625 C 15.875 -33.769531 15.222656 -33.476562 13.921875 -33.28125 C 13.753906 -32.726562 13.585938 -32.222656 13.421875 -31.765625 C 13.265625 -31.304688 13.101562 -30.894531 12.9375 -30.53125 L 19.171875 -30.53125 L 20.78125 -32.5 C 22.507812 -30.957031 23.375 -29.957031 23.375 -29.5 C 23.375 -29.3125 23.226562 -29.132812 22.9375 -28.96875 L 21.8125 -28.421875 C 21.613281 -27.804688 21.425781 -27.210938 21.25 -26.640625 C 21.070312 -26.066406 20.882812 -25.535156 20.6875 -25.046875 Z M 20.6875 -25.046875 "/></g></g></g><g fill="#000000" fill-opacity="1"><g transform="translate(392.500456, 43.463618)"><g><path d="M 33.28125 -4.265625 C 33.644531 -3.671875 33.601562 -3.226562 33.15625 -2.9375 C 32.71875 -2.644531 32.15625 -2.46875 31.46875 -2.40625 C 30.15625 -2.269531 28.523438 -2.160156 26.578125 -2.078125 C 24.640625 -1.992188 22.835938 -1.953125 21.171875 -1.953125 C 19.503906 -1.992188 17.898438 -2.203125 16.359375 -2.578125 C 14.828125 -2.953125 13.703125 -3.578125 12.984375 -4.453125 C 12.296875 -5.304688 11.925781 -6.304688 11.875 -7.453125 C 11.832031 -8.597656 12.125 -9.675781 12.75 -10.6875 C 13.332031 -11.601562 14.023438 -12.410156 14.828125 -13.109375 C 15.628906 -13.816406 16.582031 -14.507812 17.6875 -15.1875 C 16.519531 -15.84375 15.820312 -16.742188 15.59375 -17.890625 C 15.457031 -18.546875 15.445312 -19.441406 15.5625 -20.578125 C 15.675781 -21.722656 15.765625 -22.722656 15.828125 -23.578125 C 15.898438 -24.460938 15.972656 -25.351562 16.046875 -26.25 C 16.128906 -27.144531 16.1875 -27.953125 16.21875 -28.671875 C 16.25 -29.390625 16.191406 -30.039062 16.046875 -30.625 C 15.898438 -31.21875 15.726562 -31.660156 15.53125 -31.953125 C 15.300781 -32.253906 15.101562 -32.566406 14.9375 -32.890625 C 14.78125 -33.210938 14.753906 -33.488281 14.859375 -33.71875 C 15.046875 -34.113281 15.351562 -34.226562 15.78125 -34.0625 C 16.207031 -33.90625 16.582031 -33.691406 16.90625 -33.421875 C 17.238281 -33.160156 17.613281 -32.742188 18.03125 -32.171875 C 18.457031 -31.609375 18.769531 -31.097656 18.96875 -30.640625 C 19.164062 -30.210938 19.238281 -29.695312 19.1875 -29.09375 C 19.132812 -28.488281 19.03125 -27.941406 18.875 -27.453125 C 18.738281 -26.929688 18.5625 -26.316406 18.34375 -25.609375 C 18.132812 -24.910156 17.96875 -24.132812 17.84375 -23.28125 C 17.707031 -22.46875 17.585938 -21.53125 17.484375 -20.46875 C 17.390625 -19.40625 17.328125 -18.546875 17.296875 -17.890625 C 17.265625 -17.460938 17.335938 -17.082031 17.515625 -16.75 C 17.703125 -16.425781 17.988281 -16.054688 18.375 -15.640625 C 19.8125 -16.515625 21.332031 -17.359375 22.9375 -18.171875 C 24.539062 -18.992188 26.0625 -19.765625 27.5 -20.484375 C 27.882812 -20.710938 28.046875 -21.03125 27.984375 -21.4375 C 27.921875 -21.851562 27.757812 -22.222656 27.5 -22.546875 C 27.269531 -22.835938 27.269531 -23.082031 27.5 -23.28125 C 27.726562 -23.476562 28.035156 -23.546875 28.421875 -23.484375 C 28.691406 -23.441406 29.003906 -23.347656 29.359375 -23.203125 C 29.722656 -23.054688 30.082031 -22.820312 30.4375 -22.5 C 30.726562 -22.269531 30.972656 -21.929688 31.171875 -21.484375 C 31.367188 -21.046875 31.429688 -20.609375 31.359375 -20.171875 C 31.296875 -19.734375 31.003906 -19.378906 30.484375 -19.109375 C 27.253906 -17.609375 24.507812 -16.332031 22.25 -15.28125 C 20 -14.238281 18.070312 -13.148438 16.46875 -12.015625 C 14.9375 -10.898438 14.015625 -9.785156 13.703125 -8.671875 C 13.390625 -7.566406 13.640625 -6.554688 14.453125 -5.640625 C 15.109375 -4.921875 16.054688 -4.40625 17.296875 -4.09375 C 18.546875 -3.78125 19.820312 -3.640625 21.125 -3.671875 C 22.4375 -3.671875 23.734375 -3.773438 25.015625 -3.984375 C 26.304688 -4.203125 27.328125 -4.425781 28.078125 -4.65625 C 28.609375 -4.851562 29.234375 -4.992188 29.953125 -5.078125 C 30.671875 -5.160156 31.335938 -5.148438 31.953125 -5.046875 C 32.578125 -4.953125 33.019531 -4.691406 33.28125 -4.265625 Z M 33.28125 -4.265625 "/></g></g></g><g fill="#000000" fill-opacity="1"><g transform="translate(441.510398, 43.463618)"><g><path d="M 29.40625 -26.125 L 13.53125 -26.125 C 15.914062 -20.3125 18.953125 -15.394531 22.640625 -11.375 C 25.742188 -15.582031 28 -20.5 29.40625 -26.125 Z M 11.90625 -26.125 L 4.0625 -26.125 L 3.578125 -27.203125 L 20.59375 -27.203125 L 20.59375 -35.921875 C 23.625 -35.796875 25.140625 -35.40625 25.140625 -34.75 C 25.140625 -34.457031 24.488281 -34.035156 23.1875 -33.484375 L 23.1875 -27.203125 L 35.234375 -27.203125 L 37.734375 -30.484375 C 38.390625 -29.929688 38.992188 -29.359375 39.546875 -28.765625 C 40.109375 -28.179688 40.648438 -27.578125 41.171875 -26.953125 L 40.640625 -26.125 L 32.453125 -26.125 C 30.554688 -19.363281 27.875 -13.859375 24.40625 -9.609375 C 28.71875 -5.679688 34.4375 -2.59375 41.5625 -0.34375 C 40.582031 0.539062 39.863281 1.441406 39.40625 2.359375 C 35.90625 0.984375 32.789062 -0.539062 30.0625 -2.21875 C 27.34375 -3.90625 24.96875 -5.75 22.9375 -7.75 C 20.320312 -5.132812 17.375 -2.925781 14.09375 -1.125 C 10.8125 0.664062 7.207031 2.070312 3.28125 3.09375 L 2.703125 2.0625 C 6.222656 0.914062 9.519531 -0.632812 12.59375 -2.59375 C 15.664062 -4.550781 18.507812 -6.921875 21.125 -9.703125 C 17.4375 -13.890625 14.363281 -19.363281 11.90625 -26.125 Z M 11.90625 -26.125 "/></g></g></g><g fill="#000000" fill-opacity="1"><g transform="translate(490.52034, 43.463618)"><g><path d="M 12.203125 -23.375 C 13.867188 -23.144531 14.703125 -22.769531 14.703125 -22.25 C 14.703125 -21.820312 14.113281 -21.414062 12.9375 -21.03125 L 12.9375 3.1875 L 10.34375 3.1875 L 10.34375 -20 C 9.300781 -18.300781 8.195312 -16.679688 7.03125 -15.140625 C 5.875 -13.609375 4.675781 -12.15625 3.4375 -10.78125 L 2.5 -11.515625 C 7.757812 -18.515625 11.710938 -26.75 14.359375 -36.21875 C 17.171875 -35.46875 18.578125 -34.78125 18.578125 -34.15625 C 18.578125 -33.738281 17.890625 -33.429688 16.515625 -33.234375 C 15.796875 -31.335938 15.082031 -29.570312 14.375 -27.9375 C 13.675781 -26.300781 12.953125 -24.78125 12.203125 -23.375 Z M 25.140625 -33.328125 L 25.140625 -17.25 C 25.273438 -17.25 25.457031 -17.332031 25.6875 -17.5 C 27.8125 -18.84375 29.800781 -20.335938 31.65625 -21.984375 C 33.519531 -23.628906 35.222656 -25.4375 36.765625 -27.40625 C 38.953125 -25.894531 40.046875 -24.816406 40.046875 -24.171875 C 40.046875 -23.835938 39.734375 -23.671875 39.109375 -23.671875 C 38.910156 -23.671875 38.695312 -23.695312 38.46875 -23.75 C 38.25 -23.800781 38.003906 -23.84375 37.734375 -23.875 C 35.972656 -22.332031 34.046875 -20.890625 31.953125 -19.546875 C 29.867188 -18.210938 27.597656 -16.925781 25.140625 -15.6875 L 25.140625 -2.0625 C 25.140625 -1.3125 25.382812 -0.804688 25.875 -0.546875 C 26.132812 -0.546875 26.691406 -0.519531 27.546875 -0.46875 C 28.398438 -0.414062 29.578125 -0.390625 31.078125 -0.390625 C 32.609375 -0.390625 33.820312 -0.421875 34.71875 -0.484375 C 35.625 -0.554688 36.207031 -0.625 36.46875 -0.6875 C 37.738281 -1.113281 38.554688 -4.171875 38.921875 -9.859375 L 40.09375 -9.3125 C 40.09375 -5.226562 40.253906 -2.8125 40.578125 -2.0625 C 40.847656 -1.46875 41.304688 -1.171875 41.953125 -1.171875 C 41.921875 0.234375 41.285156 1.128906 40.046875 1.515625 C 39.421875 1.679688 38.335938 1.796875 36.796875 1.859375 C 35.265625 1.921875 33.257812 1.953125 30.78125 1.953125 C 26.5 1.953125 23.984375 1.644531 23.234375 1.03125 C 22.742188 0.570312 22.5 -0.328125 22.5 -1.671875 L 22.5 -35.828125 C 25.539062 -35.703125 27.0625 -35.296875 27.0625 -34.609375 C 27.0625 -34.242188 26.421875 -33.816406 25.140625 -33.328125 Z M 25.140625 -33.328125 "/></g></g></g><g fill="#000000" fill-opacity="1"><g transform="translate(539.530247, 43.463618)"><g><path d="M 19.796875 -22.25 C 19.992188 -23.59375 20.109375 -24.84375 20.140625 -26 C 20.171875 -27.164062 20.15625 -28.238281 20.09375 -29.21875 C 17.8125 -28.59375 15.753906 -27.644531 13.921875 -26.375 C 12.609375 -25.457031 11.429688 -24.359375 10.390625 -23.078125 C 9.347656 -21.804688 8.582031 -20.503906 8.09375 -19.171875 C 7.5625 -17.828125 7.28125 -16.457031 7.25 -15.0625 C 7.21875 -13.675781 7.367188 -12.5625 7.703125 -11.71875 C 8.054688 -10.894531 8.613281 -10.378906 9.375 -10.171875 C 10.144531 -9.960938 11.023438 -10.019531 12.015625 -10.34375 C 12.960938 -10.632812 13.84375 -11.097656 14.65625 -11.734375 C 15.46875 -12.367188 16.234375 -13.242188 16.953125 -14.359375 C 17.671875 -15.472656 18.265625 -16.664062 18.734375 -17.9375 C 19.210938 -19.207031 19.566406 -20.644531 19.796875 -22.25 Z M 37.25 -24.265625 C 37.738281 -23.347656 38.128906 -22.457031 38.421875 -21.59375 C 38.722656 -20.726562 38.921875 -19.625 39.015625 -18.28125 C 39.078125 -16.9375 39.066406 -15.757812 38.984375 -14.75 C 38.910156 -13.738281 38.707031 -12.660156 38.375 -11.515625 C 38.050781 -10.410156 37.492188 -9.289062 36.703125 -8.15625 C 35.921875 -7.03125 34.894531 -6.09375 33.625 -5.34375 C 32.382812 -4.59375 31.132812 -3.992188 29.875 -3.546875 C 28.613281 -3.109375 27.164062 -2.726562 25.53125 -2.40625 C 23.90625 -2.070312 22.394531 -1.9375 21 -2 C 19.613281 -2.070312 18.492188 -2.191406 17.640625 -2.359375 C 17.117188 -2.421875 16.890625 -2.582031 16.953125 -2.84375 C 16.953125 -3.164062 17.179688 -3.296875 17.640625 -3.234375 C 17.867188 -3.203125 18.210938 -3.171875 18.671875 -3.140625 C 19.128906 -3.109375 19.65625 -3.09375 20.25 -3.09375 C 21.195312 -3.125 22.175781 -3.203125 23.1875 -3.328125 C 24.195312 -3.460938 25.175781 -3.660156 26.125 -3.921875 C 27.070312 -4.210938 28.0625 -4.59375 29.09375 -5.0625 C 30.125 -5.539062 31.128906 -6.125 32.109375 -6.8125 C 33.085938 -7.5 33.976562 -8.46875 34.78125 -9.71875 C 35.582031 -10.976562 36.097656 -12.328125 36.328125 -13.765625 C 36.585938 -15.171875 36.640625 -16.546875 36.484375 -17.890625 C 36.335938 -19.234375 36.070312 -20.554688 35.6875 -21.859375 C 35.257812 -23.328125 34.691406 -24.535156 33.984375 -25.484375 C 33.285156 -26.429688 32.414062 -27.25 31.375 -27.9375 C 30.289062 -28.65625 28.976562 -29.175781 27.4375 -29.5 C 25.90625 -29.832031 24.375 -29.914062 22.84375 -29.75 C 22.644531 -29.71875 22.4375 -29.6875 22.21875 -29.65625 C 22.007812 -29.625 21.789062 -29.59375 21.5625 -29.5625 C 21.632812 -29.070312 21.671875 -28.472656 21.671875 -27.765625 C 21.671875 -27.066406 21.6875 -26.40625 21.71875 -25.78125 C 21.71875 -24.96875 21.664062 -23.988281 21.5625 -22.84375 C 21.46875 -21.695312 21.273438 -20.4375 20.984375 -19.0625 C 20.722656 -17.65625 20.320312 -16.175781 19.78125 -14.625 C 19.238281 -13.070312 18.492188 -11.675781 17.546875 -10.4375 C 16.628906 -9.226562 15.613281 -8.238281 14.5 -7.46875 C 13.394531 -6.707031 12.269531 -6.328125 11.125 -6.328125 C 8.90625 -6.328125 7.238281 -7.566406 6.125 -10.046875 C 5.601562 -11.253906 5.285156 -12.421875 5.171875 -13.546875 C 5.054688 -14.679688 5.160156 -15.945312 5.484375 -17.34375 C 6.078125 -20.0625 7.175781 -22.335938 8.78125 -24.171875 C 9.625 -25.148438 10.535156 -26.070312 11.515625 -26.9375 C 12.492188 -27.800781 13.671875 -28.59375 15.046875 -29.3125 C 16.484375 -30.0625 18.007812 -30.613281 19.625 -30.96875 C 21.25 -31.332031 22.8125 -31.5 24.3125 -31.46875 C 27.382812 -31.40625 29.984375 -30.71875 32.109375 -29.40625 C 33.253906 -28.71875 34.265625 -27.925781 35.140625 -27.03125 C 36.023438 -26.132812 36.726562 -25.210938 37.25 -24.265625 Z M 37.25 -24.265625 "/></g></g></g><g fill="#000000" fill-opacity="1"><g transform="translate(588.540189, 43.463618)"><g><path d="M 10.78125 0.640625 C 10.75 0.503906 10.835938 0.394531 11.046875 0.3125 C 11.265625 0.238281 11.503906 0.148438 11.765625 0.046875 C 12.222656 -0.117188 12.769531 -0.3125 13.40625 -0.53125 C 14.039062 -0.757812 14.976562 -1.171875 16.21875 -1.765625 C 17.46875 -2.316406 18.65625 -2.992188 19.78125 -3.796875 C 20.90625 -4.597656 21.972656 -5.554688 22.984375 -6.671875 C 24.035156 -7.804688 24.878906 -8.96875 25.515625 -10.15625 C 26.148438 -11.351562 26.679688 -12.691406 27.109375 -14.171875 C 27.460938 -15.304688 27.710938 -16.617188 27.859375 -18.109375 C 28.003906 -19.597656 28.097656 -21.109375 28.140625 -22.640625 C 28.203125 -24.179688 28.175781 -25.5625 28.0625 -26.78125 C 27.945312 -28.007812 27.859375 -28.984375 27.796875 -29.703125 C 27.765625 -30.421875 27.625 -30.957031 27.375 -31.3125 C 27.125 -31.675781 26.820312 -32.003906 26.46875 -32.296875 C 26.144531 -32.597656 25.882812 -32.882812 25.6875 -33.15625 C 25.488281 -33.4375 25.503906 -33.722656 25.734375 -34.015625 C 25.929688 -34.273438 26.257812 -34.421875 26.71875 -34.453125 C 27.175781 -34.484375 27.8125 -34.351562 28.625 -34.0625 C 28.945312 -33.9375 29.269531 -33.796875 29.59375 -33.640625 C 29.925781 -33.492188 30.273438 -33.242188 30.640625 -32.890625 C 31.453125 -32.234375 31.757812 -31.613281 31.5625 -31.03125 C 31.53125 -30.800781 31.488281 -30.503906 31.4375 -30.140625 C 31.394531 -29.785156 31.375 -29.476562 31.375 -29.21875 C 31.375 -28.65625 31.394531 -27.84375 31.4375 -26.78125 C 31.488281 -25.71875 31.515625 -24.4375 31.515625 -22.9375 C 31.515625 -21.4375 31.425781 -19.882812 31.25 -18.28125 C 31.070312 -16.675781 30.65625 -15.078125 30 -13.484375 C 29.375 -11.972656 28.742188 -10.6875 28.109375 -9.625 C 27.472656 -8.5625 26.648438 -7.507812 25.640625 -6.46875 C 24.691406 -5.457031 23.722656 -4.59375 22.734375 -3.875 C 21.753906 -3.15625 20.695312 -2.484375 19.5625 -1.859375 C 18.476562 -1.273438 17.257812 -0.753906 15.90625 -0.296875 C 14.550781 0.160156 13.285156 0.535156 12.109375 0.828125 C 11.328125 1.023438 10.882812 0.960938 10.78125 0.640625 Z M 19.703125 -30.25 C 20.066406 -29.851562 20.164062 -29.414062 20 -28.9375 C 19.832031 -28.46875 19.703125 -28.003906 19.609375 -27.546875 C 19.546875 -27.117188 19.519531 -26.4375 19.53125 -25.5 C 19.550781 -24.570312 19.578125 -23.441406 19.609375 -22.109375 C 19.609375 -20.734375 19.640625 -19.40625 19.703125 -18.125 C 19.765625 -16.851562 19.8125 -15.875 19.84375 -15.1875 C 19.914062 -14.507812 19.859375 -13.90625 19.671875 -13.375 C 19.492188 -12.851562 19.273438 -12.414062 19.015625 -12.0625 C 18.753906 -11.664062 18.457031 -11.472656 18.125 -11.484375 C 17.800781 -11.503906 17.523438 -11.613281 17.296875 -11.8125 C 17.109375 -12.039062 16.972656 -12.347656 16.890625 -12.734375 C 16.804688 -13.128906 16.78125 -13.753906 16.8125 -14.609375 C 16.875 -15.492188 16.921875 -16.554688 16.953125 -17.796875 C 16.992188 -19.035156 17.03125 -20.34375 17.0625 -21.71875 C 17.125 -23.125 17.144531 -24.222656 17.125 -25.015625 C 17.113281 -25.816406 17.109375 -26.613281 17.109375 -27.40625 C 17.109375 -28.15625 17.015625 -28.703125 16.828125 -29.046875 C 16.648438 -29.390625 16.367188 -29.722656 15.984375 -30.046875 C 15.648438 -30.304688 15.359375 -30.550781 15.109375 -30.78125 C 14.867188 -31.007812 14.800781 -31.253906 14.90625 -31.515625 C 15.03125 -31.941406 15.664062 -32.054688 16.8125 -31.859375 C 17.394531 -31.722656 17.941406 -31.523438 18.453125 -31.265625 C 18.960938 -31.003906 19.378906 -30.664062 19.703125 -30.25 Z M 19.703125 -30.25 "/></g></g></g><g fill="#000000" fill-opacity="1"><g transform="translate(637.550131, 43.463618)"><g><path d="M 41.03125 -31.171875 C 40.695312 -31.078125 40.285156 -31.109375 39.796875 -31.265625 C 39.304688 -31.429688 38.898438 -31.710938 38.578125 -32.109375 C 38.210938 -32.566406 37.800781 -32.941406 37.34375 -33.234375 C 36.882812 -33.523438 36.28125 -33.832031 35.53125 -34.15625 C 35.070312 -34.382812 34.925781 -34.679688 35.09375 -35.046875 C 35.15625 -35.171875 35.273438 -35.242188 35.453125 -35.265625 C 35.640625 -35.285156 35.796875 -35.296875 35.921875 -35.296875 C 36.742188 -35.296875 37.644531 -35.128906 38.625 -34.796875 C 39.144531 -34.671875 39.710938 -34.4375 40.328125 -34.09375 C 40.953125 -33.75 41.394531 -33.378906 41.65625 -32.984375 C 41.925781 -32.597656 41.976562 -32.234375 41.8125 -31.890625 C 41.644531 -31.546875 41.382812 -31.304688 41.03125 -31.171875 Z M 37.203125 -29.171875 C 36.835938 -29.066406 36.410156 -29.101562 35.921875 -29.28125 C 35.429688 -29.46875 35.007812 -29.738281 34.65625 -30.09375 C 33.96875 -30.78125 33.035156 -31.550781 31.859375 -32.40625 C 31.660156 -32.5 31.507812 -32.632812 31.40625 -32.8125 C 31.3125 -32.988281 31.332031 -33.144531 31.46875 -33.28125 C 31.53125 -33.414062 31.644531 -33.488281 31.8125 -33.5 C 31.976562 -33.519531 32.125 -33.53125 32.25 -33.53125 C 33.070312 -33.457031 33.972656 -33.242188 34.953125 -32.890625 C 35.441406 -32.722656 35.988281 -32.457031 36.59375 -32.09375 C 37.195312 -31.738281 37.613281 -31.347656 37.84375 -30.921875 C 38.101562 -30.503906 38.148438 -30.125 37.984375 -29.78125 C 37.816406 -29.4375 37.554688 -29.234375 37.203125 -29.171875 Z M 5.59375 -1.765625 C 5.226562 -1.628906 4.914062 -1.570312 4.65625 -1.59375 C 4.394531 -1.613281 4.234375 -1.71875 4.171875 -1.90625 C 4.140625 -2.070312 4.234375 -2.234375 4.453125 -2.390625 C 4.679688 -2.554688 4.910156 -2.707031 5.140625 -2.84375 C 6.191406 -3.300781 7.109375 -3.75 7.890625 -4.1875 C 8.671875 -4.632812 9.457031 -5.082031 10.25 -5.53125 C 11 -5.988281 11.789062 -6.546875 12.625 -7.203125 C 13.457031 -7.859375 14.394531 -8.644531 15.4375 -9.5625 C 16.488281 -10.507812 17.378906 -11.375 18.109375 -12.15625 C 18.847656 -12.9375 19.59375 -13.753906 20.34375 -14.609375 C 21.09375 -15.453125 21.914062 -16.492188 22.8125 -17.734375 C 23.71875 -18.984375 24.492188 -20.113281 25.140625 -21.125 C 25.796875 -22.164062 26.328125 -23.0625 26.734375 -23.8125 C 27.140625 -24.570312 27.410156 -25.242188 27.546875 -25.828125 C 27.710938 -26.421875 27.628906 -26.832031 27.296875 -27.0625 C 26.972656 -27.289062 26.453125 -27.304688 25.734375 -27.109375 C 25.273438 -26.972656 24.832031 -26.847656 24.40625 -26.734375 C 23.976562 -26.617188 23.34375 -26.460938 22.5 -26.265625 C 21.644531 -26.078125 20.882812 -25.929688 20.21875 -25.828125 C 19.550781 -25.734375 18.820312 -25.671875 18.03125 -25.640625 C 17.25 -25.609375 16.503906 -25.710938 15.796875 -25.953125 C 15.097656 -26.203125 14.519531 -26.503906 14.0625 -26.859375 C 13.476562 -27.347656 13.117188 -27.851562 12.984375 -28.375 C 12.859375 -28.90625 12.910156 -29.300781 13.140625 -29.5625 C 13.367188 -29.820312 13.675781 -29.957031 14.0625 -29.96875 C 14.457031 -29.988281 14.816406 -29.898438 15.140625 -29.703125 C 15.472656 -29.472656 15.84375 -29.269531 16.25 -29.09375 C 16.65625 -28.914062 17.070312 -28.773438 17.5 -28.671875 C 18.25 -28.503906 19.160156 -28.429688 20.234375 -28.453125 C 21.316406 -28.472656 22.414062 -28.578125 23.53125 -28.765625 C 24.675781 -28.960938 25.613281 -29.160156 26.34375 -29.359375 C 27.082031 -29.554688 27.613281 -29.71875 27.9375 -29.84375 C 28.257812 -30.007812 28.632812 -30.171875 29.0625 -30.328125 C 29.488281 -30.492188 29.960938 -30.445312 30.484375 -30.1875 C 31.003906 -29.925781 31.421875 -29.539062 31.734375 -29.03125 C 32.046875 -28.53125 32.25 -27.851562 32.34375 -27 C 32.445312 -26.125 32.359375 -25.441406 32.078125 -24.953125 C 31.796875 -24.460938 31.410156 -24.019531 30.921875 -23.625 C 30.535156 -23.332031 30.144531 -23 29.75 -22.625 C 29.363281 -22.25 28.875 -21.664062 28.28125 -20.875 C 27.757812 -20.1875 27.171875 -19.394531 26.515625 -18.5 C 25.859375 -17.601562 25.054688 -16.597656 24.109375 -15.484375 C 24.960938 -15.253906 25.851562 -14.957031 26.78125 -14.59375 C 27.71875 -14.238281 28.625 -13.785156 29.5 -13.234375 C 30.550781 -12.609375 31.4375 -11.941406 32.15625 -11.234375 C 32.875 -10.535156 33.476562 -9.894531 33.96875 -9.3125 C 34.289062 -8.914062 34.570312 -8.398438 34.8125 -7.765625 C 35.0625 -7.128906 35.175781 -6.515625 35.15625 -5.921875 C 35.144531 -5.335938 34.894531 -4.898438 34.40625 -4.609375 C 33.914062 -4.316406 33.425781 -4.257812 32.9375 -4.4375 C 32.445312 -4.613281 32.003906 -4.921875 31.609375 -5.359375 C 31.222656 -5.804688 30.898438 -6.242188 30.640625 -6.671875 C 30.273438 -7.359375 29.863281 -8.09375 29.40625 -8.875 C 28.945312 -9.65625 28.375 -10.472656 27.6875 -11.328125 C 27.070312 -12.140625 26.421875 -12.804688 25.734375 -13.328125 C 25.046875 -13.847656 24.273438 -14.304688 23.421875 -14.703125 C 23.390625 -14.671875 23.363281 -14.640625 23.34375 -14.609375 C 23.332031 -14.578125 23.3125 -14.546875 23.28125 -14.515625 C 22.101562 -13.203125 21.039062 -12.078125 20.09375 -11.140625 C 19.144531 -10.210938 18.179688 -9.328125 17.203125 -8.484375 C 16.191406 -7.628906 15.226562 -6.875 14.3125 -6.21875 C 13.394531 -5.570312 12.363281 -4.921875 11.21875 -4.265625 C 10.46875 -3.835938 9.550781 -3.378906 8.46875 -2.890625 C 7.394531 -2.398438 6.4375 -2.023438 5.59375 -1.765625 Z M 5.59375 -1.765625 "/></g></g></g><g fill="#000000" fill-opacity="1"><g transform="translate(686.560038, 43.463618)"><g><path d="M 30.53125 -15.046875 C 33.476562 -13.179688 35.570312 -11.285156 36.8125 -9.359375 C 37.300781 -8.609375 37.679688 -7.804688 37.953125 -6.953125 C 38.234375 -6.109375 38.332031 -5.359375 38.25 -4.703125 C 38.175781 -4.046875 37.8125 -3.625 37.15625 -3.4375 C 36.144531 -3.132812 35.335938 -3.429688 34.734375 -4.328125 C 34.128906 -5.234375 33.578125 -6.40625 33.078125 -7.84375 C 33.046875 -8.007812 32.988281 -8.179688 32.90625 -8.359375 C 32.832031 -8.535156 32.757812 -8.707031 32.6875 -8.875 C 32.164062 -8.738281 31.40625 -8.546875 30.40625 -8.296875 C 29.414062 -8.054688 28.410156 -7.8125 27.390625 -7.5625 C 26.378906 -7.320312 25.550781 -7.117188 24.90625 -6.953125 C 24.375 -6.828125 23.679688 -6.664062 22.828125 -6.46875 C 21.984375 -6.269531 21.101562 -6.0625 20.1875 -5.84375 C 19.28125 -5.632812 18.441406 -5.441406 17.671875 -5.265625 C 16.898438 -5.085938 16.320312 -4.96875 15.9375 -4.90625 C 15.113281 -4.769531 14.429688 -4.570312 13.890625 -4.3125 C 13.359375 -4.050781 12.765625 -3.578125 12.109375 -2.890625 C 11.484375 -2.265625 10.84375 -1.953125 10.1875 -1.953125 C 9.863281 -1.953125 9.429688 -2.054688 8.890625 -2.265625 C 8.359375 -2.484375 7.8125 -2.804688 7.25 -3.234375 C 6.726562 -3.691406 6.367188 -4.207031 6.171875 -4.78125 C 5.972656 -5.351562 5.894531 -5.816406 5.9375 -6.171875 C 6 -6.566406 6.222656 -6.785156 6.609375 -6.828125 C 7.003906 -6.878906 7.476562 -6.921875 8.03125 -6.953125 C 8.59375 -7.023438 9.066406 -7.3125 9.453125 -7.8125 C 9.847656 -8.320312 10.359375 -9.113281 10.984375 -10.1875 C 11.628906 -11.300781 12.242188 -12.40625 12.828125 -13.5 C 13.421875 -14.59375 14.160156 -15.894531 15.046875 -17.40625 C 15.640625 -18.445312 16.226562 -19.503906 16.8125 -20.578125 C 17.394531 -21.660156 17.914062 -22.660156 18.375 -23.578125 C 18.832031 -24.492188 19.160156 -25.226562 19.359375 -25.78125 C 19.679688 -26.632812 19.726562 -27.394531 19.5 -28.0625 C 19.28125 -28.726562 19.054688 -29.242188 18.828125 -29.609375 C 18.597656 -29.960938 18.40625 -30.296875 18.25 -30.609375 C 18.101562 -30.921875 18.144531 -31.140625 18.375 -31.265625 C 19.164062 -31.796875 20.226562 -31.585938 21.5625 -30.640625 C 22.019531 -30.304688 22.390625 -29.910156 22.671875 -29.453125 C 22.953125 -28.992188 23.125 -28.359375 23.1875 -27.546875 C 23.25 -27.023438 23.148438 -26.507812 22.890625 -26 C 22.628906 -25.5 22.269531 -24.953125 21.8125 -24.359375 C 21.613281 -24.066406 21.3125 -23.601562 20.90625 -22.96875 C 20.5 -22.332031 20.050781 -21.601562 19.5625 -20.78125 C 19.070312 -19.96875 18.578125 -19.160156 18.078125 -18.359375 C 17.585938 -17.554688 17.164062 -16.859375 16.8125 -16.265625 C 16.488281 -15.710938 16.0625 -15.003906 15.53125 -14.140625 C 15.007812 -13.273438 14.488281 -12.390625 13.96875 -11.484375 C 13.445312 -10.585938 12.988281 -9.804688 12.59375 -9.140625 C 12.207031 -8.472656 11.976562 -8.070312 11.90625 -7.9375 C 11.644531 -7.445312 11.757812 -7.203125 12.25 -7.203125 C 12.476562 -7.234375 12.878906 -7.28125 13.453125 -7.34375 C 14.023438 -7.414062 14.753906 -7.535156 15.640625 -7.703125 C 16.285156 -7.859375 17.144531 -8.023438 18.21875 -8.203125 C 19.300781 -8.390625 20.40625 -8.570312 21.53125 -8.75 C 22.664062 -8.925781 23.609375 -9.082031 24.359375 -9.21875 C 25.367188 -9.414062 26.5625 -9.644531 27.9375 -9.90625 C 29.3125 -10.164062 30.632812 -10.394531 31.90625 -10.59375 C 31.125 -11.988281 30.191406 -13.195312 29.109375 -14.21875 C 28.785156 -14.507812 28.539062 -14.785156 28.375 -15.046875 C 28.21875 -15.304688 28.203125 -15.503906 28.328125 -15.640625 C 28.617188 -15.960938 29.351562 -15.765625 30.53125 -15.046875 Z M 30.53125 -15.046875 "/></g></g></g></g></g></svg>