<svg xmlns="http://www.w3.org/2000/svg" xmlns:xlink="http://www.w3.org/1999/xlink" width="500" zoomAndPan="magnify" viewBox="0 0 375 112.499997" height="150" preserveAspectRatio="xMidYMid meet" version="1.0"><defs><g/><clipPath id="0e37a32b87"><path d="M 0.828125 18 L 209 18 L 209 78 L 0.828125 78 Z M 0.828125 18 " clip-rule="nonzero"/></clipPath><clipPath id="dbec063704"><rect x="0" width="209" y="0" height="60"/></clipPath><clipPath id="07ca7e933c"><rect x="0" width="295" y="0" height="68"/></clipPath></defs><g clip-path="url(#0e37a32b87)"><g transform="matrix(1, 0, 0, 1, 0.000000000000000111, 18)"><g clip-path="url(#dbec063704)"><g fill="#e0e2e4" fill-opacity="1"><g transform="translate(0.829651, 46.552697)"><g><path d="M 33.703125 0 L 25.125 0 L 21.953125 -16.765625 C 21.804688 -17.421875 21.675781 -18.210938 21.5625 -19.140625 C 21.445312 -20.066406 21.351562 -21 21.28125 -21.9375 C 21.21875 -22.882812 21.15625 -23.71875 21.09375 -24.4375 C 21.039062 -25.15625 21.015625 -25.613281 21.015625 -25.8125 L 20.921875 -25.8125 C 20.921875 -25.613281 20.890625 -25.15625 20.828125 -24.4375 C 20.773438 -23.71875 20.710938 -22.882812 20.640625 -21.9375 C 20.566406 -21 20.472656 -20.066406 20.359375 -19.140625 C 20.242188 -18.210938 20.117188 -17.421875 19.984375 -16.765625 L 16.9375 0 L 8.0625 0 L 0.90625 -33.4375 L 8.65625 -33.4375 L 11.875 -16.078125 C 12.019531 -15.335938 12.148438 -14.488281 12.265625 -13.53125 C 12.378906 -12.570312 12.460938 -11.601562 12.515625 -10.625 C 12.578125 -9.65625 12.609375 -8.769531 12.609375 -7.96875 L 12.78125 -7.96875 C 12.832031 -8.738281 12.894531 -9.601562 12.96875 -10.5625 C 13.039062 -11.519531 13.125 -12.476562 13.21875 -13.4375 C 13.320312 -14.394531 13.429688 -15.234375 13.546875 -15.953125 L 16.9375 -33.4375 L 25 -33.4375 L 28.640625 -16.125 C 28.753906 -15.550781 28.859375 -14.8125 28.953125 -13.90625 C 29.054688 -13.007812 29.148438 -12.0625 29.234375 -11.0625 C 29.328125 -10.0625 29.398438 -9.101562 29.453125 -8.1875 L 29.625 -8.1875 C 29.6875 -9.53125 29.785156 -10.941406 29.921875 -12.421875 C 30.066406 -13.910156 30.195312 -15.101562 30.3125 -16 L 33.265625 -33.4375 L 40.6875 -33.4375 Z M 33.703125 0 "/></g></g></g><g fill="#e0e2e4" fill-opacity="1"><g transform="translate(42.552217, 46.552697)"><g><path d="M 17.5 0.90625 C 14.40625 0.90625 11.703125 0.179688 9.390625 -1.265625 C 7.078125 -2.710938 5.273438 -4.753906 3.984375 -7.390625 C 2.703125 -10.035156 2.0625 -13.175781 2.0625 -16.8125 C 2.0625 -20.351562 2.703125 -23.4375 3.984375 -26.0625 C 5.273438 -28.695312 7.078125 -30.734375 9.390625 -32.171875 C 11.703125 -33.617188 14.40625 -34.34375 17.5 -34.34375 C 20.582031 -34.34375 23.273438 -33.613281 25.578125 -32.15625 C 27.878906 -30.695312 29.65625 -28.648438 30.90625 -26.015625 C 32.164062 -23.390625 32.796875 -20.320312 32.796875 -16.8125 C 32.796875 -13.175781 32.164062 -10.035156 30.90625 -7.390625 C 29.65625 -4.753906 27.878906 -2.710938 25.578125 -1.265625 C 23.273438 0.179688 20.582031 0.90625 17.5 0.90625 Z M 17.5 -5.828125 C 18.84375 -5.828125 20.0625 -6.253906 21.15625 -7.109375 C 22.257812 -7.972656 23.140625 -9.222656 23.796875 -10.859375 C 24.453125 -12.503906 24.78125 -14.488281 24.78125 -16.8125 C 24.78125 -20.289062 24.09375 -22.957031 22.71875 -24.8125 C 21.351562 -26.675781 19.613281 -27.609375 17.5 -27.609375 C 16.175781 -27.609375 14.953125 -27.191406 13.828125 -26.359375 C 12.703125 -25.535156 11.796875 -24.320312 11.109375 -22.71875 C 10.421875 -21.125 10.078125 -19.15625 10.078125 -16.8125 C 10.078125 -14.488281 10.394531 -12.503906 11.03125 -10.859375 C 11.675781 -9.222656 12.5625 -7.972656 13.6875 -7.109375 C 14.820312 -6.253906 16.09375 -5.828125 17.5 -5.828125 Z M 17.5 -5.828125 "/></g></g></g><g fill="#e0e2e4" fill-opacity="1"><g transform="translate(77.499692, 46.552697)"><g><path d="M 30.828125 0 L 21.046875 0 L 13.421875 -16 C 12.992188 -16.96875 12.570312 -18.035156 12.15625 -19.203125 C 11.738281 -20.378906 11.363281 -21.507812 11.03125 -22.59375 C 10.707031 -23.675781 10.460938 -24.5625 10.296875 -25.25 L 10.15625 -25.25 C 10.363281 -24.132812 10.546875 -22.785156 10.703125 -21.203125 C 10.859375 -19.617188 10.976562 -17.9375 11.0625 -16.15625 C 11.144531 -14.382812 11.1875 -12.6875 11.1875 -11.0625 L 11.1875 0 L 3.765625 0 L 3.765625 -33.4375 L 13.203125 -33.4375 L 20.875 -17.625 C 21.445312 -16.445312 21.984375 -15.226562 22.484375 -13.96875 C 22.984375 -12.71875 23.394531 -11.59375 23.71875 -10.59375 C 24.050781 -9.59375 24.25 -8.890625 24.3125 -8.484375 L 24.53125 -8.484375 C 24.269531 -9.890625 24.0625 -11.40625 23.90625 -13.03125 C 23.75 -14.664062 23.625 -16.253906 23.53125 -17.796875 C 23.445312 -19.335938 23.40625 -20.664062 23.40625 -21.78125 L 23.40625 -33.4375 L 30.828125 -33.4375 Z M 30.828125 0 "/></g></g></g><g fill="#e0e2e4" fill-opacity="1"><g transform="translate(112.104119, 46.552697)"><g><path d="M 16.8125 0 L 3.765625 0 L 3.765625 -33.4375 L 16.71875 -33.4375 C 19.78125 -33.4375 22.492188 -32.757812 24.859375 -31.40625 C 27.234375 -30.050781 29.09375 -28.117188 30.4375 -25.609375 C 31.78125 -23.109375 32.453125 -20.144531 32.453125 -16.71875 C 32.453125 -13.257812 31.785156 -10.28125 30.453125 -7.78125 C 29.128906 -5.28125 27.296875 -3.359375 24.953125 -2.015625 C 22.609375 -0.671875 19.894531 0 16.8125 0 Z M 11.65625 -6.640625 L 16 -6.640625 C 18.507812 -6.640625 20.554688 -7.507812 22.140625 -9.25 C 23.734375 -11 24.53125 -13.488281 24.53125 -16.71875 C 24.53125 -18.945312 24.15625 -20.8125 23.40625 -22.3125 C 22.664062 -23.8125 21.644531 -24.929688 20.34375 -25.671875 C 19.039062 -26.421875 17.5625 -26.796875 15.90625 -26.796875 L 11.65625 -26.796875 Z M 11.65625 -6.640625 "/></g></g></g><g fill="#e0e2e4" fill-opacity="1"><g transform="translate(146.622788, 46.552697)"><g><path d="M 27.78125 0 L 3.765625 0 L 3.765625 -33.4375 L 26.921875 -33.4375 L 26.921875 -26.921875 L 11.578125 -26.921875 L 11.578125 -20.328125 L 24.734375 -20.328125 L 24.734375 -13.9375 L 11.578125 -13.9375 L 11.578125 -6.515625 L 27.78125 -6.515625 Z M 27.78125 0 "/></g></g></g><g fill="#e0e2e4" fill-opacity="1"><g transform="translate(176.167338, 46.552697)"><g><path d="M 31 0 L 21.734375 0 L 15.828125 -12.859375 L 11.453125 -12.859375 L 11.453125 0 L 3.765625 0 L 3.765625 -33.4375 L 17.921875 -33.4375 C 20.066406 -33.4375 21.953125 -33.019531 23.578125 -32.1875 C 25.210938 -31.363281 26.484375 -30.21875 27.390625 -28.75 C 28.304688 -27.28125 28.765625 -25.539062 28.765625 -23.53125 C 28.765625 -20.9375 28.269531 -18.898438 27.28125 -17.421875 C 26.300781 -15.953125 24.894531 -14.890625 23.0625 -14.234375 Z M 11.484375 -19 L 16.5 -19 C 17.820312 -19 18.875 -19.363281 19.65625 -20.09375 C 20.445312 -20.820312 20.84375 -21.84375 20.84375 -23.15625 C 20.84375 -24.351562 20.429688 -25.28125 19.609375 -25.9375 C 18.796875 -26.59375 17.75 -26.921875 16.46875 -26.921875 L 11.484375 -26.921875 Z M 11.484375 -19 "/></g></g></g></g></g></g><g transform="matrix(1, 0, 0, 1, 40, 28)"><g clip-path="url(#07ca7e933c)"><g fill="#000000" fill-opacity="1"><g transform="translate(0.470178, 52.402171)"><g><path d="M 31.078125 -10.4375 L 32.25 -10 L 32.25 -7.015625 C 32.25 -4.753906 32.394531 -3.28125 32.6875 -2.59375 C 32.882812 -2.101562 33.3125 -1.859375 33.96875 -1.859375 C 33.90625 -0.453125 33.285156 0.410156 32.109375 0.734375 C 31.648438 0.867188 30.765625 0.96875 29.453125 1.03125 C 28.148438 1.09375 26.4375 1.125 24.3125 1.125 C 19.375 1.125 16.582031 0.863281 15.9375 0.34375 C 15.3125 -0.144531 15 -1.046875 15 -2.359375 L 15 -25.828125 C 18.070312 -25.734375 19.609375 -25.328125 19.609375 -24.609375 C 19.609375 -24.210938 18.96875 -23.816406 17.6875 -23.421875 L 17.6875 -3.09375 C 17.6875 -2.175781 17.914062 -1.648438 18.375 -1.515625 C 18.90625 -1.285156 20.640625 -1.171875 23.578125 -1.171875 C 25.109375 -1.171875 26.320312 -1.203125 27.21875 -1.265625 C 28.125 -1.335938 28.691406 -1.421875 28.921875 -1.515625 C 29.898438 -2.003906 30.617188 -4.976562 31.078125 -10.4375 Z M 30.875 -21.21875 L 31.609375 -22.0625 C 34.972656 -19.28125 37.585938 -16.46875 39.453125 -13.625 C 40.171875 -12.582031 40.71875 -11.625 41.09375 -10.75 C 41.46875 -9.882812 41.65625 -9.113281 41.65625 -8.4375 C 41.65625 -7.0625 41.085938 -6.375 39.953125 -6.375 C 39.191406 -6.375 38.617188 -7.078125 38.234375 -8.484375 C 37.054688 -12.734375 34.601562 -16.976562 30.875 -21.21875 Z M 8.671875 -21.03125 L 9.796875 -20.734375 C 9.796875 -20.503906 9.796875 -20.296875 9.796875 -20.109375 C 9.796875 -19.929688 9.796875 -19.78125 9.796875 -19.65625 C 9.796875 -14.457031 9.015625 -10.335938 7.453125 -7.296875 C 6.335938 -5.109375 5.128906 -4.015625 3.828125 -4.015625 C 2.773438 -4.015625 2.25 -4.503906 2.25 -5.484375 C 2.25 -6.078125 2.707031 -6.78125 3.625 -7.59375 C 6.269531 -9.976562 7.953125 -14.457031 8.671875 -21.03125 Z M 14.90625 -34.15625 L 15.390625 -35.046875 C 17.148438 -34.390625 18.773438 -33.6875 20.265625 -32.9375 C 21.753906 -32.1875 23.085938 -31.367188 24.265625 -30.484375 C 26.316406 -28.984375 27.34375 -27.546875 27.34375 -26.171875 C 27.34375 -25.128906 26.820312 -24.609375 25.78125 -24.609375 C 25.257812 -24.609375 24.671875 -25.097656 24.015625 -26.078125 C 23.097656 -27.515625 21.878906 -28.910156 20.359375 -30.265625 C 18.847656 -31.617188 17.03125 -32.914062 14.90625 -34.15625 Z M 14.90625 -34.15625 "/></g></g></g><g fill="#000000" fill-opacity="1"><g transform="translate(49.480111, 52.402171)"><g><path d="M 22.15625 -16.078125 L 22.15625 -10.046875 L 28.375 -10.046875 L 28.375 -16.078125 Z M 28.375 -17.15625 L 28.375 -22.9375 L 22.15625 -22.9375 L 22.15625 -17.15625 Z M 30.78125 -17.15625 L 37.453125 -17.15625 L 37.453125 -22.9375 L 30.78125 -22.9375 Z M 37.453125 -10.046875 L 37.453125 -16.078125 L 30.78125 -16.078125 L 30.78125 -10.046875 Z M 22.6875 -24.015625 L 30.734375 -24.015625 C 30.441406 -24.179688 30.097656 -24.570312 29.703125 -25.1875 C 28.523438 -26.957031 26.546875 -28.507812 23.765625 -29.84375 L 24.21875 -30.78125 C 26.4375 -30.195312 28.394531 -29.378906 30.09375 -28.328125 C 31.039062 -29.015625 31.914062 -29.707031 32.71875 -30.40625 C 33.519531 -31.113281 34.265625 -31.828125 34.953125 -32.546875 L 20.53125 -32.546875 L 20.09375 -33.671875 L 35 -33.671875 L 36.5625 -35.53125 C 38.519531 -34 39.5 -32.988281 39.5 -32.5 C 39.5 -32.269531 39.269531 -32.085938 38.8125 -31.953125 L 37.59375 -31.65625 C 36.582031 -30.9375 35.535156 -30.226562 34.453125 -29.53125 C 33.378906 -28.832031 32.269531 -28.171875 31.125 -27.546875 C 32.007812 -26.765625 32.453125 -26.046875 32.453125 -25.390625 C 32.453125 -24.835938 32.125 -24.378906 31.46875 -24.015625 L 37.109375 -24.015625 L 38.578125 -25.875 C 40.441406 -24.46875 41.375 -23.554688 41.375 -23.140625 C 41.375 -22.972656 41.257812 -22.820312 41.03125 -22.6875 L 39.90625 -22.015625 L 39.90625 -0.59375 C 39.90625 1.664062 38.597656 2.796875 35.984375 2.796875 C 35.984375 1.878906 35.640625 1.257812 34.953125 0.9375 C 34.421875 0.675781 33.535156 0.445312 32.296875 0.25 L 32.296875 -0.984375 C 33.671875 -0.785156 34.878906 -0.6875 35.921875 -0.6875 C 36.941406 -0.6875 37.453125 -1.078125 37.453125 -1.859375 L 37.453125 -8.96875 L 30.78125 -8.96875 L 30.78125 2.109375 L 28.375 2.109375 L 28.375 -8.96875 L 22.15625 -8.96875 L 22.15625 3.1875 L 19.65625 3.1875 L 19.65625 -25.09375 C 20.082031 -24.96875 20.546875 -24.8125 21.046875 -24.625 C 21.554688 -24.445312 22.101562 -24.242188 22.6875 -24.015625 Z M 14.5625 -32.5 L 7.109375 -32.5 L 7.109375 -22.84375 L 14.5625 -22.84375 Z M 7.546875 -33.625 L 14.109375 -33.625 L 15.6875 -35.734375 C 17.382812 -34.359375 18.234375 -33.472656 18.234375 -33.078125 C 18.234375 -32.953125 18.148438 -32.84375 17.984375 -32.75 L 16.90625 -32 L 16.90625 -20.046875 L 14.5625 -20.046875 L 14.5625 -21.765625 L 12.453125 -21.765625 L 12.453125 -14.359375 L 14.21875 -14.359375 L 15.9375 -16.8125 C 15.96875 -16.78125 16.03125 -16.691406 16.125 -16.546875 C 16.21875 -16.398438 16.378906 -16.195312 16.609375 -15.9375 C 16.742188 -15.769531 16.914062 -15.535156 17.125 -15.234375 C 17.34375 -14.941406 17.597656 -14.566406 17.890625 -14.109375 L 17.453125 -13.28125 L 12.453125 -13.28125 L 12.453125 -3.921875 C 13.785156 -4.316406 15.5 -4.851562 17.59375 -5.53125 L 17.890625 -4.453125 C 16.054688 -3.640625 14.03125 -2.789062 11.8125 -1.90625 C 9.59375 -1.03125 7.175781 -0.148438 4.5625 0.734375 C 4.332031 1.847656 4.019531 2.40625 3.625 2.40625 C 3.007812 2.40625 2.359375 1.097656 1.671875 -1.515625 C 1.734375 -1.515625 2.007812 -1.5625 2.5 -1.65625 C 2.988281 -1.757812 3.707031 -1.894531 4.65625 -2.0625 L 4.65625 -16.515625 C 7.332031 -16.285156 8.671875 -15.878906 8.671875 -15.296875 C 8.671875 -14.960938 8.132812 -14.617188 7.0625 -14.265625 L 7.0625 -2.59375 L 7.75 -2.796875 C 8.4375 -2.953125 8.972656 -3.070312 9.359375 -3.15625 C 9.753906 -3.238281 9.96875 -3.28125 10 -3.28125 L 10 -21.765625 L 7.109375 -21.765625 L 7.109375 -19.609375 L 4.703125 -19.609375 L 4.703125 -35.046875 C 5.160156 -34.878906 5.617188 -34.671875 6.078125 -34.421875 C 6.535156 -34.179688 7.023438 -33.914062 7.546875 -33.625 Z M 7.546875 -33.625 "/></g></g></g><g fill="#000000" fill-opacity="1"><g transform="translate(98.490044, 52.402171)"><g><path d="M 36.375 -11.28125 C 36.5 -9.9375 36.378906 -8.75 36.015625 -7.71875 C 35.660156 -6.6875 35.0625 -5.695312 34.21875 -4.75 C 33.300781 -3.738281 32.296875 -2.921875 31.203125 -2.296875 C 30.109375 -1.679688 28.9375 -1.207031 27.6875 -0.875 C 26.445312 -0.550781 25.195312 -0.394531 23.9375 -0.40625 C 22.6875 -0.425781 21.320312 -0.566406 19.84375 -0.828125 C 18.34375 -1.160156 17.273438 -1.585938 16.640625 -2.109375 C 16.003906 -2.628906 15.6875 -3.25 15.6875 -3.96875 C 15.65625 -4.71875 16.019531 -5.363281 16.78125 -5.90625 C 17.550781 -6.445312 18.347656 -6.78125 19.171875 -6.90625 C 20.015625 -7.070312 20.894531 -7.101562 21.8125 -7 C 22.726562 -6.90625 23.546875 -6.566406 24.265625 -5.984375 C 24.921875 -5.460938 25.265625 -4.914062 25.296875 -4.34375 C 25.328125 -3.769531 25.195312 -3.1875 24.90625 -2.59375 C 26.082031 -2.757812 27.195312 -3.019531 28.25 -3.375 C 29.3125 -3.738281 30.238281 -4.234375 31.03125 -4.859375 C 31.976562 -5.640625 32.679688 -6.5625 33.140625 -7.625 C 33.597656 -8.6875 33.828125 -9.769531 33.828125 -10.875 C 33.859375 -12.019531 33.476562 -13.1875 32.6875 -14.375 C 31.90625 -15.570312 30.828125 -16.484375 29.453125 -17.109375 C 26.710938 -18.285156 23.804688 -18.382812 20.734375 -17.40625 C 19.203125 -16.914062 17.921875 -16.289062 16.890625 -15.53125 C 15.859375 -14.78125 14.96875 -13.914062 14.21875 -12.9375 C 13.5 -11.988281 12.875 -11 12.34375 -9.96875 C 11.820312 -8.945312 11.46875 -8.109375 11.28125 -7.453125 C 10.914062 -6.242188 10.421875 -5.472656 9.796875 -5.140625 C 9.671875 -5.078125 9.46875 -5.019531 9.1875 -4.96875 C 8.914062 -4.925781 8.582031 -5.066406 8.1875 -5.390625 C 7.925781 -5.617188 7.757812 -5.953125 7.6875 -6.390625 C 7.625 -6.835938 7.609375 -7.222656 7.640625 -7.546875 C 7.679688 -7.867188 7.945312 -8.363281 8.4375 -9.03125 C 8.925781 -9.707031 9.378906 -10.320312 9.796875 -10.875 C 10.253906 -11.46875 10.8125 -12.1875 11.46875 -13.03125 C 12.125 -13.882812 12.859375 -14.769531 13.671875 -15.6875 C 14.234375 -16.300781 14.863281 -17.015625 15.5625 -17.828125 C 16.257812 -18.648438 16.925781 -19.445312 17.5625 -20.21875 C 18.207031 -20.988281 18.707031 -21.566406 19.0625 -21.953125 C 19.320312 -22.285156 19.695312 -22.742188 20.1875 -23.328125 C 20.675781 -23.921875 21.191406 -24.539062 21.734375 -25.1875 C 22.273438 -25.84375 22.757812 -26.429688 23.1875 -26.953125 C 23.613281 -27.484375 23.890625 -27.84375 24.015625 -28.03125 C 24.609375 -28.789062 24.789062 -29.265625 24.5625 -29.453125 C 24.425781 -29.585938 24.191406 -29.597656 23.859375 -29.484375 C 23.535156 -29.367188 23.242188 -29.226562 22.984375 -29.0625 C 22.828125 -28.96875 22.484375 -28.765625 21.953125 -28.453125 C 21.429688 -28.140625 20.867188 -27.800781 20.265625 -27.4375 C 19.660156 -27.082031 19.128906 -26.773438 18.671875 -26.515625 C 17.953125 -26.160156 17.316406 -25.890625 16.765625 -25.703125 C 16.210938 -25.523438 15.625 -25.4375 15 -25.4375 C 14.375 -25.4375 13.859375 -25.554688 13.453125 -25.796875 C 13.046875 -26.046875 12.710938 -26.285156 12.453125 -26.515625 C 12.222656 -26.773438 12.054688 -27.0625 11.953125 -27.375 C 11.859375 -27.6875 11.84375 -27.921875 11.90625 -28.078125 C 12.007812 -28.347656 12.164062 -28.5 12.375 -28.53125 C 12.582031 -28.5625 12.785156 -28.546875 12.984375 -28.484375 C 13.210938 -28.441406 13.46875 -28.378906 13.75 -28.296875 C 14.03125 -28.222656 14.332031 -28.1875 14.65625 -28.1875 C 14.976562 -28.15625 15.328125 -28.175781 15.703125 -28.25 C 16.078125 -28.332031 16.644531 -28.539062 17.40625 -28.875 C 18.15625 -29.164062 18.984375 -29.53125 19.890625 -29.96875 C 20.804688 -30.414062 21.675781 -30.847656 22.5 -31.265625 C 23.34375 -31.722656 24.039062 -32.09375 24.59375 -32.375 C 25.15625 -32.65625 25.664062 -32.8125 26.125 -32.84375 C 26.613281 -32.875 27.085938 -32.757812 27.546875 -32.5 C 28.003906 -32.238281 28.394531 -31.925781 28.71875 -31.5625 C 29.050781 -31.238281 29.25 -30.953125 29.3125 -30.703125 C 29.375 -30.460938 29.375 -30.226562 29.3125 -30 C 29.25 -29.632812 28.90625 -29.257812 28.28125 -28.875 C 27.957031 -28.675781 27.457031 -28.289062 26.78125 -27.71875 C 26.113281 -27.144531 25.453125 -26.53125 24.796875 -25.875 C 24.148438 -25.1875 23.445312 -24.398438 22.6875 -23.515625 C 21.9375 -22.640625 21.269531 -21.875 20.6875 -21.21875 C 20.6875 -21.21875 20.390625 -20.90625 19.796875 -20.28125 C 19.210938 -19.664062 18.347656 -18.753906 17.203125 -17.546875 C 17.566406 -17.804688 17.941406 -18.039062 18.328125 -18.25 C 18.722656 -18.46875 19.25 -18.691406 19.90625 -18.921875 C 20.851562 -19.273438 21.847656 -19.535156 22.890625 -19.703125 C 23.929688 -19.867188 25.078125 -19.882812 26.328125 -19.75 C 27.597656 -19.625 28.765625 -19.363281 29.828125 -18.96875 C 30.890625 -18.570312 31.878906 -18.050781 32.796875 -17.40625 C 33.742188 -16.75 34.539062 -15.921875 35.1875 -14.921875 C 35.84375 -13.929688 36.238281 -12.71875 36.375 -11.28125 Z M 21.90625 -2.5 C 22.5625 -3.082031 22.847656 -3.601562 22.765625 -4.0625 C 22.679688 -4.519531 22.382812 -4.878906 21.875 -5.140625 C 21.375 -5.398438 20.78125 -5.53125 20.09375 -5.53125 C 19.3125 -5.5 18.722656 -5.285156 18.328125 -4.890625 C 17.941406 -4.503906 17.910156 -4.066406 18.234375 -3.578125 C 18.429688 -3.316406 18.835938 -3.078125 19.453125 -2.859375 C 20.078125 -2.648438 20.894531 -2.53125 21.90625 -2.5 Z M 21.90625 -2.5 "/></g></g></g><g fill="#000000" fill-opacity="1"><g transform="translate(147.499978, 52.402171)"><g><path d="M 40.78125 -26.21875 L 27.6875 -26.21875 L 27.6875 -19.109375 L 34.40625 -19.109375 L 36.765625 -22.015625 C 37.378906 -21.421875 37.929688 -20.863281 38.421875 -20.34375 C 38.910156 -19.820312 39.320312 -19.332031 39.65625 -18.875 L 39.265625 -17.984375 L 27.6875 -17.984375 L 27.6875 -9.90625 L 36.125 -9.90625 L 38.625 -13.03125 C 39.769531 -12.082031 40.847656 -10.972656 41.859375 -9.703125 L 41.375 -8.828125 L 27.6875 -8.828125 L 27.6875 2.546875 L 25 2.546875 L 25 -36.21875 C 28 -36.15625 29.5 -35.765625 29.5 -35.046875 C 29.5 -34.648438 28.894531 -34.242188 27.6875 -33.828125 L 27.6875 -27.34375 L 35.828125 -27.34375 L 38.03125 -30.34375 C 39.28125 -29.257812 40.34375 -28.195312 41.21875 -27.15625 Z M 3.09375 -27.34375 L 15.390625 -27.34375 L 15.390625 -36.03125 C 18.460938 -35.957031 20 -35.597656 20 -34.953125 C 20 -34.585938 19.363281 -34.160156 18.09375 -33.671875 L 18.09375 -14.515625 C 18.09375 -14.378906 18.09375 -14.144531 18.09375 -13.8125 C 18.09375 -13.488281 18.054688 -13.082031 17.984375 -12.59375 C 18.472656 -12.757812 19.132812 -12.972656 19.96875 -13.234375 C 20.800781 -13.492188 21.820312 -13.785156 23.03125 -14.109375 L 23.328125 -12.984375 C 22.378906 -12.597656 21.445312 -12.234375 20.53125 -11.890625 C 19.625 -11.546875 18.710938 -11.191406 17.796875 -10.828125 C 16.515625 -4.003906 12.019531 0.679688 4.3125 3.234375 L 3.671875 2.203125 C 9.722656 -0.410156 13.453125 -4.429688 14.859375 -9.859375 C 12.890625 -9.234375 11.101562 -8.679688 9.5 -8.203125 C 7.90625 -7.734375 6.503906 -7.335938 5.296875 -7.015625 C 5.066406 -5.835938 4.753906 -5.25 4.359375 -5.25 C 3.835938 -5.25 3.1875 -6.570312 2.40625 -9.21875 C 7.175781 -9.90625 11.4375 -10.785156 15.1875 -11.859375 C 15.257812 -12.222656 15.3125 -12.613281 15.34375 -13.03125 C 15.375 -13.457031 15.390625 -13.898438 15.390625 -14.359375 L 15.390625 -17.984375 L 4.5625 -17.984375 L 4.0625 -19.109375 L 15.390625 -19.109375 L 15.390625 -26.21875 L 3.484375 -26.21875 Z M 3.09375 -27.34375 "/></g></g></g><g fill="#000000" fill-opacity="1"><g transform="translate(196.509911, 52.402171)"><g><path d="M 11.71875 -3.03125 L 31.90625 -3.03125 L 31.90625 -16.90625 L 11.71875 -16.90625 Z M 31.90625 -30.921875 L 11.71875 -30.921875 L 11.71875 -17.984375 L 31.90625 -17.984375 Z M 12.203125 -32 L 31.46875 -32 L 33.28125 -34.265625 C 35.207031 -32.722656 36.171875 -31.722656 36.171875 -31.265625 C 36.171875 -31.078125 36.054688 -30.898438 35.828125 -30.734375 L 34.609375 -29.953125 L 34.609375 1.421875 L 31.90625 1.421875 L 31.90625 -1.953125 L 11.71875 -1.953125 L 11.71875 1.859375 L 8.96875 1.859375 L 8.96875 -33.671875 C 9.332031 -33.503906 9.78125 -33.28125 10.3125 -33 C 10.851562 -32.726562 11.484375 -32.394531 12.203125 -32 Z M 12.203125 -32 "/></g></g></g><g fill="#000000" fill-opacity="1"><g transform="translate(245.519853, 52.402171)"><g><path d="M 9.109375 -34.75 L 9.703125 -35.53125 C 13.753906 -34.125 15.78125 -32.410156 15.78125 -30.390625 C 15.78125 -29.179688 15.222656 -28.578125 14.109375 -28.578125 C 13.429688 -28.578125 12.957031 -29.050781 12.6875 -30 C 12.332031 -31.632812 11.140625 -33.21875 9.109375 -34.75 Z M 29.75 -22.453125 L 13.875 -22.453125 L 13.875 -17.0625 L 29.75 -17.0625 Z M 14.171875 -23.578125 L 29.5 -23.578125 L 31.03125 -25.296875 C 32.757812 -24.015625 33.625 -23.195312 33.625 -22.84375 C 33.625 -22.707031 33.492188 -22.507812 33.234375 -22.25 L 32.25 -21.515625 L 32.25 -14.3125 L 29.75 -14.3125 L 29.75 -15.984375 L 23.1875 -15.984375 L 23.1875 -11.28125 L 33.375 -11.28125 L 35.046875 -13.140625 C 36.804688 -11.765625 37.6875 -10.914062 37.6875 -10.59375 C 37.6875 -10.394531 37.554688 -10.210938 37.296875 -10.046875 L 36.328125 -9.359375 L 36.328125 -3.03125 C 36.328125 -0.914062 34.882812 0.191406 32 0.296875 C 31.9375 -0.484375 31.445312 -1.039062 30.53125 -1.375 C 29.75 -1.632812 28.410156 -1.910156 26.515625 -2.203125 L 26.515625 -3.328125 C 27.660156 -3.203125 28.710938 -3.113281 29.671875 -3.0625 C 30.640625 -3.007812 31.515625 -2.984375 32.296875 -2.984375 C 33.242188 -2.984375 33.71875 -3.394531 33.71875 -4.21875 L 33.71875 -10.1875 L 23.1875 -10.1875 L 23.1875 3.1875 L 20.59375 3.1875 L 20.59375 -10.1875 L 10.484375 -10.1875 L 10.484375 0.484375 L 7.9375 0.484375 L 7.9375 -12.453125 L 8.578125 -12.203125 C 9.066406 -12.078125 9.5 -11.929688 9.875 -11.765625 C 10.25 -11.597656 10.566406 -11.4375 10.828125 -11.28125 L 20.59375 -11.28125 L 20.59375 -15.984375 L 13.875 -15.984375 L 13.875 -14.171875 L 11.375 -14.171875 L 11.375 -24.65625 C 11.988281 -24.425781 12.523438 -24.226562 12.984375 -24.0625 C 13.441406 -23.90625 13.835938 -23.742188 14.171875 -23.578125 Z M 23.140625 -28.53125 L 27.796875 -28.53125 C 28.484375 -29.675781 29.117188 -30.867188 29.703125 -32.109375 C 30.285156 -33.347656 30.84375 -34.640625 31.375 -35.984375 C 33.988281 -34.992188 35.296875 -34.191406 35.296875 -33.578125 C 35.296875 -33.179688 34.65625 -32.953125 33.375 -32.890625 C 32.851562 -32.203125 32.253906 -31.5 31.578125 -30.78125 C 30.910156 -30.0625 30.1875 -29.3125 29.40625 -28.53125 L 37.25 -28.53125 L 38.8125 -30.53125 C 39.832031 -29.550781 40.601562 -28.75 41.125 -28.125 C 41.644531 -27.507812 41.90625 -27.054688 41.90625 -26.765625 C 41.90625 -26.566406 41.726562 -26.421875 41.375 -26.328125 L 39.84375 -26.078125 C 38.9375 -25.160156 38.15625 -24.398438 37.5 -23.796875 C 36.84375 -23.191406 36.300781 -22.707031 35.875 -22.34375 L 35.046875 -22.984375 C 36.085938 -24.679688 36.820312 -26.171875 37.25 -27.453125 L 7.75 -27.453125 C 7.675781 -25.296875 7.316406 -23.53125 6.671875 -22.15625 C 6.015625 -20.8125 5.242188 -20.140625 4.359375 -20.140625 C 3.285156 -20.140625 2.75 -20.648438 2.75 -21.671875 C 2.75 -22.085938 2.941406 -22.539062 3.328125 -23.03125 C 5.160156 -25.0625 6.175781 -27.515625 6.375 -30.390625 L 7.546875 -30.1875 C 7.546875 -30.03125 7.597656 -29.476562 7.703125 -28.53125 L 20.640625 -28.53125 L 20.640625 -36.8125 C 23.515625 -36.675781 24.953125 -36.332031 24.953125 -35.78125 C 24.953125 -35.414062 24.347656 -35.023438 23.140625 -34.609375 Z M 23.140625 -28.53125 "/></g></g></g></g></g></svg>