<svg xmlns="http://www.w3.org/2000/svg" xmlns:xlink="http://www.w3.org/1999/xlink" width="500" zoomAndPan="magnify" viewBox="0 0 375 112.499997" height="150" preserveAspectRatio="xMidYMid meet" version="1.0"><defs><g/><clipPath id="f11d3082d2"><path d="M 0.828125 18 L 256 18 L 256 78 L 0.828125 78 Z M 0.828125 18 " clip-rule="nonzero"/></clipPath><clipPath id="48f9fbb022"><rect x="0" width="256" y="0" height="60"/></clipPath><clipPath id="17fe9d2e48"><rect x="0" width="295" y="0" height="68"/></clipPath></defs><g clip-path="url(#f11d3082d2)"><g transform="matrix(1, 0, 0, 1, 0.000000000000000111, 18)"><g clip-path="url(#48f9fbb022)"><g fill="#e0e2e4" fill-opacity="1"><g transform="translate(0.829651, 46.552697)"><g><path d="M 17.53125 0 L 9.5625 0 L 9.5625 -26.921875 L 0.6875 -26.921875 L 0.6875 -33.4375 L 26.453125 -33.4375 L 26.453125 -26.921875 L 17.53125 -26.921875 Z M 17.53125 0 "/></g></g></g><g fill="#e0e2e4" fill-opacity="1"><g transform="translate(27.9729, 46.552697)"><g><path d="M 31 0 L 21.734375 0 L 15.828125 -12.859375 L 11.453125 -12.859375 L 11.453125 0 L 3.765625 0 L 3.765625 -33.4375 L 17.921875 -33.4375 C 20.066406 -33.4375 21.953125 -33.019531 23.578125 -32.1875 C 25.210938 -31.363281 26.484375 -30.21875 27.390625 -28.75 C 28.304688 -27.28125 28.765625 -25.539062 28.765625 -23.53125 C 28.765625 -20.9375 28.269531 -18.898438 27.28125 -17.421875 C 26.300781 -15.953125 24.894531 -14.890625 23.0625 -14.234375 Z M 11.484375 -19 L 16.5 -19 C 17.820312 -19 18.875 -19.363281 19.65625 -20.09375 C 20.445312 -20.820312 20.84375 -21.84375 20.84375 -23.15625 C 20.84375 -24.351562 20.429688 -25.28125 19.609375 -25.9375 C 18.796875 -26.59375 17.75 -26.921875 16.46875 -26.921875 L 11.484375 -26.921875 Z M 11.484375 -19 "/></g></g></g><g fill="#e0e2e4" fill-opacity="1"><g transform="translate(59.618586, 46.552697)"><g><path d="M 32.234375 0 L 24.3125 0 L 21.734375 -7.84375 L 10.421875 -7.84375 L 7.765625 0 L -0.046875 0 L 11.140625 -33.4375 L 21.09375 -33.4375 Z M 12.515625 -14.40625 L 19.59375 -14.40625 C 19.445312 -14.863281 19.21875 -15.5625 18.90625 -16.5 C 18.59375 -17.445312 18.25 -18.5 17.875 -19.65625 C 17.507812 -20.8125 17.164062 -21.945312 16.84375 -23.0625 C 16.53125 -24.175781 16.300781 -25.132812 16.15625 -25.9375 L 15.90625 -25.9375 C 15.789062 -25.132812 15.578125 -24.175781 15.265625 -23.0625 C 14.953125 -21.945312 14.609375 -20.8125 14.234375 -19.65625 C 13.859375 -18.5 13.515625 -17.445312 13.203125 -16.5 C 12.890625 -15.5625 12.660156 -14.863281 12.515625 -14.40625 Z M 12.515625 -14.40625 "/></g></g></g><g fill="#e0e2e4" fill-opacity="1"><g transform="translate(91.864594, 46.552697)"><g><path d="M 16.8125 0 L 3.765625 0 L 3.765625 -33.4375 L 16.71875 -33.4375 C 19.78125 -33.4375 22.492188 -32.757812 24.859375 -31.40625 C 27.234375 -30.050781 29.09375 -28.117188 30.4375 -25.609375 C 31.78125 -23.109375 32.453125 -20.144531 32.453125 -16.71875 C 32.453125 -13.257812 31.785156 -10.28125 30.453125 -7.78125 C 29.128906 -5.28125 27.296875 -3.359375 24.953125 -2.015625 C 22.609375 -0.671875 19.894531 0 16.8125 0 Z M 11.65625 -6.640625 L 16 -6.640625 C 18.507812 -6.640625 20.554688 -7.507812 22.140625 -9.25 C 23.734375 -11 24.53125 -13.488281 24.53125 -16.71875 C 24.53125 -18.945312 24.15625 -20.8125 23.40625 -22.3125 C 22.664062 -23.8125 21.644531 -24.929688 20.34375 -25.671875 C 19.039062 -26.421875 17.5625 -26.796875 15.90625 -26.796875 L 11.65625 -26.796875 Z M 11.65625 -6.640625 "/></g></g></g><g fill="#e0e2e4" fill-opacity="1"><g transform="translate(126.383264, 46.552697)"><g><path d="M 12 0 L 3.9375 0 L 3.9375 -33.4375 L 12 -33.4375 Z M 12 0 "/></g></g></g><g fill="#e0e2e4" fill-opacity="1"><g transform="translate(142.334748, 46.552697)"><g><path d="M 17.53125 0 L 9.5625 0 L 9.5625 -26.921875 L 0.6875 -26.921875 L 0.6875 -33.4375 L 26.453125 -33.4375 L 26.453125 -26.921875 L 17.53125 -26.921875 Z M 17.53125 0 "/></g></g></g><g fill="#e0e2e4" fill-opacity="1"><g transform="translate(169.477996, 46.552697)"><g><path d="M 12 0 L 3.9375 0 L 3.9375 -33.4375 L 12 -33.4375 Z M 12 0 "/></g></g></g><g fill="#e0e2e4" fill-opacity="1"><g transform="translate(185.42948, 46.552697)"><g><path d="M 17.5 0.90625 C 14.40625 0.90625 11.703125 0.179688 9.390625 -1.265625 C 7.078125 -2.710938 5.273438 -4.753906 3.984375 -7.390625 C 2.703125 -10.035156 2.0625 -13.175781 2.0625 -16.8125 C 2.0625 -20.351562 2.703125 -23.4375 3.984375 -26.0625 C 5.273438 -28.695312 7.078125 -30.734375 9.390625 -32.171875 C 11.703125 -33.617188 14.40625 -34.34375 17.5 -34.34375 C 20.582031 -34.34375 23.273438 -33.613281 25.578125 -32.15625 C 27.878906 -30.695312 29.65625 -28.648438 30.90625 -26.015625 C 32.164062 -23.390625 32.796875 -20.320312 32.796875 -16.8125 C 32.796875 -13.175781 32.164062 -10.035156 30.90625 -7.390625 C 29.65625 -4.753906 27.878906 -2.710938 25.578125 -1.265625 C 23.273438 0.179688 20.582031 0.90625 17.5 0.90625 Z M 17.5 -5.828125 C 18.84375 -5.828125 20.0625 -6.253906 21.15625 -7.109375 C 22.257812 -7.972656 23.140625 -9.222656 23.796875 -10.859375 C 24.453125 -12.503906 24.78125 -14.488281 24.78125 -16.8125 C 24.78125 -20.289062 24.09375 -22.957031 22.71875 -24.8125 C 21.351562 -26.675781 19.613281 -27.609375 17.5 -27.609375 C 16.175781 -27.609375 14.953125 -27.191406 13.828125 -26.359375 C 12.703125 -25.535156 11.796875 -24.320312 11.109375 -22.71875 C 10.421875 -21.125 10.078125 -19.15625 10.078125 -16.8125 C 10.078125 -14.488281 10.394531 -12.503906 11.03125 -10.859375 C 11.675781 -9.222656 12.5625 -7.972656 13.6875 -7.109375 C 14.820312 -6.253906 16.09375 -5.828125 17.5 -5.828125 Z M 17.5 -5.828125 "/></g></g></g><g fill="#e0e2e4" fill-opacity="1"><g transform="translate(220.376955, 46.552697)"><g><path d="M 30.828125 0 L 21.046875 0 L 13.421875 -16 C 12.992188 -16.96875 12.570312 -18.035156 12.15625 -19.203125 C 11.738281 -20.378906 11.363281 -21.507812 11.03125 -22.59375 C 10.707031 -23.675781 10.460938 -24.5625 10.296875 -25.25 L 10.15625 -25.25 C 10.363281 -24.132812 10.546875 -22.785156 10.703125 -21.203125 C 10.859375 -19.617188 10.976562 -17.9375 11.0625 -16.15625 C 11.144531 -14.382812 11.1875 -12.6875 11.1875 -11.0625 L 11.1875 0 L 3.765625 0 L 3.765625 -33.4375 L 13.203125 -33.4375 L 20.875 -17.625 C 21.445312 -16.445312 21.984375 -15.226562 22.484375 -13.96875 C 22.984375 -12.71875 23.394531 -11.59375 23.71875 -10.59375 C 24.050781 -9.59375 24.25 -8.890625 24.3125 -8.484375 L 24.53125 -8.484375 C 24.269531 -9.890625 24.0625 -11.40625 23.90625 -13.03125 C 23.75 -14.664062 23.625 -16.253906 23.53125 -17.796875 C 23.445312 -19.335938 23.40625 -20.664062 23.40625 -21.78125 L 23.40625 -33.4375 L 30.828125 -33.4375 Z M 30.828125 0 "/></g></g></g></g></g></g><g transform="matrix(1, 0, 0, 1, 40, 28)"><g clip-path="url(#17fe9d2e48)"><g fill="#000000" fill-opacity="1"><g transform="translate(0.470178, 52.402171)"><g><path d="M 15.875 -30.984375 L 33.765625 -30.984375 L 35.984375 -33.875 C 36.398438 -33.539062 36.867188 -33.113281 37.390625 -32.59375 C 37.921875 -32.070312 38.492188 -31.453125 39.109375 -30.734375 L 38.578125 -29.84375 L 16.328125 -29.84375 Z M 10.34375 -23.421875 C 11.71875 -23.128906 12.40625 -22.769531 12.40625 -22.34375 C 12.40625 -21.988281 11.800781 -21.613281 10.59375 -21.21875 L 10.59375 3.1875 L 8.03125 3.1875 L 8.03125 -19.0625 C 7.21875 -17.726562 6.351562 -16.40625 5.4375 -15.09375 C 4.519531 -13.789062 3.523438 -12.484375 2.453125 -11.171875 L 1.515625 -11.90625 C 3.804688 -15.207031 5.820312 -18.898438 7.5625 -22.984375 C 9.3125 -27.066406 10.796875 -31.53125 12.015625 -36.375 C 14.890625 -35.71875 16.328125 -35.0625 16.328125 -34.40625 C 16.328125 -34.050781 15.640625 -33.742188 14.265625 -33.484375 C 13.640625 -31.585938 13.007812 -29.796875 12.375 -28.109375 C 11.738281 -26.429688 11.0625 -24.867188 10.34375 -23.421875 Z M 20.640625 -2.546875 L 21.265625 -2.59375 C 23.097656 -2.726562 25.253906 -2.945312 27.734375 -3.25 C 30.222656 -3.5625 33.050781 -3.929688 36.21875 -4.359375 C 34.71875 -6.648438 32.859375 -8.890625 30.640625 -11.078125 L 31.375 -11.859375 C 33.394531 -10.421875 35.15625 -8.957031 36.65625 -7.46875 C 38.164062 -5.988281 39.425781 -4.476562 40.4375 -2.9375 C 41.25 -1.789062 41.65625 -0.664062 41.65625 0.4375 C 41.65625 1.675781 41.148438 2.296875 40.140625 2.296875 C 39.453125 2.296875 38.914062 1.644531 38.53125 0.34375 C 38.226562 -0.507812 37.6875 -1.6875 36.90625 -3.1875 L 36.078125 -2.984375 C 33.359375 -2.429688 30.378906 -1.859375 27.140625 -1.265625 C 23.910156 -0.679688 20.453125 -0.113281 16.765625 0.4375 C 16.535156 1.519531 16.257812 2.0625 15.9375 2.0625 C 15.34375 2.0625 14.65625 0.671875 13.875 -2.109375 C 14.101562 -2.140625 14.363281 -2.15625 14.65625 -2.15625 C 14.945312 -2.15625 15.304688 -2.171875 15.734375 -2.203125 C 16.710938 -2.265625 17.414062 -2.316406 17.84375 -2.359375 L 19.21875 -2.40625 C 20.257812 -4.914062 21.1875 -7.484375 22 -10.109375 C 22.820312 -12.742188 23.546875 -15.4375 24.171875 -18.1875 L 13.625 -18.1875 L 13.140625 -19.265625 L 36.375 -19.265625 L 38.71875 -22.296875 C 39.28125 -21.804688 39.820312 -21.285156 40.34375 -20.734375 C 40.863281 -20.179688 41.382812 -19.609375 41.90625 -19.015625 L 41.421875 -18.1875 L 27.5 -18.1875 L 27.109375 -17.15625 C 26.222656 -14.570312 25.234375 -12.070312 24.140625 -9.65625 C 23.046875 -7.238281 21.878906 -4.867188 20.640625 -2.546875 Z M 20.640625 -2.546875 "/></g></g></g><g fill="#000000" fill-opacity="1"><g transform="translate(49.480111, 52.402171)"><g><path d="M 16.265625 3.28125 L 15.6875 2.296875 C 17.519531 1.347656 19.019531 0.25 20.1875 -1 C 21.363281 -2.257812 22.21875 -3.691406 22.75 -5.296875 C 23.164062 -6.503906 23.472656 -7.988281 23.671875 -9.75 C 23.867188 -11.519531 23.984375 -13.5625 24.015625 -15.875 C 26.828125 -15.71875 28.234375 -15.359375 28.234375 -14.796875 C 28.234375 -14.472656 27.675781 -14.082031 26.5625 -13.625 C 26.46875 -8.5625 25.570312 -4.738281 23.875 -2.15625 C 22.300781 0.195312 19.765625 2.007812 16.265625 3.28125 Z M 39.65625 -8.328125 L 40.78125 -7.984375 C 40.78125 -7.660156 40.78125 -7.316406 40.78125 -6.953125 C 40.78125 -6.597656 40.78125 -6.222656 40.78125 -5.828125 C 40.78125 -3.609375 40.925781 -2.171875 41.21875 -1.515625 C 41.414062 -1.023438 41.84375 -0.75 42.5 -0.6875 C 42.46875 0.425781 42.15625 1.144531 41.5625 1.46875 C 40.84375 1.789062 39.390625 1.953125 37.203125 1.953125 C 34.421875 1.953125 32.6875 1.707031 32 1.21875 C 31.476562 0.800781 31.21875 -0.046875 31.21875 -1.328125 L 31.21875 -16.765625 C 34.0625 -16.535156 35.484375 -16.125 35.484375 -15.53125 C 35.484375 -15.144531 34.894531 -14.738281 33.71875 -14.3125 L 33.71875 -1.953125 C 33.71875 -1.203125 33.914062 -0.734375 34.3125 -0.546875 C 34.570312 -0.410156 35.109375 -0.34375 35.921875 -0.34375 C 37.460938 -0.34375 38.378906 -0.671875 38.671875 -1.328125 C 39.128906 -2.335938 39.457031 -4.671875 39.65625 -8.328125 Z M 2.84375 0.140625 L 1.90625 -0.296875 C 3.1875 -3.628906 3.941406 -7.695312 4.171875 -12.5 C 6.785156 -12.070312 8.09375 -11.566406 8.09375 -10.984375 C 8.09375 -10.617188 7.632812 -10.335938 6.71875 -10.140625 C 5.925781 -6.023438 4.632812 -2.597656 2.84375 0.140625 Z M 12.75 -12.640625 L 13.53125 -13.140625 C 16.34375 -10.265625 17.75 -7.632812 17.75 -5.25 C 17.75 -3.9375 17.238281 -3.28125 16.21875 -3.28125 C 15.46875 -3.28125 15.0625 -3.882812 15 -5.09375 C 14.96875 -6.332031 14.753906 -7.570312 14.359375 -8.8125 C 13.960938 -10.0625 13.425781 -11.335938 12.75 -12.640625 Z M 18.71875 -29.84375 L 27.984375 -29.84375 L 27.984375 -36.375 C 30.828125 -36.269531 32.25 -35.925781 32.25 -35.34375 C 32.25 -35.007812 31.660156 -34.613281 30.484375 -34.15625 L 30.484375 -29.84375 L 36.8125 -29.84375 L 38.921875 -32.84375 C 39.472656 -32.320312 39.992188 -31.78125 40.484375 -31.21875 C 40.972656 -30.664062 41.414062 -30.144531 41.8125 -29.65625 L 41.3125 -28.765625 L 30 -28.765625 C 29.40625 -27.492188 28.734375 -26.1875 27.984375 -24.84375 C 27.234375 -23.507812 26.382812 -22.15625 25.4375 -20.78125 L 27.0625 -20.828125 C 28.65625 -20.890625 30.210938 -20.960938 31.734375 -21.046875 C 33.253906 -21.128906 34.71875 -21.238281 36.125 -21.375 C 35.601562 -22.125 35.003906 -22.859375 34.328125 -23.578125 C 33.660156 -24.296875 32.921875 -25.015625 32.109375 -25.734375 L 32.75 -26.46875 C 34.113281 -25.71875 35.316406 -24.941406 36.359375 -24.140625 C 37.410156 -23.335938 38.296875 -22.515625 39.015625 -21.671875 C 40.191406 -20.265625 40.78125 -19.101562 40.78125 -18.1875 C 40.78125 -17.175781 40.289062 -16.671875 39.3125 -16.671875 C 38.625 -16.671875 38.082031 -17.207031 37.6875 -18.28125 C 37.59375 -18.539062 37.472656 -18.84375 37.328125 -19.1875 C 37.179688 -19.53125 37.007812 -19.882812 36.8125 -20.25 L 36.5625 -20.1875 C 34.144531 -19.695312 31.675781 -19.320312 29.15625 -19.0625 C 26.644531 -18.800781 24.113281 -18.570312 21.5625 -18.375 C 21.207031 -17.363281 20.882812 -16.859375 20.59375 -16.859375 C 20.0625 -16.859375 19.566406 -18.117188 19.109375 -20.640625 C 19.597656 -20.640625 20.1875 -20.640625 20.875 -20.640625 C 21.5625 -20.640625 22.332031 -20.65625 23.1875 -20.6875 L 24.015625 -20.734375 C 25.128906 -23.179688 26.03125 -25.859375 26.71875 -28.765625 L 19.109375 -28.765625 Z M 6.46875 -28.765625 C 7.125 -29.910156 7.726562 -31.171875 8.28125 -32.546875 C 8.832031 -33.921875 9.375 -35.375 9.90625 -36.90625 C 12.257812 -36.09375 13.4375 -35.390625 13.4375 -34.796875 C 13.4375 -34.410156 12.894531 -34.195312 11.8125 -34.15625 C 11.1875 -33.144531 10.503906 -32.132812 9.765625 -31.125 C 9.035156 -30.113281 8.265625 -29.082031 7.453125 -28.03125 C 8.890625 -26.820312 9.609375 -25.628906 9.609375 -24.453125 C 9.609375 -23.347656 9.148438 -22.796875 8.234375 -22.796875 C 7.578125 -22.796875 7.101562 -23.269531 6.8125 -24.21875 C 6.519531 -25.164062 6.046875 -26.09375 5.390625 -27 C 4.734375 -27.914062 3.882812 -28.800781 2.84375 -29.65625 L 3.328125 -30.4375 C 3.953125 -30.175781 4.515625 -29.90625 5.015625 -29.625 C 5.523438 -29.351562 6.007812 -29.066406 6.46875 -28.765625 Z M 5.046875 -17.9375 L 6.375 -17.984375 C 8.195312 -20.398438 9.8125 -22.71875 11.21875 -24.9375 C 12.625 -27.164062 13.816406 -29.296875 14.796875 -31.328125 C 17.054688 -30.503906 18.1875 -29.785156 18.1875 -29.171875 C 18.1875 -28.742188 17.613281 -28.492188 16.46875 -28.421875 C 15.226562 -26.597656 13.910156 -24.828125 12.515625 -23.109375 C 11.128906 -21.390625 9.65625 -19.71875 8.09375 -18.09375 C 8.644531 -18.15625 9.484375 -18.226562 10.609375 -18.3125 C 11.734375 -18.394531 13.164062 -18.515625 14.90625 -18.671875 C 14.675781 -19.234375 14.394531 -19.796875 14.0625 -20.359375 C 13.738281 -20.929688 13.347656 -21.515625 12.890625 -22.109375 L 13.578125 -22.6875 C 16.816406 -20.4375 18.4375 -18.101562 18.4375 -15.6875 C 18.4375 -14.539062 17.941406 -13.96875 16.953125 -13.96875 C 16.234375 -13.96875 15.828125 -14.488281 15.734375 -15.53125 C 15.703125 -15.800781 15.660156 -16.097656 15.609375 -16.421875 C 15.554688 -16.742188 15.46875 -17.085938 15.34375 -17.453125 L 14.015625 -17.203125 L 12.796875 -16.953125 L 11.671875 -16.71875 L 11.671875 3.1875 L 9.171875 3.1875 L 9.171875 -16.21875 C 9.066406 -16.1875 8.945312 -16.160156 8.8125 -16.140625 C 8.6875 -16.128906 8.539062 -16.109375 8.375 -16.078125 C 8.144531 -16.046875 7.867188 -16.015625 7.546875 -15.984375 C 7.222656 -15.953125 6.847656 -15.898438 6.421875 -15.828125 C 5.929688 -15.765625 5.519531 -15.71875 5.1875 -15.6875 C 4.863281 -15.65625 4.617188 -15.601562 4.453125 -15.53125 C 4.160156 -14.582031 3.867188 -14.109375 3.578125 -14.109375 C 3.023438 -14.109375 2.503906 -15.351562 2.015625 -17.84375 C 2.535156 -17.875 3.046875 -17.894531 3.546875 -17.90625 C 4.054688 -17.925781 4.554688 -17.9375 5.046875 -17.9375 Z M 5.046875 -17.9375 "/></g></g></g><g fill="#000000" fill-opacity="1"><g transform="translate(98.490044, 52.402171)"><g><path d="M 32 -19.171875 C 33.050781 -19.722656 33.640625 -20.289062 33.765625 -20.875 C 33.898438 -21.46875 33.882812 -21.910156 33.71875 -22.203125 C 33.59375 -22.460938 33.265625 -22.675781 32.734375 -22.84375 C 32.210938 -23.007812 31.53125 -22.992188 30.6875 -22.796875 C 29.863281 -22.628906 29.109375 -22.320312 28.421875 -21.875 C 27.742188 -21.4375 27.125 -20.957031 26.5625 -20.4375 C 26.039062 -19.945312 25.535156 -19.332031 25.046875 -18.59375 C 24.554688 -17.863281 24.179688 -17.125 23.921875 -16.375 C 24.046875 -16.113281 24.175781 -15.816406 24.3125 -15.484375 C 24.539062 -15.554688 24.753906 -15.648438 24.953125 -15.765625 C 25.148438 -15.878906 25.363281 -15.984375 25.59375 -16.078125 C 26.632812 -16.535156 27.707031 -17.023438 28.8125 -17.546875 C 29.925781 -18.066406 30.988281 -18.609375 32 -19.171875 Z M 21.03125 -31.421875 C 21.0625 -31.222656 21.0625 -30.992188 21.03125 -30.734375 C 21.15625 -30.796875 21.265625 -30.859375 21.359375 -30.921875 C 21.460938 -30.992188 21.566406 -31.046875 21.671875 -31.078125 C 22.023438 -31.273438 22.265625 -31.476562 22.390625 -31.6875 C 22.523438 -31.894531 22.5625 -32.035156 22.5 -32.109375 C 22.332031 -32.304688 21.941406 -32.453125 21.328125 -32.546875 C 21.222656 -32.578125 21.117188 -32.59375 21.015625 -32.59375 C 20.921875 -32.59375 20.84375 -32.609375 20.78125 -32.640625 C 20.945312 -32.210938 21.03125 -31.804688 21.03125 -31.421875 Z M 35.34375 -23.421875 C 35.925781 -23.003906 36.273438 -22.53125 36.390625 -22 C 36.503906 -21.476562 36.488281 -20.972656 36.34375 -20.484375 C 36.195312 -19.992188 36.007812 -19.585938 35.78125 -19.265625 C 35.414062 -18.773438 34.90625 -18.289062 34.25 -17.8125 C 33.601562 -17.34375 32.90625 -16.910156 32.15625 -16.515625 C 31.4375 -16.160156 30.546875 -15.785156 29.484375 -15.390625 C 28.421875 -14.992188 27.414062 -14.601562 26.46875 -14.21875 C 26.238281 -14.113281 25.984375 -14.003906 25.703125 -13.890625 C 25.429688 -13.773438 25.164062 -13.65625 24.90625 -13.53125 C 24.9375 -13.269531 24.96875 -12.988281 25 -12.6875 C 25.03125 -12.394531 25.0625 -12.101562 25.09375 -11.8125 C 25.195312 -10.863281 25.191406 -10.03125 25.078125 -9.3125 C 24.960938 -8.59375 24.769531 -8.003906 24.5 -7.546875 C 24.082031 -6.628906 23.414062 -6.09375 22.5 -5.9375 C 21.976562 -5.894531 21.625 -6.035156 21.4375 -6.359375 C 21.257812 -6.691406 21.238281 -7.101562 21.375 -7.59375 C 21.53125 -8.082031 21.679688 -8.742188 21.828125 -9.578125 C 21.984375 -10.410156 22.078125 -11.253906 22.109375 -12.109375 C 22.109375 -12.171875 22.109375 -12.226562 22.109375 -12.28125 C 22.109375 -12.332031 22.109375 -12.375 22.109375 -12.40625 C 21.679688 -12.238281 21.28125 -12.0625 20.90625 -11.875 C 20.53125 -11.695312 20.160156 -11.515625 19.796875 -11.328125 C 19.046875 -10.898438 18.34375 -10.445312 17.6875 -9.96875 C 17.039062 -9.5 16.4375 -8.890625 15.875 -8.140625 C 15.457031 -7.546875 15.148438 -6.835938 14.953125 -6.015625 C 14.753906 -5.203125 14.882812 -4.457031 15.34375 -3.78125 C 15.800781 -3.15625 16.476562 -2.628906 17.375 -2.203125 C 18.269531 -1.773438 19.191406 -1.582031 20.140625 -1.625 C 21.160156 -1.6875 22.007812 -1.75 22.6875 -1.8125 C 23.375 -1.875 24.0625 -1.972656 24.75 -2.109375 C 25.40625 -2.273438 26.023438 -2.414062 26.609375 -2.53125 C 27.203125 -2.644531 27.675781 -2.71875 28.03125 -2.75 C 28.789062 -2.8125 29.375 -2.773438 29.78125 -2.640625 C 30.1875 -2.515625 30.601562 -2.285156 31.03125 -1.953125 C 31.414062 -1.660156 31.609375 -1.332031 31.609375 -0.96875 C 31.609375 -0.613281 31.429688 -0.359375 31.078125 -0.203125 C 30.910156 -0.0976562 30.640625 -0.00390625 30.265625 0.078125 C 29.890625 0.160156 29.273438 0.25 28.421875 0.34375 C 27.609375 0.4375 26.503906 0.539062 25.109375 0.65625 C 23.722656 0.769531 22.476562 0.8125 21.375 0.78125 C 20.257812 0.71875 19.117188 0.535156 17.953125 0.234375 C 16.796875 -0.0546875 15.742188 -0.476562 14.796875 -1.03125 C 13.984375 -1.519531 13.421875 -2.144531 13.109375 -2.90625 C 12.796875 -3.675781 12.65625 -4.519531 12.6875 -5.4375 C 12.726562 -6.351562 12.9375 -7.140625 13.3125 -7.796875 C 13.6875 -8.453125 14.179688 -9.085938 14.796875 -9.703125 C 15.390625 -10.296875 16.085938 -10.867188 16.890625 -11.421875 C 17.691406 -11.972656 18.53125 -12.492188 19.40625 -12.984375 C 19.832031 -13.210938 20.273438 -13.441406 20.734375 -13.671875 C 21.191406 -13.898438 21.648438 -14.128906 22.109375 -14.359375 C 22.078125 -14.753906 22.019531 -15.101562 21.9375 -15.40625 C 21.851562 -15.71875 21.695312 -16.023438 21.46875 -16.328125 C 21.070312 -16.878906 20.578125 -17.289062 19.984375 -17.5625 C 19.398438 -17.84375 18.847656 -18.019531 18.328125 -18.09375 C 17.253906 -18.25 16.207031 -18.082031 15.1875 -17.59375 C 14.925781 -17.46875 14.632812 -17.304688 14.3125 -17.109375 C 13.988281 -16.679688 13.671875 -16.28125 13.359375 -15.90625 C 13.046875 -15.53125 12.742188 -15.128906 12.453125 -14.703125 C 11.242188 -13.003906 10.050781 -12.15625 8.875 -12.15625 C 8.351562 -12.1875 8.023438 -12.347656 7.890625 -12.640625 C 7.765625 -12.941406 7.703125 -13.300781 7.703125 -13.71875 C 7.703125 -14.144531 7.789062 -14.550781 7.96875 -14.9375 C 8.144531 -15.332031 8.394531 -15.644531 8.71875 -15.875 C 9.082031 -16.070312 9.472656 -16.273438 9.890625 -16.484375 C 10.316406 -16.703125 10.757812 -16.972656 11.21875 -17.296875 C 12.164062 -17.953125 13.070312 -18.851562 13.9375 -20 C 14.8125 -21.144531 15.609375 -22.335938 16.328125 -23.578125 C 16.679688 -24.234375 16.976562 -24.804688 17.21875 -25.296875 C 17.46875 -25.785156 17.675781 -26.257812 17.84375 -26.71875 C 17.644531 -26.6875 17.445312 -26.660156 17.25 -26.640625 C 17.050781 -26.617188 16.859375 -26.59375 16.671875 -26.5625 C 15.910156 -26.5 15.179688 -26.507812 14.484375 -26.59375 C 13.785156 -26.675781 13.15625 -26.878906 12.59375 -27.203125 C 12.070312 -27.566406 11.738281 -28.050781 11.59375 -28.65625 C 11.445312 -29.257812 11.472656 -29.707031 11.671875 -30 C 11.960938 -30.382812 12.316406 -30.503906 12.734375 -30.359375 C 13.160156 -30.210938 13.640625 -30.039062 14.171875 -29.84375 C 14.691406 -29.6875 15.273438 -29.585938 15.921875 -29.546875 C 16.578125 -29.515625 17.28125 -29.582031 18.03125 -29.75 C 18.164062 -29.78125 18.289062 -29.800781 18.40625 -29.8125 C 18.519531 -29.832031 18.640625 -29.863281 18.765625 -29.90625 C 18.898438 -30.582031 18.894531 -31.078125 18.75 -31.390625 C 18.601562 -31.703125 18.398438 -31.988281 18.140625 -32.25 C 17.835938 -32.539062 17.675781 -32.859375 17.65625 -33.203125 C 17.644531 -33.546875 17.707031 -33.816406 17.84375 -34.015625 C 18.007812 -34.179688 18.257812 -34.269531 18.59375 -34.28125 C 18.9375 -34.300781 19.304688 -34.195312 19.703125 -33.96875 C 19.960938 -33.832031 20.191406 -33.617188 20.390625 -33.328125 C 20.742188 -33.296875 21.101562 -33.238281 21.46875 -33.15625 C 21.832031 -33.070312 22.078125 -33.015625 22.203125 -32.984375 C 22.429688 -32.953125 22.738281 -32.882812 23.125 -32.78125 C 23.519531 -32.6875 23.816406 -32.5625 24.015625 -32.40625 C 24.242188 -32.238281 24.316406 -32.03125 24.234375 -31.78125 C 24.148438 -31.539062 24.015625 -31.222656 23.828125 -30.828125 C 23.660156 -30.472656 23.320312 -30 22.8125 -29.40625 C 22.3125 -28.820312 21.78125 -28.347656 21.21875 -27.984375 C 20.925781 -27.785156 20.632812 -27.640625 20.34375 -27.546875 C 20.050781 -26.535156 19.660156 -25.601562 19.171875 -24.75 C 18.640625 -23.707031 18.160156 -22.828125 17.734375 -22.109375 C 17.316406 -21.390625 16.796875 -20.554688 16.171875 -19.609375 C 16.109375 -19.472656 16.035156 -19.347656 15.953125 -19.234375 C 15.867188 -19.117188 15.78125 -19 15.6875 -18.875 C 15.882812 -18.9375 16.085938 -19.015625 16.296875 -19.109375 C 16.503906 -19.210938 16.675781 -19.28125 16.8125 -19.3125 C 17.894531 -19.738281 19.003906 -19.835938 20.140625 -19.609375 C 21.191406 -19.472656 22.0625 -18.984375 22.75 -18.140625 C 22.84375 -18.265625 22.9375 -18.398438 23.03125 -18.546875 C 23.132812 -18.691406 23.25 -18.816406 23.375 -18.921875 C 24.195312 -19.960938 25 -20.828125 25.78125 -21.515625 C 26.5625 -22.203125 27.507812 -22.804688 28.625 -23.328125 C 29.738281 -23.847656 30.921875 -24.148438 32.171875 -24.234375 C 33.429688 -24.316406 34.488281 -24.046875 35.34375 -23.421875 Z M 35.34375 -23.421875 "/></g></g></g><g fill="#000000" fill-opacity="1"><g transform="translate(147.499978, 52.402171)"><g><path d="M 30.6875 -5.875 L 31.859375 -5.53125 C 31.859375 -4.488281 31.875 -3.625 31.90625 -2.9375 C 31.9375 -2.25 32.003906 -1.757812 32.109375 -1.46875 C 32.304688 -0.851562 32.828125 -0.507812 33.671875 -0.4375 C 33.546875 1.03125 32.796875 1.878906 31.421875 2.109375 C 30.703125 2.234375 29.640625 2.320312 28.234375 2.375 C 26.828125 2.425781 25.09375 2.453125 23.03125 2.453125 C 18.59375 2.453125 16 2.285156 15.25 1.953125 C 14.394531 1.566406 13.96875 0.65625 13.96875 -0.78125 L 13.96875 -9.3125 C 16.675781 -9.144531 18.03125 -8.769531 18.03125 -8.1875 C 18.03125 -7.863281 17.523438 -7.503906 16.515625 -7.109375 L 16.515625 -1.515625 C 16.515625 -0.734375 16.773438 -0.296875 17.296875 -0.203125 C 17.890625 -0.00390625 19.507812 0.09375 22.15625 0.09375 C 23.851562 0.09375 25.21875 0.0664062 26.25 0.015625 C 27.28125 -0.0234375 28.003906 -0.078125 28.421875 -0.140625 C 29.765625 -0.367188 30.519531 -2.28125 30.6875 -5.875 Z M 32.296875 -8.53125 L 32.890625 -9.40625 C 38.609375 -6.757812 41.46875 -4.082031 41.46875 -1.375 C 41.46875 -0.164062 40.945312 0.4375 39.90625 0.4375 C 39.25 0.4375 38.691406 -0.0820312 38.234375 -1.125 C 37.804688 -2.332031 37.09375 -3.546875 36.09375 -4.765625 C 35.101562 -5.992188 33.835938 -7.25 32.296875 -8.53125 Z M 8.828125 -8.78125 L 9.90625 -8.578125 C 9.90625 -5.273438 9.171875 -2.5625 7.703125 -0.4375 C 6.679688 0.96875 5.679688 1.671875 4.703125 1.671875 C 4.242188 1.671875 3.820312 1.472656 3.4375 1.078125 C 3.132812 0.722656 2.984375 0.347656 2.984375 -0.046875 C 2.984375 -0.535156 3.425781 -1.023438 4.3125 -1.515625 C 6.570312 -2.796875 8.078125 -5.21875 8.828125 -8.78125 Z M 10.34375 -25.484375 L 20.046875 -25.484375 L 21.953125 -27.84375 C 22.484375 -27.351562 22.953125 -26.894531 23.359375 -26.46875 C 23.765625 -26.039062 24.128906 -25.648438 24.453125 -25.296875 L 23.921875 -24.40625 L 10.78125 -24.40625 Z M 29.65625 -35.484375 L 30.140625 -36.265625 C 33.410156 -35.484375 35.046875 -34.3125 35.046875 -32.75 C 35.046875 -31.800781 34.554688 -31.328125 33.578125 -31.328125 C 32.953125 -31.328125 32.523438 -31.6875 32.296875 -32.40625 C 31.867188 -33.570312 30.988281 -34.597656 29.65625 -35.484375 Z M 20.25 -19.5625 L 14.21875 -19.5625 L 14.21875 -14.703125 L 20.25 -14.703125 Z M 14.40625 -20.640625 L 20 -20.640625 L 21.375 -22.296875 C 23.039062 -21.117188 23.875 -20.320312 23.875 -19.90625 C 23.875 -19.707031 23.757812 -19.539062 23.53125 -19.40625 L 22.640625 -18.828125 L 22.640625 -12.359375 L 20.25 -12.359375 L 20.25 -13.578125 L 14.21875 -13.578125 L 14.21875 -11.609375 L 11.8125 -11.609375 L 11.8125 -21.671875 C 12.269531 -21.535156 12.707031 -21.375 13.125 -21.1875 C 13.550781 -21.007812 13.976562 -20.828125 14.40625 -20.640625 Z M 31.328125 -19.359375 C 32.109375 -20.597656 32.820312 -21.878906 33.46875 -23.203125 C 34.125 -24.523438 34.710938 -25.890625 35.234375 -27.296875 C 37.523438 -26.285156 38.671875 -25.488281 38.671875 -24.90625 C 38.671875 -24.539062 38.050781 -24.359375 36.8125 -24.359375 C 36.21875 -23.117188 35.59375 -21.957031 34.9375 -20.875 C 34.289062 -19.800781 33.59375 -18.789062 32.84375 -17.84375 L 32.6875 -17.59375 C 34.8125 -14.882812 36.316406 -13.53125 37.203125 -13.53125 C 37.828125 -13.53125 38.300781 -15.75 38.625 -20.1875 L 39.796875 -19.609375 C 39.703125 -18.140625 39.65625 -16.992188 39.65625 -16.171875 C 39.65625 -13.691406 40.160156 -12.304688 41.171875 -12.015625 C 41.046875 -10.609375 40.425781 -9.90625 39.3125 -9.90625 C 36.957031 -9.90625 34.257812 -11.816406 31.21875 -15.640625 C 29.226562 -13.285156 26.710938 -11.242188 23.671875 -9.515625 C 26.023438 -8.140625 27.203125 -6.78125 27.203125 -5.4375 C 27.203125 -4.332031 26.710938 -3.78125 25.734375 -3.78125 C 25.140625 -3.78125 24.664062 -4.203125 24.3125 -5.046875 C 23.65625 -6.773438 22.148438 -8.554688 19.796875 -10.390625 L 20.390625 -11.21875 C 20.941406 -10.988281 21.40625 -10.773438 21.78125 -10.578125 C 22.15625 -10.390625 22.425781 -10.242188 22.59375 -10.140625 L 22.890625 -10.390625 C 25.304688 -12.085938 27.59375 -14.40625 29.75 -17.34375 C 27.65625 -20.550781 26.171875 -24.507812 25.296875 -29.21875 L 9.015625 -29.21875 L 9.015625 -23.578125 C 9.015625 -16.023438 6.910156 -10.335938 2.703125 -6.515625 L 1.90625 -7.25 C 4.882812 -11.207031 6.375 -16.648438 6.375 -23.578125 L 6.375 -31.609375 C 6.925781 -31.421875 7.460938 -31.21875 7.984375 -31 C 8.515625 -30.789062 9.023438 -30.554688 9.515625 -30.296875 L 25.09375 -30.296875 C 24.96875 -31.140625 24.863281 -32.078125 24.78125 -33.109375 C 24.695312 -34.140625 24.640625 -35.304688 24.609375 -36.609375 C 27.253906 -36.484375 28.578125 -36.109375 28.578125 -35.484375 C 28.578125 -35.191406 28.085938 -34.863281 27.109375 -34.5 C 27.140625 -33.820312 27.1875 -33.144531 27.25 -32.46875 C 27.3125 -31.800781 27.394531 -31.125 27.5 -30.4375 L 35.6875 -30.4375 L 37.5 -33.140625 C 38.050781 -32.609375 38.554688 -32.097656 39.015625 -31.609375 C 39.472656 -31.117188 39.878906 -30.644531 40.234375 -30.1875 L 39.75 -29.3125 L 27.640625 -29.3125 C 28.429688 -25.550781 29.660156 -22.234375 31.328125 -19.359375 Z M 31.328125 -19.359375 "/></g></g></g><g fill="#000000" fill-opacity="1"><g transform="translate(196.509911, 52.402171)"><g><path d="M 36.21875 -24.015625 C 35.894531 -23.890625 35.488281 -23.914062 35 -24.09375 C 34.507812 -24.269531 34.082031 -24.539062 33.71875 -24.90625 C 33.394531 -25.363281 33.003906 -25.738281 32.546875 -26.03125 C 32.085938 -26.320312 31.484375 -26.628906 30.734375 -26.953125 C 30.273438 -27.148438 30.128906 -27.460938 30.296875 -27.890625 C 30.359375 -28.015625 30.476562 -28.078125 30.65625 -28.078125 C 30.832031 -28.078125 30.972656 -28.078125 31.078125 -28.078125 C 31.890625 -28.117188 32.804688 -27.972656 33.828125 -27.640625 C 34.347656 -27.515625 34.910156 -27.28125 35.515625 -26.9375 C 36.117188 -26.59375 36.550781 -26.207031 36.8125 -25.78125 C 37.070312 -25.382812 37.128906 -25.023438 36.984375 -24.703125 C 36.835938 -24.378906 36.582031 -24.148438 36.21875 -24.015625 Z M 32.40625 -21.953125 C 32.039062 -21.859375 31.613281 -21.910156 31.125 -22.109375 C 30.632812 -22.304688 30.207031 -22.582031 29.84375 -22.9375 C 29.519531 -23.300781 29.128906 -23.660156 28.671875 -24.015625 C 28.210938 -24.378906 27.675781 -24.769531 27.0625 -25.1875 C 26.570312 -25.488281 26.441406 -25.816406 26.671875 -26.171875 C 26.734375 -26.273438 26.84375 -26.328125 27 -26.328125 C 27.164062 -26.328125 27.316406 -26.328125 27.453125 -26.328125 C 27.835938 -26.328125 28.25 -26.269531 28.6875 -26.15625 C 29.132812 -26.039062 29.617188 -25.898438 30.140625 -25.734375 C 30.628906 -25.535156 31.175781 -25.253906 31.78125 -24.890625 C 32.382812 -24.535156 32.800781 -24.160156 33.03125 -23.765625 C 33.289062 -23.347656 33.335938 -22.96875 33.171875 -22.625 C 33.015625 -22.28125 32.757812 -22.054688 32.40625 -21.953125 Z M 10.390625 -14.265625 C 10.453125 -14.722656 10.53125 -15.40625 10.625 -16.3125 C 10.726562 -17.226562 10.835938 -18.207031 10.953125 -19.25 C 11.066406 -20.300781 11.171875 -21.269531 11.265625 -22.15625 C 11.367188 -23.039062 11.4375 -23.675781 11.46875 -24.0625 C 11.53125 -24.625 11.59375 -25.269531 11.65625 -26 C 11.726562 -26.738281 11.796875 -27.441406 11.859375 -28.109375 C 11.921875 -28.773438 11.953125 -29.273438 11.953125 -29.609375 C 11.953125 -30.097656 11.828125 -30.578125 11.578125 -31.046875 C 11.335938 -31.523438 11.171875 -31.863281 11.078125 -32.0625 C 10.941406 -32.25 10.875 -32.472656 10.875 -32.734375 C 10.875 -33.003906 10.957031 -33.203125 11.125 -33.328125 C 11.289062 -33.492188 11.507812 -33.535156 11.78125 -33.453125 C 12.0625 -33.367188 12.316406 -33.265625 12.546875 -33.140625 C 12.773438 -33.003906 13.0625 -32.820312 13.40625 -32.59375 C 13.75 -32.363281 14.097656 -32.019531 14.453125 -31.5625 C 14.816406 -31.132812 14.960938 -30.617188 14.890625 -30.015625 C 14.828125 -29.410156 14.734375 -28.800781 14.609375 -28.1875 C 14.472656 -27.5625 14.28125 -26.757812 14.03125 -25.78125 C 13.789062 -24.800781 13.609375 -23.984375 13.484375 -23.328125 C 13.410156 -22.941406 13.304688 -22.253906 13.171875 -21.265625 C 13.046875 -20.285156 12.925781 -19.28125 12.8125 -18.25 C 12.695312 -17.226562 12.609375 -16.421875 12.546875 -15.828125 C 12.453125 -15.015625 12.363281 -13.953125 12.28125 -12.640625 C 12.195312 -11.335938 12.222656 -10.128906 12.359375 -9.015625 C 12.515625 -7.910156 12.828125 -6.957031 13.296875 -6.15625 C 13.773438 -5.351562 14.328125 -4.640625 14.953125 -4.015625 C 15.609375 -3.398438 16.457031 -2.957031 17.5 -2.6875 C 18.539062 -2.425781 19.421875 -2.316406 20.140625 -2.359375 C 20.890625 -2.390625 21.664062 -2.5 22.46875 -2.6875 C 23.269531 -2.882812 23.929688 -3.113281 24.453125 -3.375 C 24.941406 -3.644531 25.644531 -4.023438 26.5625 -4.515625 C 27.476562 -5.003906 28.25 -5.441406 28.875 -5.828125 C 29.488281 -6.191406 30.195312 -6.660156 31 -7.234375 C 31.800781 -7.804688 32.382812 -8.238281 32.75 -8.53125 C 33.101562 -8.820312 33.523438 -9.179688 34.015625 -9.609375 C 34.503906 -10.035156 34.816406 -10.296875 34.953125 -10.390625 C 35.210938 -10.710938 35.488281 -10.796875 35.78125 -10.640625 C 35.976562 -10.335938 35.960938 -10.078125 35.734375 -9.859375 C 35.597656 -9.691406 35.347656 -9.421875 34.984375 -9.046875 C 34.628906 -8.671875 34.207031 -8.253906 33.71875 -7.796875 C 33.226562 -7.367188 32.484375 -6.722656 31.484375 -5.859375 C 30.492188 -4.992188 29.34375 -4.085938 28.03125 -3.140625 C 26.789062 -2.222656 25.492188 -1.503906 24.140625 -0.984375 C 22.785156 -0.460938 21.550781 -0.148438 20.4375 -0.046875 C 19.320312 0.078125 18.148438 -0.0234375 16.921875 -0.359375 C 15.703125 -0.703125 14.6875 -1.171875 13.875 -1.765625 C 13.050781 -2.347656 12.285156 -3.140625 11.578125 -4.140625 C 10.878906 -5.140625 10.4375 -6.191406 10.25 -7.296875 C 10.019531 -8.441406 9.96875 -9.660156 10.09375 -10.953125 C 10.226562 -12.242188 10.328125 -13.347656 10.390625 -14.265625 Z M 10.390625 -14.265625 "/></g></g></g><g fill="#000000" fill-opacity="1"><g transform="translate(245.519853, 52.402171)"><g><path d="M 36.375 -11.28125 C 36.5 -9.9375 36.378906 -8.75 36.015625 -7.71875 C 35.660156 -6.6875 35.0625 -5.695312 34.21875 -4.75 C 33.300781 -3.738281 32.296875 -2.921875 31.203125 -2.296875 C 30.109375 -1.679688 28.9375 -1.207031 27.6875 -0.875 C 26.445312 -0.550781 25.195312 -0.394531 23.9375 -0.40625 C 22.6875 -0.425781 21.320312 -0.566406 19.84375 -0.828125 C 18.34375 -1.160156 17.273438 -1.585938 16.640625 -2.109375 C 16.003906 -2.628906 15.6875 -3.25 15.6875 -3.96875 C 15.65625 -4.71875 16.019531 -5.363281 16.78125 -5.90625 C 17.550781 -6.445312 18.347656 -6.78125 19.171875 -6.90625 C 20.015625 -7.070312 20.894531 -7.101562 21.8125 -7 C 22.726562 -6.90625 23.546875 -6.566406 24.265625 -5.984375 C 24.921875 -5.460938 25.265625 -4.914062 25.296875 -4.34375 C 25.328125 -3.769531 25.195312 -3.1875 24.90625 -2.59375 C 26.082031 -2.757812 27.195312 -3.019531 28.25 -3.375 C 29.3125 -3.738281 30.238281 -4.234375 31.03125 -4.859375 C 31.976562 -5.640625 32.679688 -6.5625 33.140625 -7.625 C 33.597656 -8.6875 33.828125 -9.769531 33.828125 -10.875 C 33.859375 -12.019531 33.476562 -13.1875 32.6875 -14.375 C 31.90625 -15.570312 30.828125 -16.484375 29.453125 -17.109375 C 26.710938 -18.285156 23.804688 -18.382812 20.734375 -17.40625 C 19.203125 -16.914062 17.921875 -16.289062 16.890625 -15.53125 C 15.859375 -14.78125 14.96875 -13.914062 14.21875 -12.9375 C 13.5 -11.988281 12.875 -11 12.34375 -9.96875 C 11.820312 -8.945312 11.46875 -8.109375 11.28125 -7.453125 C 10.914062 -6.242188 10.421875 -5.472656 9.796875 -5.140625 C 9.671875 -5.078125 9.46875 -5.019531 9.1875 -4.96875 C 8.914062 -4.925781 8.582031 -5.066406 8.1875 -5.390625 C 7.925781 -5.617188 7.757812 -5.953125 7.6875 -6.390625 C 7.625 -6.835938 7.609375 -7.222656 7.640625 -7.546875 C 7.679688 -7.867188 7.945312 -8.363281 8.4375 -9.03125 C 8.925781 -9.707031 9.378906 -10.320312 9.796875 -10.875 C 10.253906 -11.46875 10.8125 -12.1875 11.46875 -13.03125 C 12.125 -13.882812 12.859375 -14.769531 13.671875 -15.6875 C 14.234375 -16.300781 14.863281 -17.015625 15.5625 -17.828125 C 16.257812 -18.648438 16.925781 -19.445312 17.5625 -20.21875 C 18.207031 -20.988281 18.707031 -21.566406 19.0625 -21.953125 C 19.320312 -22.285156 19.695312 -22.742188 20.1875 -23.328125 C 20.675781 -23.921875 21.191406 -24.539062 21.734375 -25.1875 C 22.273438 -25.84375 22.757812 -26.429688 23.1875 -26.953125 C 23.613281 -27.484375 23.890625 -27.84375 24.015625 -28.03125 C 24.609375 -28.789062 24.789062 -29.265625 24.5625 -29.453125 C 24.425781 -29.585938 24.191406 -29.597656 23.859375 -29.484375 C 23.535156 -29.367188 23.242188 -29.226562 22.984375 -29.0625 C 22.828125 -28.96875 22.484375 -28.765625 21.953125 -28.453125 C 21.429688 -28.140625 20.867188 -27.800781 20.265625 -27.4375 C 19.660156 -27.082031 19.128906 -26.773438 18.671875 -26.515625 C 17.953125 -26.160156 17.316406 -25.890625 16.765625 -25.703125 C 16.210938 -25.523438 15.625 -25.4375 15 -25.4375 C 14.375 -25.4375 13.859375 -25.554688 13.453125 -25.796875 C 13.046875 -26.046875 12.710938 -26.285156 12.453125 -26.515625 C 12.222656 -26.773438 12.054688 -27.0625 11.953125 -27.375 C 11.859375 -27.6875 11.84375 -27.921875 11.90625 -28.078125 C 12.007812 -28.347656 12.164062 -28.5 12.375 -28.53125 C 12.582031 -28.5625 12.785156 -28.546875 12.984375 -28.484375 C 13.210938 -28.441406 13.46875 -28.378906 13.75 -28.296875 C 14.03125 -28.222656 14.332031 -28.1875 14.65625 -28.1875 C 14.976562 -28.15625 15.328125 -28.175781 15.703125 -28.25 C 16.078125 -28.332031 16.644531 -28.539062 17.40625 -28.875 C 18.15625 -29.164062 18.984375 -29.53125 19.890625 -29.96875 C 20.804688 -30.414062 21.675781 -30.847656 22.5 -31.265625 C 23.34375 -31.722656 24.039062 -32.09375 24.59375 -32.375 C 25.15625 -32.65625 25.664062 -32.8125 26.125 -32.84375 C 26.613281 -32.875 27.085938 -32.757812 27.546875 -32.5 C 28.003906 -32.238281 28.394531 -31.925781 28.71875 -31.5625 C 29.050781 -31.238281 29.25 -30.953125 29.3125 -30.703125 C 29.375 -30.460938 29.375 -30.226562 29.3125 -30 C 29.25 -29.632812 28.90625 -29.257812 28.28125 -28.875 C 27.957031 -28.675781 27.457031 -28.289062 26.78125 -27.71875 C 26.113281 -27.144531 25.453125 -26.53125 24.796875 -25.875 C 24.148438 -25.1875 23.445312 -24.398438 22.6875 -23.515625 C 21.9375 -22.640625 21.269531 -21.875 20.6875 -21.21875 C 20.6875 -21.21875 20.390625 -20.90625 19.796875 -20.28125 C 19.210938 -19.664062 18.347656 -18.753906 17.203125 -17.546875 C 17.566406 -17.804688 17.941406 -18.039062 18.328125 -18.25 C 18.722656 -18.46875 19.25 -18.691406 19.90625 -18.921875 C 20.851562 -19.273438 21.847656 -19.535156 22.890625 -19.703125 C 23.929688 -19.867188 25.078125 -19.882812 26.328125 -19.75 C 27.597656 -19.625 28.765625 -19.363281 29.828125 -18.96875 C 30.890625 -18.570312 31.878906 -18.050781 32.796875 -17.40625 C 33.742188 -16.75 34.539062 -15.921875 35.1875 -14.921875 C 35.84375 -13.929688 36.238281 -12.71875 36.375 -11.28125 Z M 21.90625 -2.5 C 22.5625 -3.082031 22.847656 -3.601562 22.765625 -4.0625 C 22.679688 -4.519531 22.382812 -4.878906 21.875 -5.140625 C 21.375 -5.398438 20.78125 -5.53125 20.09375 -5.53125 C 19.3125 -5.5 18.722656 -5.285156 18.328125 -4.890625 C 17.941406 -4.503906 17.910156 -4.066406 18.234375 -3.578125 C 18.429688 -3.316406 18.835938 -3.078125 19.453125 -2.859375 C 20.078125 -2.648438 20.894531 -2.53125 21.90625 -2.5 Z M 21.90625 -2.5 "/></g></g></g></g></g></svg>